<svg width="54" height="53" viewBox="0 0 54 53" fill="none" xmlns="http://www.w3.org/2000/svg">
<path d="M18.483 33.3702C20.568 33.3702 22.2583 34.7675 22.2583 36.4911V49.879C22.2583 51.6026 20.568 52.9997 18.483 52.9997C16.3983 52.9997 14.708 51.6026 14.708 49.879V36.4911C14.708 34.7678 16.3983 33.3705 18.483 33.3705V33.3702Z" fill="#A4C639"/>
<path d="M9.86415 17.2744C9.85169 17.3928 9.84082 17.5124 9.84082 17.6334V37.9172C9.84082 40.0986 11.9295 41.856 14.5225 41.856H39.4747C42.0679 41.856 44.1567 40.0984 44.1567 37.9172V17.6334C44.1567 17.5124 44.1514 17.3923 44.1392 17.2744H9.86415Z" fill="#A4C639"/>
<path d="M35.5152 33.3702C37.6002 33.3702 39.2904 34.7675 39.2904 36.4911V49.879C39.2904 51.6026 37.6002 52.9997 35.5152 52.9997C33.4304 52.9997 31.7401 51.6026 31.7401 49.879V36.4911C31.7401 34.7677 33.4304 33.3704 35.5152 33.3704V33.3702ZM3.77529 19.0795C5.86003 19.0795 7.55031 20.4768 7.55031 22.2004V35.5882C7.55031 37.3118 5.86003 38.7091 3.77529 38.7091C1.69028 38.7091 3.11791e-08 37.3118 3.11791e-08 35.5885V22.2006C-0.000265069 20.477 1.69001 19.0795 3.77529 19.0795ZM50.2232 19.0795C52.3079 19.0795 53.9982 20.4768 53.9982 22.2004V35.5882C53.9982 37.3118 52.3079 38.7091 50.2232 38.7091C48.1381 38.7091 46.4479 37.3118 46.4479 35.5885V22.2006C46.4479 20.477 48.1381 19.0795 50.2232 19.0795V19.0795ZM9.97464 15.9419C10.0796 9.71153 16.6578 4.60316 25.1018 3.92993H28.8959C37.3404 4.60338 43.918 9.71197 44.023 15.9419H9.97464Z" fill="#A4C639"/>
<path d="M42.7112 3.32861L38.7286 9.03088M11.2881 3.32861L15.2704 9.03088L11.2881 3.32861Z" stroke="#A4C639" stroke-width="4.87" stroke-linecap="round" stroke-linejoin="round"/>
<path d="M21.9277 10.3585C21.9309 11.2294 21.059 11.9375 19.98 11.9399C18.9016 11.9421 18.0247 11.2382 18.0215 10.3673V10.3585C18.0186 9.48737 18.8905 8.77952 19.9692 8.77711C21.0476 8.7747 21.9246 9.47838 21.9277 10.3497V10.3585ZM36.5072 10.3585C36.5104 11.2294 35.6384 11.9375 34.5595 11.9399C33.4811 11.9421 32.6041 11.2382 32.6009 10.3673V10.3585C32.598 9.48737 33.4699 8.77952 34.5486 8.77711C35.627 8.7747 36.504 9.47838 36.5072 10.3497V10.3585Z" fill="white"/>
</svg>
