<svg width="24" height="27" viewBox="0 0 24 27" fill="none" xmlns="http://www.w3.org/2000/svg">
<path fill-rule="evenodd" clip-rule="evenodd" d="M4.93215 0.0441819C5.09513 -0.0467738 5.30352 0.00720884 5.39761 0.164756L6.67541 2.30434C7.77995 1.4215 9.19181 0.833456 10.7525 0.68042H12.3777C13.9382 0.833478 15.3498 1.42139 16.4543 2.30399L17.7319 0.164747C17.826 0.0072033 18.0344 -0.0467736 18.1974 0.0441866C18.3604 0.135147 18.4162 0.336599 18.3221 0.494143L16.9695 2.75882C18.1244 3.88487 18.8351 5.37349 18.8575 7.00876H4.27269C4.29509 5.37363 5.00558 3.8852 6.16018 2.75922L4.80742 0.494135C4.71333 0.336589 4.76918 0.135138 4.93215 0.0441819ZM13.596 21.0895H9.52457V24.9097C9.52457 25.8057 8.76308 26.532 7.82375 26.532C6.88454 26.532 6.12305 25.8057 6.12305 24.9097V21.0895C4.99255 21.089 4.08203 20.1165 4.08203 18.9094V7.68209C4.08203 7.61513 4.08677 7.5489 4.09221 7.4834H19.0411C19.0464 7.54866 19.0488 7.61513 19.0488 7.68209V18.9094C19.0488 20.1167 18.1378 21.0895 17.0067 21.0895H16.8303V24.8879C16.8303 25.796 16.1062 26.532 15.2131 26.532C14.3201 26.532 13.596 25.796 13.596 24.8879V21.0895ZM3.23421 10.3059C3.23421 9.39788 2.51017 8.66173 1.61716 8.66173C0.723924 8.66173 -0.00011353 9.39799 0 10.306V17.3592C0 18.2672 0.724038 19.0033 1.61716 19.0033C2.51017 19.0033 3.23421 18.2672 3.23421 17.3591V10.3059ZM23.1304 10.3059C23.1304 9.39788 22.4063 8.66173 21.5133 8.66173C20.6202 8.66173 19.8962 9.39799 19.8962 10.306V17.3592C19.8962 18.2672 20.6202 19.0033 21.5133 19.0033C22.4063 19.0033 23.1304 18.2672 23.1304 17.3591V10.3059ZM8.3483 5.44252C8.82479 5.44097 9.20984 4.98405 9.20844 4.42207V4.41641C9.20703 3.85414 8.81975 3.40006 8.3435 3.40162C7.86712 3.40317 7.48207 3.85994 7.48336 4.42207V4.42773C7.48476 4.98971 7.87204 5.44394 8.3483 5.44252ZM14.7869 5.44252C15.2634 5.44097 15.6484 4.98405 15.647 4.42207V4.41641C15.6456 3.85414 15.2583 3.40006 14.7821 3.40162C14.3057 3.40317 13.9206 3.85994 13.9219 4.42207V4.42773C13.9233 4.98971 14.3106 5.44394 14.7869 5.44252Z" fill="#87E43D"/>
</svg>
