<svg width="39" height="42" viewBox="0 0 39 42" fill="none" xmlns="http://www.w3.org/2000/svg">
<g clip-path="url(#clip0_480_5198)">
<path d="M20.6741 0C21.0677 0.153125 21.4832 0.2625 21.833 0.48125C22.6967 1.01719 23.1887 1.82656 23.2215 2.85469C23.2543 3.57656 23.2325 4.29844 23.2325 5.08594C23.7682 5.08594 24.2711 5.08594 24.7631 5.08594C25.6815 5.08594 26.1406 5.54531 26.1516 6.475C26.1516 7.22969 26.1516 7.97344 26.1516 8.72813C26.1516 8.925 26.1844 9.03438 26.403 9.11094C27.3214 9.45 28.2289 9.81094 29.3003 10.2375C29.4534 10.0625 29.672 9.76719 29.9235 9.50469C30.3061 9.1 30.6997 8.69531 31.1152 8.32344C31.6181 7.85312 32.2632 7.83125 32.7442 8.29063C33.7391 9.25313 34.7122 10.2266 35.6743 11.2219C36.1444 11.7141 36.0897 12.3594 35.5977 12.8734C35.073 13.4203 34.5372 13.9453 34.0015 14.4703C33.8922 14.5797 33.761 14.6453 33.7282 14.6672C34.1327 15.7281 34.4935 16.6687 34.8762 17.5984C34.9199 17.6969 35.0948 17.7844 35.2042 17.7953C35.9804 17.8172 36.7567 17.8063 37.5438 17.8063C38.4185 17.8063 38.8777 18.2766 38.8777 19.1516C38.8777 20.3766 38.8777 21.6125 38.8777 22.8375C38.8777 23.7344 38.4075 24.1828 37.511 24.1937C36.7457 24.1937 35.9804 24.1828 35.2151 24.2047C35.0948 24.2047 34.9199 24.3031 34.8762 24.3906C34.4935 25.3203 34.1437 26.2609 33.7501 27.2562C34.2748 27.7812 34.8652 28.3719 35.4447 28.9625C36.1553 29.6844 36.1553 30.2969 35.4447 31.0078C34.6028 31.85 33.761 32.6922 32.9191 33.5234C32.2632 34.1797 31.629 34.1797 30.9621 33.5234C30.4264 32.9984 29.8907 32.4625 29.3659 31.9266C29.2128 31.7734 29.1035 31.7406 28.8848 31.8391C28.0758 32.2 27.2668 32.55 26.4358 32.8562C26.1844 32.9547 26.1297 33.0641 26.1406 33.2937C26.1516 34.0266 26.1516 34.7703 26.1406 35.5031C26.1406 36.4328 25.6815 36.8922 24.7631 36.8922C24.2711 36.8922 23.7791 36.8922 23.2215 36.8922C23.2215 37.6578 23.2434 38.3906 23.2106 39.1234C23.1559 40.4141 22.2813 41.5078 21.0458 41.8578C20.7506 41.9453 20.4227 41.9781 20.1165 41.9781C14.4423 41.9891 8.77894 41.9891 3.10468 41.9781C1.2898 41.9781 -0.0112386 40.6656 -0.0112386 38.8391C-0.0112386 29.2578 -0.0112386 19.6766 -0.0112386 10.0844C-0.0112386 9.54844 0.218356 9.24219 0.622879 9.25312C1.01647 9.26406 1.2242 9.55938 1.2242 10.1172C1.2242 17.9375 1.2242 25.7578 1.2242 33.5781C1.2242 33.7531 1.2242 33.9281 1.2242 34.125C8.15576 34.125 15.0545 34.125 21.997 34.125C21.997 33.9609 21.997 33.8187 21.997 33.6656C21.997 23.5375 21.997 13.4094 21.997 3.28125C21.997 1.90312 21.3082 1.21406 19.9416 1.21406C14.3767 1.21406 8.82268 1.21406 3.25775 1.21406C1.93485 1.21406 1.2242 1.91406 1.2242 3.22656C1.2242 4.39687 1.2242 5.57813 1.2242 6.74844C1.2242 6.86875 1.23513 7 1.21326 7.12031C1.14767 7.45937 0.929005 7.66719 0.59008 7.64531C0.251155 7.63438 0.0106276 7.42656 0.0106276 7.07656C-0.000305512 5.6 -0.0440378 4.12344 0.0324937 2.64688C0.109025 1.44375 1.0602 0.4375 2.25191 0.0984375C2.3503 0.065625 2.45963 0.0328125 2.55803 0C8.59308 0 14.6391 0 20.6741 0ZM23.2762 13.3328C23.3527 13.3547 23.3855 13.3656 23.4074 13.3656C27.7369 13.7156 30.7763 17.1281 30.6013 21.4703C30.5576 22.5094 30.2843 23.4937 29.8142 24.4125C29.6392 24.7625 29.3003 24.8828 28.9942 24.7297C28.6881 24.5875 28.5678 24.2484 28.7099 23.8984C28.7427 23.8219 28.7755 23.7453 28.8083 23.6687C30.3936 20.1687 28.6115 16.0891 24.9599 14.8969C24.4242 14.7219 23.8666 14.6563 23.2871 14.525C23.2871 18.8781 23.2871 23.1219 23.2871 27.3766C23.3964 27.3766 23.4839 27.3766 23.5604 27.3766C23.6588 27.3656 23.7463 27.3547 23.8447 27.3438C25.0364 27.1687 26.0969 26.7094 27.0372 25.9547C27.4198 25.6484 27.7697 25.6703 28.0102 25.9766C28.2398 26.2828 28.1851 26.6328 27.7806 26.9281C27.3651 27.2344 26.9278 27.5297 26.4796 27.7812C25.4956 28.3172 24.4242 28.5687 23.2871 28.6453C23.2871 30.9969 23.2871 33.3266 23.2871 35.6453C23.8447 35.6453 24.3695 35.6453 24.938 35.6453C24.938 34.65 24.938 33.6875 24.938 32.7141C24.938 32.0797 25.0473 32.0031 25.6377 31.7953C26.6217 31.4453 27.6057 31.0734 28.5459 30.6141C29.3768 30.2094 29.3768 30.1656 30.0437 30.8328C30.6779 31.4672 31.3011 32.1125 31.9242 32.7359C32.8754 31.7844 33.7719 30.8656 34.7012 29.925C34.0234 29.2578 33.3346 28.5578 32.6349 27.8688C32.2194 27.4531 32.1866 27.2563 32.4928 26.7531C33.0722 25.8016 33.4986 24.7844 33.7719 23.7016C33.9578 23.0016 34.0343 22.9359 34.7559 22.9359C35.7071 22.9359 36.6583 22.9359 37.6204 22.9359C37.6204 21.6016 37.6204 20.3109 37.6204 19.0094C36.6036 19.0094 35.6305 19.0094 34.6466 19.0094C34.089 19.0094 33.9359 18.8891 33.7938 18.3313C33.5314 17.2375 33.105 16.2094 32.5146 15.2359C32.1757 14.6781 32.1976 14.5141 32.6458 14.0547C33.3346 13.3656 34.0234 12.6875 34.6684 12.0312C33.7391 11.0906 32.8317 10.1719 31.8914 9.23125C31.1917 9.93125 30.4811 10.6531 29.7704 11.375C29.508 11.6375 29.2238 11.7469 28.8848 11.5391C27.8025 10.8719 26.6545 10.3906 25.4191 10.1063C25.0692 10.0188 24.8943 9.78906 24.9052 9.41719C24.9052 8.60781 24.9052 7.80938 24.9052 7C24.9052 6.77031 24.9052 6.54063 24.9052 6.31094C24.3258 6.31094 23.801 6.31094 23.2543 6.31094C23.2762 8.68438 23.2762 11.0031 23.2762 13.3328ZM1.24606 35.4156C1.24606 36.5422 1.24606 37.6141 1.24606 38.6969C1.24606 40.075 1.93485 40.7641 3.30148 40.7641C8.84454 40.7641 14.3876 40.7641 19.9416 40.7641C20.0728 40.7641 20.2149 40.7641 20.3461 40.7641C21.177 40.7094 21.9424 40.0641 21.9861 39.2547C22.0407 37.9969 22.0079 36.7391 21.997 35.4812C21.997 35.4594 21.9642 35.4375 21.9314 35.4156C15.0545 35.4156 8.17763 35.4156 1.24606 35.4156Z" fill="white"/>
<path d="M2.56953 6.48613C2.56953 5.89551 2.55859 5.31582 2.56953 4.7252C2.58046 4.10176 2.89752 3.78457 3.50977 3.78457C4.67961 3.77363 5.86038 3.77363 7.03021 3.78457C7.6206 3.78457 7.94859 4.1127 7.94859 4.70332C7.95952 5.87363 7.95952 7.05488 7.94859 8.22519C7.94859 8.82676 7.64247 9.15488 7.05208 9.16582C5.84944 9.17676 4.64681 9.1877 3.44417 9.16582C2.87565 9.15488 2.58046 8.82676 2.55859 8.24707C2.56953 7.65645 2.56953 7.06582 2.56953 6.48613ZM6.70222 7.91895C6.70222 6.92363 6.70222 5.98301 6.70222 5.04238C5.72918 5.04238 4.778 5.04238 3.83776 5.04238C3.83776 6.01582 3.83776 6.96738 3.83776 7.91895C4.8108 7.91895 5.74011 7.91895 6.70222 7.91895Z" fill="white"/>
<path d="M20.6851 6.46396C20.6851 7.05459 20.6851 7.63428 20.6851 8.2249C20.6851 8.80459 20.3899 9.14365 19.8214 9.15459C18.6078 9.17646 17.3943 9.17646 16.1698 9.15459C15.6231 9.14365 15.317 8.82646 15.3061 8.26865C15.2951 7.06553 15.2951 5.8624 15.3061 4.65928C15.317 4.07959 15.634 3.77334 16.2026 3.77334C17.3943 3.7624 18.575 3.7624 19.7667 3.77334C20.3571 3.77334 20.6633 4.10146 20.6742 4.69209C20.6851 5.29365 20.6851 5.87334 20.6851 6.46396ZM16.5524 7.91865C17.5364 7.91865 18.4657 7.91865 19.4169 7.91865C19.4169 6.93428 19.4169 5.98271 19.4169 5.04209C18.4438 5.04209 17.5145 5.04209 16.5524 5.04209C16.5524 5.99365 16.5524 6.93428 16.5524 7.91865Z" fill="white"/>
<path d="M8.94334 6.44238C8.94334 5.85176 8.9324 5.27207 8.94334 4.68145C8.95427 4.1127 9.26039 3.78457 9.82891 3.78457C11.0316 3.77363 12.2342 3.77363 13.4368 3.78457C13.9725 3.78457 14.2896 4.09082 14.3005 4.61582C14.3115 5.8627 14.3115 7.09863 14.3005 8.34551C14.2896 8.81582 14.0053 9.14395 13.5462 9.15488C12.2779 9.17676 11.0097 9.1877 9.74145 9.15488C9.23853 9.14395 8.9652 8.80488 8.95427 8.29082C8.94334 7.66738 8.94334 7.05488 8.94334 6.44238ZM13.0542 7.91895C13.0542 6.92363 13.0542 5.98301 13.0542 5.03145C12.0811 5.03145 11.1518 5.03145 10.2006 5.03145C10.2006 6.00488 10.2006 6.94551 10.2006 7.91895C11.1627 7.91895 12.0921 7.91895 13.0542 7.91895Z" fill="white"/>
<path d="M5.28112 10.7407C5.87151 10.7407 6.45096 10.7298 7.04135 10.7407C7.63173 10.7516 7.94879 11.0579 7.95972 11.6594C7.97066 12.8516 7.97066 14.0329 7.95972 15.2251C7.95972 15.7829 7.6536 16.1001 7.09601 16.111C5.88244 16.1219 4.66887 16.1219 3.44437 16.111C2.88678 16.1001 2.58066 15.7938 2.56972 15.236C2.55879 14.0329 2.55879 12.8298 2.56972 11.6266C2.58066 11.047 2.89772 10.7407 3.46623 10.7407C4.07849 10.7298 4.6798 10.7407 5.28112 10.7407ZM6.71335 11.9985C5.74031 11.9985 4.78914 11.9985 3.82703 11.9985C3.82703 12.961 3.82703 13.9016 3.82703 14.8532C4.80007 14.8532 5.74031 14.8532 6.71335 14.8532C6.71335 13.9016 6.71335 12.9719 6.71335 11.9985Z" fill="white"/>
<path d="M17.9852 10.7407C18.5865 10.7407 19.1878 10.7298 19.7891 10.7407C20.3576 10.7516 20.6747 11.0579 20.6747 11.6376C20.6856 12.8407 20.6856 14.0438 20.6747 15.2469C20.6747 15.7829 20.3686 16.1001 19.8438 16.111C18.6193 16.1329 17.3838 16.1219 16.1593 16.111C15.6236 16.1001 15.3175 15.8048 15.3066 15.2579C15.2956 14.0438 15.2847 12.8298 15.3066 11.6157C15.3175 11.036 15.6346 10.7516 16.2249 10.7516C16.8153 10.7298 17.3948 10.7407 17.9852 10.7407ZM16.5639 11.9876C16.5639 12.961 16.5639 13.9016 16.5639 14.8423C17.5369 14.8423 18.4772 14.8423 19.4283 14.8423C19.4283 13.8688 19.4283 12.9391 19.4283 11.9876C18.4662 11.9876 17.5369 11.9876 16.5639 11.9876Z" fill="white"/>
<path d="M11.655 10.7407C12.2453 10.7407 12.8248 10.7298 13.4152 10.7407C13.9946 10.7516 14.3007 11.036 14.3117 11.6266C14.3226 12.8298 14.3226 14.0329 14.3117 15.236C14.3007 15.8048 14.0056 16.1001 13.448 16.111C12.2344 16.1219 11.0208 16.1219 9.80727 16.111C9.24968 16.1001 8.95449 15.7938 8.95449 15.2251C8.94356 14.0219 8.94356 12.8188 8.95449 11.6157C8.95449 11.0579 9.27155 10.7516 9.8182 10.7407C10.4305 10.7298 11.0427 10.7407 11.655 10.7407ZM10.2118 11.9985C10.2118 12.9719 10.2118 13.9235 10.2118 14.8532C11.1848 14.8532 12.1141 14.8532 13.0653 14.8532C13.0653 13.8907 13.0653 12.9501 13.0653 11.9985C12.1032 11.9985 11.1739 11.9985 10.2118 11.9985Z" fill="white"/>
<path d="M11.6325 37.4829C11.8621 37.4829 12.0917 37.472 12.3212 37.4829C12.6711 37.5048 12.8788 37.7016 12.9007 38.0516C12.9226 38.4016 12.7367 38.6532 12.3978 38.686C11.8839 38.7298 11.3701 38.7298 10.8562 38.686C10.5173 38.6532 10.3314 38.4016 10.3533 38.0516C10.3752 37.7126 10.5829 37.5048 10.9327 37.4938C11.1733 37.4719 11.4029 37.4829 11.6325 37.4829Z" fill="white"/>
</g>
<defs>
<clipPath id="clip0_480_5198">
<rect width="38.8889" height="42" fill="white"/>
</clipPath>
</defs>
</svg>
