<svg width="24" height="26" viewBox="0 0 24 26" fill="none" xmlns="http://www.w3.org/2000/svg">
<g clip-path="url(#clip0_480_5143)">
<path d="M19.4633 13.4925C19.4514 11.4005 20.4365 9.82156 22.4303 8.65871C21.3147 7.12534 19.6295 6.2817 17.4042 6.11639C15.2977 5.95678 12.9953 7.29634 12.1526 7.29634C11.2625 7.29634 9.22125 6.17339 7.61908 6.17339C4.30791 6.22469 0.789062 8.71001 0.789062 13.7662C0.789062 15.2596 1.07389 16.8025 1.64356 18.3948C2.40311 20.4868 5.14461 25.617 8.00479 25.5315C9.50015 25.4973 10.5564 24.5112 12.5027 24.5112C14.3898 24.5112 15.3689 25.5315 17.0363 25.5315C19.9202 25.4916 22.4006 20.8288 23.1246 18.7311C19.2556 16.9811 19.4633 13.6008 19.4633 13.4925V13.4925ZM16.1047 4.1327C17.7247 2.28581 17.5763 0.604229 17.5288 0C16.0987 0.0798038 14.4432 0.934844 13.4997 1.98939C12.4612 3.11805 11.85 4.51461 11.9806 6.08789C13.5293 6.20189 14.9416 5.43806 16.1047 4.1327V4.1327Z" fill="#171717"/>
</g>
<defs>
<clipPath id="clip0_480_5143">
<rect width="23.7872" height="25.617" fill="white" transform="translate(0.0634766)"/>
</clipPath>
</defs>
</svg>
