<svg width="27" height="27" viewBox="0 0 27 27" fill="none" xmlns="http://www.w3.org/2000/svg">
<circle cx="13.5" cy="13.5" r="13.5" fill="#429DFF"/>
<path d="M11.6309 8.43148C11.4669 8.59557 11.3747 8.81809 11.3747 9.05011C11.3747 9.28212 11.4669 9.50464 11.6309 9.66873L15.9622 14L11.6309 18.3312C11.4715 18.4963 11.3833 18.7173 11.3853 18.9467C11.3873 19.1761 11.4793 19.3956 11.6416 19.5578C11.8038 19.72 12.0233 19.8121 12.2527 19.8141C12.4821 19.8161 12.7031 19.7279 12.8682 19.5685L17.818 14.6186C17.9821 14.4545 18.0742 14.232 18.0742 14C18.0742 13.768 17.9821 13.5454 17.818 13.3814L12.8682 8.43148C12.7041 8.26744 12.4816 8.17529 12.2495 8.17529C12.0175 8.17529 11.795 8.26744 11.6309 8.43148V8.43148Z" fill="white"/>
</svg>
