<svg width="32" height="32" viewBox="0 0 32 32" fill="none" xmlns="http://www.w3.org/2000/svg">
<path d="M24.4372 29.9999C23.2172 29.9999 21.5035 29.5587 18.9372 28.1249C15.8166 26.3749 13.4028 24.7593 10.2991 21.6637C7.30659 18.673 5.85035 16.7368 3.81222 13.028C1.50972 8.84053 1.90222 6.64553 2.34097 5.70741C2.86347 4.58616 3.63472 3.91553 4.6316 3.24991C5.19781 2.87893 5.79701 2.56092 6.4216 2.29991C6.4841 2.27303 6.54222 2.24741 6.5941 2.22428C6.90347 2.08491 7.37222 1.87428 7.96597 2.09928C8.36222 2.24803 8.71597 2.55241 9.26972 3.09928C10.4053 4.21928 11.9572 6.71366 12.5297 7.93866C12.9141 8.76428 13.1685 9.30928 13.1691 9.92053C13.1691 10.6362 12.8091 11.188 12.3722 11.7837C12.2903 11.8955 12.2091 12.0024 12.1303 12.1062C11.6547 12.7312 11.5503 12.9118 11.6191 13.2343C11.7585 13.8824 12.7978 15.8118 14.506 17.5162C16.2141 19.2205 18.0878 20.1943 18.7385 20.333C19.0747 20.4049 19.2591 20.2962 19.9041 19.8037C19.9966 19.733 20.0916 19.6599 20.191 19.5868C20.8572 19.0912 21.3835 18.7405 22.0822 18.7405H22.086C22.6941 18.7405 23.2147 19.0043 24.0772 19.4393C25.2022 20.0068 27.7716 21.5387 28.8985 22.6755C29.4466 23.228 29.7522 23.5805 29.9016 23.9762C30.1266 24.5718 29.9147 25.0387 29.7766 25.3512C29.7535 25.403 29.7278 25.4599 29.701 25.523C29.4379 26.1465 29.118 26.7444 28.7453 27.3093C28.081 28.303 27.4078 29.0724 26.2841 29.5955C25.707 29.8685 25.0755 30.0067 24.4372 29.9999Z" fill="#FF8930"/>
</svg>
