<svg width="64" height="64" viewBox="0 0 64 64" fill="none" xmlns="http://www.w3.org/2000/svg">
<path d="M54.8004 24.4C55.0004 24.4 55.0004 24.4 54.8004 24.4L62.0004 6C62.2004 5.6 62.0004 5.2 61.8004 5C61.6004 4.8 61.0004 4.6 60.8004 4.8L42.4004 11.8C42.2004 11.8 42.0004 11.8 42.0004 12L29.2004 24.8C27.8004 24 26.6004 23.4 25.4004 22.8C25.4004 22.2 25.4004 21.6 25.4004 20.8V20.4C25.2004 14 21.0004 9.2 14.8004 8.4C14.0004 8.4 13.2004 8.4 12.4004 8.2C11.2004 8.2 10.2004 8.2 9.20042 8C6.80042 7.4 3.80042 5 4.40042 2.2V2C4.40042 1.6 4.00042 1.2 3.60042 1C3.00042 1 2.60042 1.4 2.40042 1.8C1.60042 6.4 1.80042 11.8 3.40042 16.2C5.80042 23.2 11.6004 27.8 19.6004 28.6C19.6004 28.6 19.6004 28.6 19.8004 28.6C20.0004 28.6 20.2004 28.6 20.4004 28.4C20.8004 29.4 21.4004 30.6 22.2004 31.8L12.6004 41.4L8.00042 46L5.20042 48.8C3.20042 50.8 3.20042 54 5.20042 55.8L10.8004 61.4C11.8004 62.4 13.0004 62.8 14.4004 62.8H14.6004C15.8004 62.8 17.0004 62.2 18.0004 61.4L33.4004 45.8C33.8004 46.2 34.2004 46.6 34.6004 47C39.6004 52 45.0004 56.4 49.4004 59.2C52.6004 61.2 55.2004 62.4 57.0004 62.4C57.8004 62.4 58.6004 62.2 59.2004 61.6C62.8004 58 52.6004 45 44.6004 37C44.2004 36.6 43.8004 36.2 43.4004 35.8L54.8004 24.4C54.8004 24.6 54.8004 24.4 54.8004 24.4ZM59.4004 7.4L58.0004 10.6C57.2004 10.2 56.4004 9.4 56.0004 8.6L59.4004 7.4ZM42.2004 20.2C42.8004 19.6 43.4004 19.4 44.2004 19.4H46.2004C46.8004 19.4 47.2004 19.8 47.2004 20.4V22.4C47.2004 23.2 46.8004 24 46.4004 24.6L39.0004 32C37.4004 30.6 35.8004 29.4 34.4004 28.2L42.2004 20.2ZM41.6004 16.6C41.6004 17.4 41.4004 18.2 40.8004 18.6L32.6004 26.8C32.0004 26.4 31.4004 26 31.0004 25.6L41.6004 15V16.6V16.6ZM19.4004 26.6C12.4004 25.6 7.40042 21.6 5.20042 15.6C4.40042 12.8 4.00042 9.8 4.00042 7C5.20042 8.4 7.00042 9.6 8.80042 10C10.0004 10.2 11.4004 10.2 12.6004 10.2C13.4004 10.2 14.2004 10.2 14.8004 10.2C19.8004 10.8 23.4004 14.8 23.6004 20.2V20.6C23.6004 21.6 23.6004 22.2 23.6004 22.2L19.4004 26.6ZM24.4004 24.4C25.8004 25 27.2004 25.6 28.8004 26.8C29.8004 27.4 30.8004 28 32.0004 29C32.0004 29 32.0004 29 32.2004 29C33.2004 29.8 34.2004 30.6 35.4004 31.4C34.2004 34.2 31.8004 36.6 29.0004 37.8C28.2004 36.8 27.2004 35.6 26.6004 34.6C26.6004 34.6 26.6004 34.6 26.6004 34.4C25.8004 33.2 25.0004 32.2 24.4004 31.2C23.4004 29.6 22.6004 28 22.0004 26.8L24.4004 24.4ZM25.6004 36.8C26.8004 38.2 28.0004 39.8 29.4004 41.4L21.6004 49.2L17.4004 45L25.6004 36.8ZM23.2004 33.6C23.6004 34.2 24.0004 34.6 24.4004 35.2L16.0004 43.6L14.6004 42.2L23.2004 33.6ZM16.4004 60C15.2004 61.2 13.4004 61.2 12.2004 60L6.60042 54.4C6.40042 54 6.00042 53.8 6.00042 53.4C5.80042 53 5.80042 52.8 5.80042 52.4C5.80042 52 5.80042 51.6 6.00042 51.4C6.20042 51 6.40042 50.8 6.60042 50.4L9.20042 47.8L10.0004 47L19.8004 56.8L16.4004 60ZM21.4004 55.2L11.4004 45.2L13.0004 43.6L15.0004 45.6L20.6004 51.2L22.6004 53.2L21.4004 55.2ZM23.0004 50.6L30.6004 43C31.0004 43.4 31.4004 44 32.0004 44.4L24.4004 52L23.0004 50.6ZM57.6004 60.2C57.2004 60.6 55.2004 60.6 50.4004 57.6C46.0004 54.8 41.0004 50.6 36.0004 45.6C35.4004 45 34.8004 44.4 34.2004 43.8C33.2004 42.8 32.4004 41.8 31.6004 40.8C31.2004 40.4 30.8004 40 30.4004 39.4C33.2004 38 35.6004 35.6 37.0004 32.8C37.4004 33.2 37.8004 33.4 38.2004 33.8C39.2004 34.6 40.2004 35.6 41.2004 36.4C41.8004 37 42.4004 37.6 43.0004 38.2C55.0004 50.4 58.8004 59 57.6004 60.2ZM42.0004 34.6C41.6004 34.2 41.0004 33.6 40.6004 33.2L48.0004 25.8C48.0004 25.8 48.0004 25.8 48.2004 25.6C48.8004 25 49.6004 24.8 50.4004 24.8H52.0004L42.0004 34.6ZM50.0004 23C49.8004 23 49.6004 23 49.2004 23C49.2004 22.8 49.2004 22.6 49.2004 22.2V20.2C49.2004 18.6 47.8004 17.2 46.2004 17.2H44.2004C44.0004 17.2 43.8004 17.2 43.4004 17.2C43.4004 17 43.4004 16.8 43.4004 16.4V13.4L53.8004 9.4C54.4004 10.8 55.6004 12 57.0004 12.6L53.0004 23H50.0004Z" fill="#FF8930"/>
</svg>
