<svg width="75" height="73" viewBox="0 0 75 73" fill="none" xmlns="http://www.w3.org/2000/svg">
<path d="M1.29167 0C0.57833 0 7.23333e-05 0.578408 0 1.29167V58.125C7.23333e-05 58.8383 0.57833 59.4167 1.29167 59.4167H12.2708V56.8333H2.58333V12.9167H64.5833V39.3605C64.6071 39.4845 64.6718 39.5929 64.6842 39.7187C65.4026 39.1334 66.287 38.8382 67.1667 38.8206V1.29167C67.1666 0.578408 66.5883 0 65.875 0H1.29167ZM2.58333 2.58333H64.5833V10.3333H2.58333V2.58333ZM6.45833 5.16667C6.11576 5.16667 5.78722 5.30275 5.54499 5.54498C5.30275 5.78722 5.16667 6.11576 5.16667 6.45834C5.16667 6.80091 5.30275 7.12945 5.54499 7.37168C5.78722 7.61392 6.11576 7.75 6.45833 7.75C6.8009 7.75 7.12945 7.61392 7.37168 7.37168C7.61392 7.12945 7.75 6.80091 7.75 6.45834C7.75 6.11576 7.61392 5.78722 7.37168 5.54498C7.12945 5.30275 6.8009 5.16667 6.45833 5.16667ZM11.625 5.16667C11.2824 5.16667 10.9539 5.30275 10.7117 5.54498C10.4694 5.78722 10.3333 6.11576 10.3333 6.45834C10.3333 6.80091 10.4694 7.12945 10.7117 7.37168C10.9539 7.61392 11.2824 7.75 11.625 7.75C11.9676 7.75 12.2961 7.61392 12.5383 7.37168C12.7806 7.12945 12.9167 6.80091 12.9167 6.45834C12.9167 6.11576 12.7806 5.78722 12.5383 5.54498C12.2961 5.30275 11.9676 5.16667 11.625 5.16667ZM16.7917 5.16667C16.4491 5.16667 16.1206 5.30275 15.8783 5.54498C15.6361 5.78722 15.5 6.11576 15.5 6.45834C15.5 6.80091 15.6361 7.12945 15.8783 7.37168C16.1206 7.61392 16.4491 7.75 16.7917 7.75C17.1342 7.75 17.4628 7.61392 17.705 7.37168C17.9472 7.12945 18.0833 6.80091 18.0833 6.45834C18.0833 6.11576 17.9472 5.78722 17.705 5.54498C17.4628 5.30275 17.1342 5.16667 16.7917 5.16667ZM40.0921 18.0783V18.0833C40.0518 18.0814 40.0114 18.0814 39.971 18.0833C39.7611 18.0948 39.5572 18.1574 39.377 18.2655C39.1967 18.3736 39.0456 18.5241 38.9367 18.7039L26.0402 39.3403C25.9424 39.4841 25.8747 39.6462 25.841 39.8168C25.8073 39.9874 25.8085 40.163 25.8443 40.3332C25.8802 40.5033 25.95 40.6645 26.0497 40.807C26.1493 40.9495 26.2767 41.0704 26.4242 41.1625C26.5717 41.2546 26.7362 41.316 26.908 41.343C27.0798 41.3699 27.2553 41.3619 27.4239 41.3195C27.5925 41.277 27.7508 41.2009 27.8893 41.0958C28.0278 40.9907 28.1437 40.8587 28.23 40.7077L41.1265 20.0713C41.2505 19.8798 41.3215 19.6589 41.3325 19.4311C41.3434 19.2032 41.2938 18.9765 41.1887 18.7741C41.0837 18.5716 40.9268 18.4006 40.7342 18.2783C40.5416 18.1561 40.3201 18.0871 40.0921 18.0783ZM21.918 20.6616V20.6667C21.582 20.6773 21.2635 20.8185 21.0299 21.0602L13.3758 28.7194C13.2727 28.8076 13.1842 28.9115 13.1134 29.0272C13.0955 29.0551 13.0787 29.0837 13.063 29.113H13.0579C13.0527 29.1247 13.0477 29.1364 13.0428 29.1483C13.0322 29.1682 13.0221 29.1884 13.0125 29.2088C13.0034 29.2321 12.995 29.2557 12.9873 29.2795C12.9802 29.2978 12.9734 29.3163 12.9671 29.335C12.9617 29.3533 12.9566 29.3719 12.952 29.3905C12.9483 29.4072 12.9449 29.424 12.9419 29.4409C12.94 29.4543 12.9383 29.4678 12.9368 29.4813C12.8953 29.7096 12.916 29.9448 12.9968 30.1624C13.0776 30.3799 13.2155 30.5716 13.396 30.7174L21.0299 38.3564C21.149 38.4804 21.2915 38.5794 21.4493 38.6476C21.607 38.7157 21.7768 38.7518 21.9486 38.7535C22.1205 38.7553 22.2909 38.7227 22.4501 38.6577C22.6092 38.5928 22.7537 38.4967 22.8752 38.3752C22.9967 38.2537 23.0928 38.1092 23.1577 37.9501C23.2227 37.791 23.2553 37.6205 23.2535 37.4486C23.2518 37.2768 23.2157 37.107 23.1476 36.9493C23.0794 36.7915 22.9804 36.649 22.8564 36.5299L16.0348 29.7033L22.8564 22.8817C23.044 22.7004 23.1723 22.4666 23.2245 22.211C23.2766 21.9554 23.2502 21.6901 23.1486 21.4498C23.047 21.2095 22.8751 21.0056 22.6554 20.865C22.4358 20.7243 22.1787 20.6534 21.918 20.6616ZM45.2083 20.6667C44.9511 20.6667 44.6997 20.7436 44.4864 20.8874C44.2731 21.0313 44.1076 21.2355 44.0111 21.474C43.9146 21.7125 43.8915 21.9744 43.9448 22.2261C43.9981 22.4778 44.1254 22.7078 44.3102 22.8867L51.1318 29.7083L44.3102 36.535C44.1863 36.654 44.0873 36.7966 44.0191 36.9543C43.9509 37.1121 43.9149 37.2818 43.9132 37.4537C43.9114 37.6255 43.944 37.796 44.0089 37.9551C44.0739 38.1142 44.1699 38.2587 44.2914 38.3803C44.413 38.5018 44.5575 38.5978 44.7166 38.6628C44.8757 38.7277 45.0462 38.7603 45.218 38.7586C45.3899 38.7568 45.5596 38.7208 45.7174 38.6526C45.8751 38.5844 46.0177 38.4855 46.1367 38.3615L53.7858 30.7074C53.9253 30.5912 54.0388 30.447 54.1188 30.2841C54.1988 30.1212 54.2436 29.9433 54.2503 29.7619C54.257 29.5806 54.2253 29.3998 54.1575 29.2315C54.0896 29.0632 53.987 28.911 53.8564 28.785H53.8514L46.1367 21.0653C46.0167 20.9399 45.8726 20.8399 45.7131 20.7714C45.5536 20.703 45.3819 20.6673 45.2083 20.6667ZM55.3045 38.75C54.962 38.75 54.6334 38.8861 54.3912 39.1284C54.149 39.3706 54.0129 39.6991 54.0129 40.0417V42.3525C53.2119 42.6005 52.4407 42.9144 51.6969 43.3011L50.0723 41.6815C49.83 41.4393 49.5015 41.3033 49.159 41.3033C48.8165 41.3033 48.488 41.4393 48.2458 41.6815L44.2598 45.6624C44.0176 45.9047 43.8816 46.2332 43.8816 46.5757C43.8816 46.9182 44.0176 47.2467 44.2598 47.4889L45.8895 49.1186C45.4999 49.8626 45.1757 50.6327 44.9258 51.4346H42.625C42.2824 51.4346 41.9539 51.5707 41.7117 51.8129C41.4695 52.0552 41.3334 52.3837 41.3333 52.7262V58.3621C41.3334 58.7047 41.4695 59.0332 41.7117 59.2754C41.9539 59.5177 42.2824 59.6538 42.625 59.6538H44.9308C45.1789 60.457 45.4963 61.2292 45.8844 61.9748L44.2598 63.5994C44.0176 63.8417 43.8816 64.1702 43.8816 64.5127C43.8816 64.8552 44.0176 65.1837 44.2598 65.4259L48.2458 69.4069C48.488 69.649 48.8165 69.7851 49.159 69.7851C49.5015 69.7851 49.83 69.649 50.0723 69.4069L51.702 67.7822C52.4435 68.1705 53.2139 68.4863 54.0129 68.7358V71.0417C54.0129 71.3842 54.149 71.7127 54.3912 71.955C54.6334 72.1972 54.962 72.3333 55.3045 72.3333H60.9455C61.288 72.3333 61.6166 72.1972 61.8588 71.955C62.101 71.7127 62.2371 71.3842 62.2371 71.0417V68.7358C63.038 68.4878 63.8094 68.174 64.5531 67.7873L66.1777 69.4069C66.42 69.649 66.7485 69.7851 67.091 69.7851C67.4335 69.7851 67.762 69.649 68.0042 69.4069L71.9902 65.4259C72.2324 65.1837 72.3684 64.8552 72.3684 64.5127C72.3684 64.1702 72.2324 63.8417 71.9902 63.5994L70.3605 61.9697C70.7502 61.2257 71.0742 60.4557 71.3242 59.6538H73.625C73.9676 59.6538 74.2961 59.5177 74.5383 59.2754C74.7805 59.0332 74.9166 58.7047 74.9167 58.3621V52.7262C74.9166 52.3837 74.7805 52.0552 74.5383 51.8129C74.2961 51.5707 73.9676 51.4346 73.625 51.4346H71.3192C71.0712 50.6319 70.7534 49.8589 70.3656 49.1136L71.9902 47.4889C72.2324 47.2467 72.3684 46.9182 72.3684 46.5757C72.3684 46.2332 72.2324 45.9047 71.9902 45.6624L68.0042 41.6815C67.762 41.4393 67.4335 41.3033 67.091 41.3033C66.7485 41.3033 66.42 41.4393 66.1777 41.6815L64.548 43.3061C63.8063 42.9176 63.0364 42.6021 62.2371 42.3525V40.0417C62.2371 39.6991 62.101 39.3706 61.8588 39.1284C61.6166 38.8861 61.288 38.75 60.9455 38.75H55.3045ZM56.5962 41.3333H59.6538V43.1901C59.6533 43.483 59.7525 43.7675 59.9349 43.9967C60.1174 44.2259 60.3723 44.3862 60.6579 44.4515C61.9064 44.7359 63.0951 45.229 64.1797 45.9097C64.4275 46.0649 64.7206 46.1314 65.0112 46.0984C65.3017 46.0654 65.5724 45.9349 65.7791 45.728L67.091 44.4212L69.2505 46.5757L67.9437 47.8825C67.7381 48.0888 67.6082 48.3586 67.5753 48.6481C67.5423 48.9375 67.6081 49.2296 67.762 49.4769C68.4399 50.5637 68.9292 51.759 69.2101 53.0088C69.2744 53.2953 69.4343 53.5514 69.6636 53.7348C69.8929 53.9183 70.1779 54.0181 70.4715 54.0179H72.3333V57.0705H70.4766C70.1836 57.07 69.8992 57.1691 69.67 57.3516C69.4408 57.534 69.2804 57.789 69.2152 58.0745C68.9306 59.3231 68.4379 60.5169 67.757 61.6014C67.6018 61.8492 67.5352 62.1423 67.5682 62.4329C67.6012 62.7234 67.7318 62.9941 67.9386 63.2008L69.2505 64.5127L67.091 66.6671L65.7842 65.3654C65.5778 65.1598 65.308 65.03 65.0186 64.997C64.7292 64.964 64.4371 65.0298 64.1898 65.1837C63.1031 65.8614 61.9075 66.3508 60.6579 66.6318C60.3731 66.6969 60.1188 66.8565 59.9365 67.0847C59.7541 67.3129 59.6545 67.5961 59.6538 67.8882V69.75H56.5962V67.8932C56.5955 67.6011 56.4959 67.3179 56.3135 67.0897C56.1312 66.8616 55.8769 66.7019 55.5921 66.6369C54.3435 66.3524 53.1549 65.8597 52.0703 65.1787C51.8225 65.0235 51.5294 64.957 51.2388 64.9899C50.9483 65.0229 50.6776 65.1535 50.4709 65.3604L49.159 66.6671L46.9995 64.5127L48.3063 63.2059C48.5131 62.9992 48.6437 62.7285 48.6767 62.4379C48.7097 62.1474 48.6432 61.8542 48.488 61.6064C47.8101 60.5196 47.3208 59.3291 47.0399 58.0796C46.9756 57.7931 46.8157 57.537 46.5864 57.3535C46.3571 57.1701 46.0721 57.0703 45.7785 57.0705H43.9167V54.0179H45.7734C46.0664 54.0184 46.3508 53.9192 46.58 53.7368C46.8092 53.5544 46.9696 53.2994 47.0348 53.0138C47.3193 51.7653 47.8122 50.5715 48.493 49.487C48.6482 49.2392 48.7148 48.946 48.6818 48.6555C48.6488 48.365 48.5182 48.0942 48.3114 47.8875L46.9995 46.5757L49.159 44.4212L50.4658 45.723C50.6722 45.9286 50.942 46.0584 51.2314 46.0914C51.5208 46.1244 51.8129 46.0586 52.0602 45.9046C53.147 45.2268 54.3425 44.7326 55.5921 44.4515C55.876 44.3866 56.1297 44.2277 56.312 44.0006C56.4942 43.7735 56.5944 43.4914 56.5962 43.2002V41.3333ZM24.8646 45.8037C24.522 45.8037 24.1935 45.9398 23.9513 46.1821C23.709 46.4243 23.573 46.7528 23.5729 47.0954V48.4173C23.2004 48.5465 22.8379 48.6906 22.4831 48.8613L21.5496 47.9329C21.3074 47.6908 20.9789 47.5548 20.6364 47.5548C20.2939 47.5548 19.9654 47.6908 19.7231 47.9329L16.9834 50.6727C16.7413 50.9149 16.6052 51.2434 16.6052 51.5859C16.6052 51.9284 16.7413 52.2569 16.9834 52.4992L17.9168 53.4326C17.7444 53.7881 17.5919 54.1492 17.4627 54.5225H16.1458C15.8033 54.5225 15.4748 54.6586 15.2325 54.9008C14.9903 55.143 14.8542 55.4716 14.8542 55.8141V59.6891C14.8542 60.0317 14.9903 60.3602 15.2325 60.6024C15.4748 60.8447 15.8033 60.9808 16.1458 60.9808H17.4678C17.5956 61.3533 17.741 61.7157 17.9118 62.0706L16.9834 63.0041C16.7413 63.2463 16.6052 63.5748 16.6052 63.9173C16.6052 64.2598 16.7413 64.5883 16.9834 64.8306L19.7231 67.5703C19.9654 67.8125 20.2939 67.9485 20.6364 67.9485C20.9789 67.9485 21.3074 67.8125 21.5496 67.5703L22.4831 66.6369C22.8381 66.81 23.2001 66.9568 23.5729 67.0859V68.4079C23.573 68.7504 23.709 69.079 23.9513 69.3212C24.1935 69.5634 24.522 69.6995 24.8646 69.6995H28.7396C29.0821 69.6995 29.4107 69.5634 29.6529 69.3212C29.8951 69.079 30.0312 68.7504 30.0312 68.4079V67.0859C30.4041 66.9568 30.7659 66.8079 31.1211 66.6369L32.0545 67.5703C32.2968 67.8125 32.6253 67.9485 32.9678 67.9485C33.3103 67.9485 33.6388 67.8125 33.881 67.5703L36.6208 64.8306C36.7414 64.7105 36.8372 64.5678 36.9025 64.4107C36.9678 64.2535 37.0015 64.085 37.0015 63.9148C37.0015 63.7446 36.9678 63.5761 36.9025 63.4189C36.8372 63.2618 36.7414 63.1191 36.6208 62.999L35.6924 62.0706C35.8644 61.7157 36.0124 61.3536 36.1414 60.9808H37.4583C37.8009 60.9808 38.1294 60.8447 38.3716 60.6024C38.6139 60.3602 38.75 60.0317 38.75 59.6891V55.8141C38.75 55.4716 38.6139 55.143 38.3716 54.9008C38.1294 54.6586 37.8009 54.5225 37.4583 54.5225H36.1364C36.0083 54.1494 35.8585 53.7881 35.6873 53.4326L36.6208 52.4992C36.8629 52.2569 36.9989 51.9284 36.9989 51.5859C36.9989 51.2434 36.8629 50.9149 36.6208 50.6727L33.881 47.9329C33.6388 47.6908 33.3103 47.5548 32.9678 47.5548C32.6253 47.5548 32.2968 47.6908 32.0545 47.9329L31.1211 48.8664C30.7656 48.6933 30.4046 48.5414 30.0312 48.4123V47.0954C30.0312 46.7528 29.8951 46.4243 29.6529 46.1821C29.4107 45.9398 29.0821 45.8037 28.7396 45.8037H24.8646ZM26.1562 48.387H27.4479V49.2599C27.4486 49.552 27.5482 49.8352 27.7306 50.0634C27.9129 50.2916 28.1672 50.4512 28.452 50.5163C29.2661 50.7023 30.0456 51.0258 30.7528 51.4699C31.0006 51.6251 31.2937 51.6916 31.5842 51.6586C31.8748 51.6257 32.1455 51.4951 32.3522 51.2882L32.9678 50.6727L33.881 51.5859L33.2655 52.1964C33.0586 52.4031 32.928 52.6739 32.8951 52.9644C32.8621 53.255 32.9286 53.5481 33.0838 53.7959C33.5258 54.5045 33.8492 55.2819 34.0324 56.0967C34.0965 56.3824 34.2557 56.6378 34.4839 56.8211C34.7122 57.0045 34.996 57.1049 35.2887 57.1058H36.1667V58.3975H35.2938C35.0008 58.397 34.7164 58.4961 34.4872 58.6786C34.258 58.861 34.0976 59.1159 34.0324 59.4015C33.8468 60.2155 33.5278 60.9902 33.0838 61.6973C32.9273 61.9456 32.86 62.2398 32.8931 62.5314C32.9261 62.823 33.0574 63.0947 33.2655 63.3018L33.881 63.9173L32.9678 64.8255L32.3573 64.215C32.1506 64.0082 31.8798 63.8776 31.5893 63.8446C31.2988 63.8116 31.0056 63.8781 30.7578 64.0334C30.0492 64.4754 29.2719 64.7937 28.457 64.9769C28.1705 65.0411 27.9144 65.2011 27.731 65.4304C27.5476 65.6597 27.4477 65.9446 27.4479 66.2383V67.1162H26.1562V66.2433C26.1567 65.9504 26.0576 65.666 25.8751 65.4368C25.6927 65.2076 25.4378 65.0472 25.1522 64.9819C24.338 64.7959 23.5587 64.4774 22.8514 64.0334C22.6041 63.8775 22.3113 63.8101 22.0208 63.8422C21.7303 63.8743 21.4593 64.0039 21.252 64.21L20.6364 64.8255L19.7231 63.9123L20.3387 63.2967C20.5443 63.0904 20.6741 62.8206 20.7071 62.5311C20.7401 62.2417 20.6743 61.9496 20.5203 61.7023C20.0784 60.994 19.755 60.2163 19.5718 59.4015C19.5077 59.1158 19.3485 58.8604 19.1202 58.6771C18.892 58.4937 18.6082 58.3934 18.3154 58.3924H17.4375V57.1007H18.3104C18.6033 57.1012 18.8877 57.0021 19.1169 56.8196C19.3461 56.6372 19.5065 56.3823 19.5718 56.0967C19.7573 55.2827 20.0764 54.5032 20.5203 53.7959C20.6756 53.5481 20.7421 53.255 20.7091 52.9644C20.6761 52.6739 20.5455 52.4031 20.3387 52.1964L19.7231 51.5809L20.6364 50.6676L21.2469 51.2782C21.4536 51.485 21.7243 51.6156 22.0149 51.6486C22.3054 51.6816 22.5985 51.615 22.8464 51.4598C23.555 51.0178 24.3323 50.6994 25.1471 50.5163C25.4328 50.4522 25.6883 50.293 25.8716 50.0647C26.0549 49.8365 26.1553 49.5527 26.1562 49.2599V48.387ZM58.125 49.0884C54.5803 49.0884 51.6667 51.9963 51.6667 55.5417C51.6667 59.0873 54.5804 62 58.125 62C61.67 62 64.5833 59.0865 64.5833 55.5417C64.5833 51.9973 61.67 49.0884 58.125 49.0884ZM58.125 51.6717C60.2591 51.6717 62 53.4081 62 55.5417C62 57.6758 60.2592 59.4167 58.125 59.4167C55.9914 59.4167 54.25 57.6747 54.25 55.5417C54.25 53.4091 55.9915 51.6717 58.125 51.6717ZM26.8021 53.4982C24.4696 53.4982 22.5487 55.4184 22.5487 57.7516C22.5487 60.0849 24.4696 62 26.8021 62C29.1347 62 31.0555 60.0841 31.0555 57.7516C31.0555 55.4189 29.1347 53.4982 26.8021 53.4982ZM26.8021 56.0815C27.7239 56.0815 28.4722 56.8299 28.4722 57.7516C28.4722 58.6731 27.7239 59.4167 26.8021 59.4167C25.8806 59.4167 25.132 58.6723 25.132 57.7516C25.132 56.8304 25.8806 56.0815 26.8021 56.0815Z" fill="white"/>
</svg>
