<svg width="42" height="42" viewBox="0 0 42 42" fill="none" xmlns="http://www.w3.org/2000/svg">
<g clip-path="url(#clip0_480_5179)">
<path d="M15.9709 5.30253C19.3345 4.25849 22.6899 4.25849 26.07 5.30253C26.9829 3.09114 28.5207 1.47986 30.7412 0.559136C32.312 -0.0903064 33.965 -0.13141 35.5769 0.197421C38.9077 0.879746 41.4736 3.60905 41.9176 6.97135C42.3782 10.4734 40.9883 14.0905 36.7119 15.9484C37.7481 19.3025 37.7481 22.6648 36.7036 26.0189C41.087 27.8768 42.4687 31.8063 41.8601 35.3577C41.2926 38.6625 38.5047 41.3013 35.0999 41.885C32.0077 42.4112 27.797 40.9725 26.0453 36.6566C22.6981 37.6842 19.351 37.6924 15.9709 36.6484C15.9051 36.7799 15.8393 36.9115 15.7818 37.0512C13.5859 42.1316 6.96562 43.6114 2.82895 39.9367C2.67269 39.7969 2.50821 39.5668 2.49999 39.3695C2.49176 39.1968 2.64802 38.9091 2.79605 38.8598C3.00165 38.7858 3.31416 38.8269 3.50332 38.942C4.02143 39.2462 4.4573 39.6819 4.99186 39.9449C7.68934 41.2767 10.3046 41.0629 12.632 39.1722C14.9429 37.306 15.7571 34.7905 14.9758 31.9297C14.1945 29.0524 12.2043 27.3014 9.26012 26.8492C6.60377 26.4382 4.35861 27.3589 2.71381 29.4881C1.07724 31.6008 0.814067 33.9602 1.77628 36.4511C1.80917 36.5415 1.85852 36.6237 1.89141 36.7142C2.04767 37.1005 1.94076 37.4294 1.6118 37.5856C1.29106 37.7335 0.953875 37.602 0.772947 37.2238C0.312403 36.2373 0.0492345 35.1933 0.0163384 34.0999C-0.0905736 30.5814 1.85029 27.5562 5.09877 26.1504C5.17279 26.1176 5.24681 26.0765 5.33727 26.0354C4.2846 22.6648 4.2846 19.3107 5.33727 15.9156C3.13324 15.0113 1.52133 13.4904 0.608467 11.279C-0.0412296 9.70887 -0.16459 8.07293 0.205491 6.41234C0.945651 3.09114 3.64313 0.493369 6.99852 0.0823301C11.1434 -0.410917 14.3755 1.56207 15.9709 5.30253ZM35.5194 16.2855C32.5916 16.7787 30.0504 16.0964 27.978 14.0166C25.8973 11.9285 25.2147 9.37182 25.7164 6.4781C22.5583 5.49983 19.4497 5.49161 16.3245 6.48632C16.341 6.65074 16.3492 6.76583 16.3657 6.88914C16.5713 8.10582 16.489 9.31427 16.1518 10.4981C15.864 11.5092 15.3952 12.43 14.7455 13.252C14.4248 13.6631 14.0794 13.7535 13.7669 13.5233C13.4544 13.2931 13.4544 12.915 13.7587 12.5122C13.7751 12.4875 13.7915 12.4711 13.808 12.4464C15.0251 10.7858 15.4857 8.94434 15.1156 6.9138C14.4166 3.04181 10.6171 0.542694 6.71068 1.37299C2.92764 2.18685 0.493331 6.10817 1.44732 9.88973C2.55756 14.3207 7.38505 16.4828 11.5135 14.4112C11.9905 14.1728 12.3195 14.2303 12.5086 14.5756C12.6978 14.9291 12.5579 15.2497 12.0892 15.4881C10.6747 16.2197 9.16966 16.5486 7.5742 16.4088C7.22879 16.3759 6.87516 16.3348 6.5133 16.2937C5.53465 19.4423 5.53465 22.5497 6.52153 25.6901C9.4246 25.1968 11.9658 25.8709 14.0465 27.9426C16.1354 30.0224 16.8098 32.5791 16.3245 35.4728C19.4826 36.4429 22.5912 36.4511 25.7164 35.4646C25.2229 32.5462 25.9137 30.006 27.9944 27.9344C30.0751 25.8627 32.6163 25.1886 35.5194 25.6819C36.498 22.5497 36.498 19.4423 35.5194 16.2855ZM40.7992 8.22913C40.8074 4.36536 37.6576 1.22502 33.7841 1.2168C29.9435 1.20858 26.7855 4.35714 26.7855 8.20447C26.7855 12.0682 29.9353 15.2168 33.8006 15.225C37.6412 15.225 40.791 12.0765 40.7992 8.22913ZM33.7677 40.767C37.6165 40.7752 40.7745 37.6431 40.791 33.804C40.8074 29.9402 37.6658 26.7752 33.8006 26.7588C29.9517 26.7423 26.7773 29.9073 26.7773 33.7711C26.7773 37.6102 29.927 40.7588 33.7677 40.767Z" fill="white"/>
<path d="M6.00334 33.7133C6.00334 32.9488 6.00334 32.1843 6.00334 31.4197C6.01157 30.5401 6.64481 30.1702 7.41787 30.6141C8.71726 31.3622 10.0167 32.1103 11.3161 32.8666C12.0809 33.3105 12.0891 34.0504 11.3325 34.4943C10.0249 35.2588 8.70904 36.0151 7.3932 36.7632C6.65304 37.1907 6.00334 36.8126 5.99512 35.9658C5.99512 35.2095 6.00334 34.4614 6.00334 33.7133ZM10.2716 33.6804C9.22715 33.0803 8.25672 32.5213 7.25339 31.9376C7.25339 33.1296 7.25339 34.2395 7.25339 35.4232C8.26494 34.8396 9.23538 34.2806 10.2716 33.6804Z" fill="white"/>
<path d="M24.845 23.5279C24.845 21.3001 24.845 19.1545 24.845 16.9595C24.0473 17.3048 23.2907 17.6665 22.5094 17.9625C21.7364 18.2584 20.9386 18.4886 20.1245 18.7516C20.1245 19.7217 20.1245 20.7 20.1245 21.7029C20.5932 21.8427 21.062 21.9742 21.5308 22.1222C21.9995 22.2701 22.1887 22.5497 22.0818 22.9278C21.9831 23.2895 21.6377 23.4293 21.1854 23.2977C21.1442 23.2895 21.1031 23.2813 21.0702 23.2649C20.0176 22.9442 19.5735 22.9196 18.381 23.1087C18.4221 24.0212 18.4714 24.9501 18.5208 25.8709C18.5372 26.2654 18.5701 26.66 18.5701 27.0546C18.5784 27.4739 18.3399 27.7287 17.9698 27.7287C17.6079 27.7287 17.3694 27.4903 17.3448 27.0629C17.279 25.8873 17.2214 24.7117 17.1638 23.5444C17.1556 23.3964 17.1474 23.2484 17.1309 23.0758C16.9171 23.0676 16.728 23.0593 16.5388 23.0511C15.848 23.01 15.3545 22.525 15.3463 21.8344C15.3299 20.7411 15.3299 19.6477 15.3463 18.5543C15.3545 17.8802 15.8727 17.3788 16.5552 17.3623C17.3036 17.3541 18.0685 17.2719 18.8086 17.3788C20.1656 17.5761 21.3498 17.1075 22.5423 16.6142C23.2331 16.3265 23.8993 15.973 24.5654 15.6278C24.697 15.5538 24.8204 15.3647 24.8533 15.2085C24.9273 14.8303 25.1576 14.5673 25.4865 14.5919C25.8566 14.6166 26.0458 14.8468 26.0869 15.2003C26.0951 15.2989 26.0951 15.3893 26.0951 15.488C26.0951 18.6283 26.0951 21.7769 26.0951 24.9172C26.0951 25.0652 26.0951 25.2214 26.0622 25.3612C25.98 25.6818 25.7497 25.838 25.4207 25.8133C25.1082 25.7886 24.8862 25.5996 24.8862 25.2954C24.8862 24.9666 24.7217 24.8433 24.475 24.7199C24.1542 24.5637 23.8417 24.3993 23.5292 24.2267C23.1838 24.0294 23.0687 23.717 23.2249 23.4046C23.3812 23.0758 23.7184 22.9689 24.0967 23.1415C24.3269 23.2566 24.549 23.38 24.845 23.5279ZM18.8662 18.6366C18.0931 18.6366 17.353 18.6366 16.6046 18.6366C16.6046 19.7053 16.6046 20.7493 16.6046 21.8098C17.3694 21.8098 18.1096 21.8098 18.8662 21.8098C18.8662 20.7411 18.8662 19.7135 18.8662 18.6366Z" fill="white"/>
<path d="M5.13154 10.2266C4.51474 9.71687 4.06242 9.10031 3.84859 8.32755C3.56898 7.3164 3.65122 6.32168 4.01308 5.35163C4.24335 4.75151 4.76968 4.6693 5.17266 5.17899C5.73189 5.87776 6.43093 6.33812 7.3438 6.4861C7.38492 6.34634 7.42604 6.21481 7.46716 6.0915C7.89481 4.70219 9.46559 4.04452 10.7403 4.75973C11.0282 4.91593 11.2338 4.92415 11.4805 4.74329C11.5792 4.6693 11.6861 4.57065 11.793 4.56243C12.0068 4.54599 12.2946 4.50489 12.4345 4.61998C12.5825 4.74329 12.6894 5.05568 12.6483 5.25298C12.5743 5.60647 12.4262 5.96819 12.2289 6.26414C12.0068 6.59297 11.9492 6.9218 11.9246 7.29173C11.7848 9.11675 11.0364 10.6212 9.44914 11.583C7.52473 12.7586 5.55096 12.6188 3.60187 11.6076C3.33048 11.4679 3.22357 11.213 3.28936 10.9171C3.35515 10.6047 3.5772 10.4732 3.88149 10.4485C4.28447 10.4156 4.69567 10.3745 5.09864 10.3334C5.10687 10.3005 5.12332 10.2677 5.13154 10.2266ZM6.36514 11.1308C8.5774 11.3035 10.4689 9.66754 10.6745 7.47259C10.7156 7.06977 10.8061 6.60119 10.6498 6.26414C10.4854 5.91886 10.0659 5.66402 9.58895 5.70512C9.15308 5.74623 8.84057 5.95997 8.68431 6.37101C8.61852 6.54364 8.61852 6.74094 8.61029 6.93002C8.59385 7.57124 8.38002 7.78498 7.73033 7.76032C6.92437 7.72744 6.16776 7.50547 5.48517 7.07799C5.32069 6.97112 5.14799 6.86425 4.95061 6.74094C4.82725 7.81786 5.13976 8.67283 5.97861 9.29761C6.22533 9.48668 6.5214 9.61 6.78456 9.77441C7.17932 10.0293 7.20399 10.5143 6.83391 10.802C6.71877 10.9171 6.57896 10.9911 6.36514 11.1308Z" fill="white"/>
<path d="M33.8911 7.4645C34.2036 7.4645 34.475 7.45628 34.7464 7.4645C35.1576 7.48094 35.4208 7.72757 35.4208 8.08106C35.4208 8.44277 35.1658 8.68118 34.7464 8.6894C34.475 8.69762 34.2036 8.6894 33.8829 8.6894C33.8747 8.85381 33.8582 9.00179 33.8582 9.14976C33.8582 10.1856 33.8665 11.2296 33.85 12.2654C33.8418 12.7669 33.5375 13.0464 33.1098 12.956C32.7069 12.8656 32.6246 12.5696 32.6246 12.2079C32.6246 11.1967 32.6246 10.1856 32.6246 9.17442C32.6246 9.02645 32.6246 8.87848 32.6246 8.6894C32.3039 8.6894 32.0325 8.69762 31.7611 8.6894C31.3993 8.67296 31.1525 8.43455 31.1443 8.10572C31.1279 7.76867 31.3828 7.49738 31.7611 7.47272C32.0325 7.45628 32.3039 7.47272 32.6329 7.47272C32.6329 6.97125 32.6493 6.51911 32.6329 6.05875C32.5588 4.29128 33.776 3.20613 35.8155 3.45276C36.1527 3.49386 36.3419 3.73226 36.3501 4.07754C36.3583 4.40637 36.0952 4.64477 35.7333 4.66121C35.4866 4.67765 35.2399 4.66121 34.9931 4.66943C34.327 4.69409 33.9076 5.08047 33.8747 5.72991C33.85 6.22316 33.8665 6.71641 33.8665 7.20144C33.8665 7.27542 33.8829 7.34941 33.8911 7.4645Z" fill="white"/>
<path d="M33.7926 29.406C34.6233 29.406 35.4621 29.3978 36.2927 29.406C37.477 29.4142 38.1514 30.0883 38.1596 31.2639C38.1678 32.9327 38.1678 34.5933 38.1596 36.2621C38.1596 37.4295 37.4605 38.12 36.2927 38.1283C34.6233 38.1283 32.962 38.1283 31.2925 38.1283C30.1247 38.1283 29.4339 37.4377 29.4339 36.2621C29.4257 34.5933 29.4257 32.9327 29.4339 31.2639C29.4421 30.0883 30.1083 29.4224 31.3008 29.406C31.3254 29.406 31.3583 29.406 31.383 29.406C32.1807 29.406 32.9867 29.406 33.7926 29.406ZM36.926 33.7712C36.926 32.9409 36.9342 32.1024 36.926 31.2721C36.926 30.7953 36.7862 30.6473 36.3174 30.6473C34.6315 30.6391 32.9538 30.6391 31.2679 30.6473C30.7909 30.6473 30.6593 30.7871 30.6511 31.2639C30.6428 32.9327 30.6428 34.6015 30.6511 36.2704C30.6511 36.7554 30.8073 36.9034 31.2925 36.9034C32.9456 36.9034 34.6068 36.9034 36.2598 36.9034C36.7697 36.9034 36.9095 36.7554 36.9177 36.2375C36.926 35.4072 36.926 34.5933 36.926 33.7712Z" fill="white"/>
<path d="M33.8005 35.6124C32.7643 35.6206 31.9419 34.8067 31.9337 33.7873C31.9254 32.7433 32.7561 31.9048 33.7923 31.9048C34.8121 31.9048 35.6427 32.7351 35.6427 33.7627C35.6427 34.7903 34.8285 35.6041 33.8005 35.6124ZM33.8087 34.3792C34.1624 34.371 34.4173 34.0915 34.4091 33.738C34.4009 33.3927 34.113 33.1215 33.7676 33.1297C33.4222 33.1379 33.159 33.4256 33.1673 33.7709C33.1755 34.1326 33.4551 34.3875 33.8087 34.3792Z" fill="white"/>
</g>
<defs>
<clipPath id="clip0_480_5179">
<rect width="42" height="42" fill="white"/>
</clipPath>
</defs>
</svg>
