<svg width="64" height="64" viewBox="0 0 64 64" fill="none" xmlns="http://www.w3.org/2000/svg">
<g clip-path="url(#clip0_623_25)">
<path d="M7.4375 46.8323H11.3125C11.793 46.8317 12.2537 46.6406 12.5935 46.3008C12.9333 45.961 13.1244 45.5003 13.125 45.0198V41.1448C13.1244 40.6642 12.9333 40.2035 12.5935 39.8638C12.2537 39.524 11.793 39.3328 11.3125 39.3323H7.4375C6.95696 39.3328 6.49627 39.524 6.15648 39.8638C5.81669 40.2035 5.62555 40.6642 5.625 41.1448V45.0198C5.62555 45.5003 5.81669 45.961 6.15648 46.3008C6.49627 46.6406 6.95696 46.8317 7.4375 46.8323V46.8323ZM7.5 41.2073H11.25V44.9573H7.5V41.2073ZM35.2603 40.3381C37.7462 40.3365 40.1547 39.4729 42.0754 37.8945C43.996 36.3162 45.31 34.1208 45.7935 31.6822C46.277 29.2437 45.9 26.713 44.7268 24.5213C43.5536 22.3296 41.6567 20.6124 39.3595 19.6624C37.0622 18.7124 34.5065 18.5883 32.128 19.3112C29.7495 20.0342 27.6952 21.5595 26.3151 23.6272C24.9351 25.695 24.3147 28.1772 24.5596 30.6511C24.8045 33.125 25.8996 35.4375 27.6583 37.1945C28.6559 38.1933 29.8411 38.9852 31.1456 39.5247C32.4502 40.0642 33.8485 40.3407 35.2603 40.3381V40.3381ZM35.1548 29.0198H26.4094C26.4928 27.7034 26.869 26.4223 27.5104 25.2698H35.1548C35.4034 25.2698 35.6419 25.171 35.8177 24.9952C35.9935 24.8194 36.0923 24.5809 36.0923 24.3323C36.0923 24.0836 35.9935 23.8452 35.8177 23.6694C35.6419 23.4935 35.4034 23.3948 35.1548 23.3948H28.9098C28.935 23.3689 28.9586 23.342 28.9843 23.3164C30.6492 21.6539 32.9061 20.7204 35.259 20.7213C37.6119 20.7221 39.8681 21.6572 41.5319 23.3209C43.1956 24.9846 44.1307 27.2409 44.1315 29.5938C44.1323 31.9467 43.1989 34.2036 41.5364 35.8685H41.5363C40.3742 37.0319 38.9116 37.8493 37.3119 38.2296C35.7122 38.6099 34.0383 38.5381 32.477 38.0222C30.9157 37.5063 29.5285 36.5666 28.4704 35.308C27.4122 34.0494 26.7247 32.5215 26.4846 30.8948H35.1548C35.4034 30.8948 35.6419 30.796 35.8177 30.6202C35.9935 30.4444 36.0923 30.2059 36.0923 29.9573C36.0923 29.7086 35.9935 29.4702 35.8177 29.2944C35.6419 29.1185 35.4034 29.0198 35.1548 29.0198V29.0198ZM14.3284 5.82312C14.143 5.82312 13.9617 5.8781 13.8075 5.98112C13.6534 6.08413 13.5332 6.23055 13.4622 6.40186C13.3913 6.57316 13.3727 6.76166 13.4089 6.94352C13.4451 7.12538 13.5344 7.29242 13.6655 7.42353C13.7966 7.55465 13.9636 7.64393 14.1455 7.68011C14.3273 7.71628 14.5158 7.69772 14.6871 7.62676C14.8584 7.5558 15.0049 7.43564 15.1079 7.28147C15.2109 7.1273 15.2659 6.94604 15.2659 6.76062C15.2659 6.51198 15.1671 6.27353 14.9913 6.09771C14.8155 5.9219 14.577 5.82312 14.3284 5.82312V5.82312ZM17.1409 31.8323C17.1409 31.9554 17.1651 32.0773 17.2122 32.1911C17.2593 32.3048 17.3284 32.4082 17.4154 32.4952C17.5025 32.5823 17.6059 32.6513 17.7196 32.6984C17.8333 32.7455 17.9553 32.7698 18.0784 32.7698H21.1466C21.66 35.0418 22.7141 37.1563 24.2192 38.934C25.7243 40.7117 27.6361 42.1 29.7923 42.9812C31.9485 43.8623 34.2855 44.2102 36.6049 43.9954C38.9242 43.7806 41.1575 43.0094 43.1152 41.7473L44.4537 43.0858C44.2289 43.3452 44.1107 43.6801 44.1227 44.0231C44.1347 44.3662 44.276 44.692 44.5183 44.9351L52.9054 53.322C53.3048 53.7222 53.7791 54.0396 54.3013 54.2564C54.8234 54.4731 55.3831 54.5848 55.9485 54.585C56.5138 54.5853 57.0737 54.4741 57.596 54.2579C58.1184 54.0417 58.593 53.7246 58.9927 53.3249C59.3925 52.9251 59.7095 52.4505 59.9258 51.9282C60.142 51.4058 60.2531 50.846 60.2529 50.2806C60.2526 49.7153 60.1409 49.1555 59.9242 48.6334C59.7075 48.1112 59.39 47.6369 58.9899 47.2375L50.6028 38.8505C50.3597 38.6082 50.0339 38.4669 49.691 38.455C49.348 38.443 49.0132 38.5612 48.7537 38.7858L47.4152 37.4473C49.3546 34.446 50.1151 30.8333 49.5501 27.3048C48.9851 23.7764 47.1346 20.5817 44.355 18.336C41.5755 16.0903 38.0633 14.9524 34.4949 15.1414C30.9265 15.3304 27.5542 16.8329 25.0273 19.3596C24.9333 19.4536 24.8409 19.5487 24.7502 19.6448H18.0784C17.8297 19.6448 17.5913 19.7435 17.4155 19.9194C17.2396 20.0952 17.1409 20.3336 17.1409 20.5823C17.1409 20.8309 17.2396 21.0694 17.4155 21.2452C17.5913 21.421 17.8297 21.5198 18.0784 21.5198H23.249C21.3996 24.2778 20.5542 27.5877 20.8546 30.8948H18.0784C17.9553 30.8948 17.8333 30.919 17.7196 30.9661C17.6059 31.0132 17.5025 31.0823 17.4154 31.1693C17.3284 31.2564 17.2593 31.3598 17.2122 31.4735C17.1651 31.5872 17.1409 31.7092 17.1409 31.8323V31.8323ZM49.412 40.7724L49.4132 40.7712L49.4144 40.77L49.6425 40.5419L57.6639 48.5635C58.1185 49.019 58.3738 49.6363 58.3738 50.2799C58.3738 50.9234 58.1185 51.5407 57.6639 51.9962V51.9963C57.4386 52.2217 57.171 52.4006 56.8765 52.5225C56.582 52.6445 56.2664 52.7073 55.9476 52.7073C55.6289 52.7073 55.3132 52.6445 55.0187 52.5225C54.7243 52.4005 54.4567 52.2216 54.2313 51.9962L46.2097 43.9746L49.412 40.7724ZM47.4243 40.1083L45.776 41.7566L44.6357 40.6163C44.9294 40.3661 45.2153 40.1025 45.4932 39.8254C45.7706 39.548 46.0342 39.2622 46.284 38.968L47.4243 40.1083ZM26.3531 20.6855C28.1148 18.9239 30.3593 17.7242 32.8027 17.2381C35.2462 16.7521 37.7789 17.0015 40.0806 17.9549C42.3823 18.9083 44.3496 20.5228 45.7338 22.5942C47.1179 24.6657 47.8567 27.1011 47.8567 29.5924C47.8567 32.0838 47.118 34.5192 45.7339 36.5907C44.3498 38.6622 42.3825 40.2767 40.0808 41.2301C37.7791 42.1835 35.2464 42.433 32.8029 41.947C30.3594 41.4609 28.1149 40.2613 26.3533 38.4996C25.1789 37.3326 24.2469 35.9448 23.6109 34.4162C22.9749 32.8876 22.6475 31.2483 22.6475 29.5926C22.6475 27.937 22.9749 26.2977 23.6108 24.769C24.2468 23.2404 25.1788 21.8526 26.3531 20.6855V20.6855ZM59.3125 -0.0427246H4.6875C3.44473 -0.0413264 2.25326 0.452983 1.37448 1.33176C0.495707 2.21053 0.00139816 3.402 0 4.64478L0 59.2698C0.00139849 60.5125 0.495708 61.704 1.37448 62.5828C2.25326 63.4616 3.44473 63.9559 4.6875 63.9573H59.3125C60.5553 63.9559 61.7467 63.4616 62.6255 62.5828C63.5043 61.704 63.9986 60.5125 64 59.2698V4.64478C63.9986 3.402 63.5043 2.21053 62.6255 1.33176C61.7467 0.452983 60.5553 -0.0413264 59.3125 -0.0427246V-0.0427246ZM62.125 59.2698C62.1241 60.0154 61.8276 60.7303 61.3003 61.2576C60.773 61.7848 60.0582 62.0814 59.3125 62.0823H4.6875C3.94184 62.0814 3.22697 61.7848 2.69971 61.2576C2.17245 60.7303 1.87586 60.0154 1.875 59.2698V13.0823H62.125V59.2698ZM62.125 11.2073H1.875V4.64478C1.87586 3.89912 2.17245 3.18424 2.69971 2.65698C3.22697 2.12972 3.94184 1.83313 4.6875 1.83228H59.3125C60.0582 1.83313 60.773 2.12972 61.3003 2.65698C61.8276 3.18424 62.1241 3.89912 62.125 4.64478V11.2073ZM10.5784 5.82312C10.3929 5.82312 10.2117 5.8781 10.0575 5.98112C9.90335 6.08413 9.78319 6.23055 9.71223 6.40186C9.64127 6.57316 9.62271 6.76166 9.65888 6.94352C9.69506 7.12538 9.78434 7.29242 9.91546 7.42353C10.0466 7.55465 10.2136 7.64393 10.3955 7.68011C10.5773 7.71628 10.7658 7.69772 10.9371 7.62676C11.1084 7.5558 11.2549 7.43564 11.3579 7.28147C11.4609 7.1273 11.5159 6.94604 11.5159 6.76062C11.5159 6.51198 11.4171 6.27353 11.2413 6.09771C11.0655 5.9219 10.827 5.82312 10.5784 5.82312ZM7.4375 35.5823H11.3125C11.793 35.5817 12.2537 35.3906 12.5935 35.0508C12.9333 34.711 13.1244 34.2503 13.125 33.7698V29.8948C13.1244 29.4142 12.9333 28.9535 12.5935 28.6138C12.2537 28.274 11.793 28.0828 11.3125 28.0823H7.4375C6.95696 28.0828 6.49627 28.274 6.15648 28.6138C5.81669 28.9535 5.62555 29.4142 5.625 29.8948V33.7698C5.62555 34.2503 5.81669 34.711 6.15648 35.0508C6.49627 35.3906 6.95696 35.5817 7.4375 35.5823V35.5823ZM7.5 29.9573H11.25V33.7073H7.5V29.9573ZM7.4375 58.0823H11.3125C11.793 58.0817 12.2537 57.8906 12.5935 57.5508C12.9333 57.211 13.1244 56.7503 13.125 56.2698V52.3948C13.1244 51.9142 12.9333 51.4535 12.5935 51.1138C12.2537 50.774 11.793 50.5828 11.3125 50.5823H7.4375C6.95696 50.5828 6.49627 50.774 6.15648 51.1138C5.81669 51.4535 5.62555 51.9142 5.625 52.3948V56.2698C5.62555 56.7503 5.81669 57.211 6.15648 57.5508C6.49627 57.8906 6.95696 58.0817 7.4375 58.0823V58.0823ZM7.5 52.4573H11.25V56.2073H7.5V52.4573ZM7.4375 24.3323H11.3125C11.793 24.3317 12.2537 24.1406 12.5935 23.8008C12.9333 23.461 13.1244 23.0003 13.125 22.5198V18.6448C13.1244 18.1642 12.9333 17.7035 12.5935 17.3638C12.2537 17.024 11.793 16.8328 11.3125 16.8323H7.4375C6.95696 16.8328 6.49627 17.024 6.15648 17.3638C5.81669 17.7035 5.62555 18.1642 5.625 18.6448V22.5198C5.62555 23.0003 5.81669 23.461 6.15648 23.8008C6.49627 24.1406 6.95696 24.3317 7.4375 24.3323V24.3323ZM7.5 18.7073H11.25V22.4573H7.5V18.7073ZM18.0784 55.2698H49.9375C50.1861 55.2698 50.4246 55.171 50.6004 54.9952C50.7762 54.8194 50.875 54.5809 50.875 54.3323C50.875 54.0836 50.7762 53.8452 50.6004 53.6694C50.4246 53.4935 50.1861 53.3948 49.9375 53.3948H18.0784C17.8297 53.3948 17.5913 53.4935 17.4155 53.6694C17.2396 53.8452 17.1409 54.0836 17.1409 54.3323C17.1409 54.5809 17.2396 54.8194 17.4155 54.9952C17.5913 55.171 17.8297 55.2698 18.0784 55.2698H18.0784ZM6.82837 5.82312C6.64295 5.82312 6.4617 5.8781 6.30753 5.98112C6.15336 6.08413 6.03319 6.23055 5.96224 6.40186C5.89128 6.57316 5.87272 6.76166 5.90889 6.94352C5.94506 7.12538 6.03435 7.29242 6.16546 7.42353C6.29657 7.55465 6.46362 7.64393 6.64548 7.68011C6.82733 7.71628 7.01584 7.69772 7.18714 7.62676C7.35845 7.5558 7.50486 7.43564 7.60788 7.28147C7.71089 7.1273 7.76587 6.94604 7.76587 6.76062C7.76587 6.51198 7.6671 6.27353 7.49129 6.09771C7.31547 5.9219 7.07701 5.82312 6.82837 5.82312ZM18.0784 44.0198H23.9048C24.1534 44.0198 24.3919 43.921 24.5677 43.7452C24.7435 43.5694 24.8423 43.3309 24.8423 43.0823C24.8423 42.8336 24.7435 42.5952 24.5677 42.4194C24.3919 42.2435 24.1534 42.1448 23.9048 42.1448H18.0784C17.8297 42.1448 17.5913 42.2435 17.4155 42.4194C17.2396 42.5952 17.1409 42.8336 17.1409 43.0823C17.1409 43.3309 17.2396 43.5694 17.4155 43.7452C17.5913 43.921 17.8297 44.0198 18.0784 44.0198Z" fill="white"/>
</g>
<defs>
<clipPath id="clip0_623_25">
<rect width="64" height="64" fill="white"/>
</clipPath>
</defs>
</svg>
