<svg width="99" height="64" viewBox="0 0 99 64" fill="none" xmlns="http://www.w3.org/2000/svg">
<g clip-path="url(#clip0_480_5170)">
<path d="M53.0822 62.7926C53.0822 58.1184 53.0831 53.4394 53.0849 48.7557C53.0849 48.2938 53.1405 47.8318 53.1448 47.3703C53.1771 43.77 53.1748 43.777 56.7048 43.7813C62.0375 43.7878 67.367 43.7885 72.6931 43.7835C72.9429 46.5709 71.016 49.2235 68.1611 49.6805C66.1157 50.0082 63.9973 49.8892 61.9114 49.9565C61.234 49.9782 60.5552 49.9598 59.6855 49.9598C59.6855 52.362 59.7461 54.5504 59.6713 56.7341C59.5538 60.208 56.5653 62.9672 53.0822 62.7926Z" fill="white"/>
<path d="M28.8829 43.8965H48.7422V62.8328C45.1887 62.8752 42.3258 60.1128 42.2297 56.5266C42.1719 54.4055 42.2183 52.2817 42.2183 49.9572C39.9018 49.9572 37.7736 49.9611 35.6452 49.9561C33.5011 49.9517 31.5779 49.3175 30.3561 47.5012C29.7005 46.5252 29.4339 45.2894 28.8829 43.8965Z" fill="white"/>
<path d="M78.4109 27.8146C78.1546 31.4949 75.801 34.0426 72.4919 34.0904C66.2806 34.1806 60.0674 34.1245 53.8549 34.1219C53.6324 34.1037 53.4119 34.0657 53.1961 34.0083C53.1541 30.7954 55.596 27.92 58.7912 27.8537C65.285 27.7206 71.7833 27.8146 78.4109 27.8146Z" fill="white"/>
<path d="M23.4991 27.8238C30.1686 27.8238 36.7232 27.7103 43.2712 27.8733C46.408 27.9516 48.7397 30.7971 48.75 34.1339H45.6562C40.432 34.1318 35.2078 34.1579 29.9837 34.1176C26.2568 34.0889 23.8924 31.8242 23.4991 27.8238Z" fill="white"/>
<path d="M25.6881 63.377C21.5625 61.0792 17.6237 58.3983 14.0272 55.2512C12.2183 53.6725 10.5282 51.9635 8.97062 50.138C7.3893 48.2974 5.96844 46.3257 4.7235 44.2445L3.84093 42.6413L3.05011 41.0175C2.53925 39.8832 2.08659 38.7238 1.6939 37.5437C0.915668 35.19 0.395489 32.7593 0.142454 30.294C-0.32903 25.3502 0.344746 20.1672 2.53965 15.462L3.43156 13.7322L4.46696 12.0743L4.53237 11.9705L4.65489 11.8047L4.78573 11.6281L5.04683 11.2743L5.57005 10.5673C6.01851 10.0505 6.47188 9.51406 6.93356 9.02169C8.74888 7.13912 10.828 5.52813 13.1063 4.23876C15.3762 2.95376 17.8084 1.97683 20.3381 1.33391C22.873 0.678935 25.4832 0.357906 28.1019 0.37903C28.7587 0.389364 29.4154 0.435807 30.0722 0.46658L31.9358 0.673137C32.6047 0.786692 33.2971 0.888892 33.9461 1.02425C34.578 1.17585 35.22 1.29871 35.8437 1.47847C38.3433 2.15593 40.7557 3.11958 43.0327 4.35015C47.5585 6.78534 51.5301 10.1265 54.6983 14.1638L50.1536 13.8352C51.8958 12.2144 53.8086 10.7859 55.8587 9.57447C57.9 8.35883 60.0722 7.3764 62.3344 6.64578C66.8475 5.19796 71.7139 4.6236 76.4808 5.37249C77.0788 5.43222 77.6652 5.58711 78.2554 5.69907C78.8472 5.81279 79.4321 5.9592 80.0075 6.13762L80.8764 6.38744L80.9846 6.41901L81.039 6.43479L81.1985 6.48964L81.3882 6.56084L81.7669 6.70381L82.5247 6.98917L82.9028 7.13372L83.3332 7.33097C83.9064 7.60157 84.4971 7.86842 85.0472 8.15481L86.6064 9.05643C87.6162 9.69469 88.5849 10.3951 89.507 11.1537C93.2002 14.1628 96.0041 18.1147 97.6192 22.5875C98.4248 24.8157 98.89 27.1518 98.9991 29.5176L98.9832 31.2948L98.9799 31.5166L98.97 31.6861L98.9612 31.786L98.9228 32.1855L98.8387 32.9871C98.6807 34.1628 98.4373 35.3256 98.1104 36.4663C97.4765 38.6709 96.5669 40.7874 95.4032 42.7661C94.2684 44.7119 92.9362 46.5366 91.4276 48.2115C88.4093 51.5239 84.891 54.2477 81.1661 56.5237C77.452 58.8215 73.5705 60.7415 69.6657 62.5996C73.2451 60.1822 76.864 57.8241 80.2224 55.1972C83.5677 52.569 86.7063 49.7071 89.1689 46.392C90.3873 44.7296 91.4919 43.0014 92.3728 41.1819C93.2558 39.3923 93.9089 37.499 94.3167 35.5467C94.5091 34.6125 94.638 33.6663 94.7025 32.7148L94.7261 31.9169L94.7409 31.5164L94.7447 31.4164L94.7465 31.3664C94.7498 31.2983 94.7431 31.43 94.7431 31.4082L94.742 31.3855L94.7332 31.2068L94.6705 29.7775C94.475 27.871 93.9948 26.0043 93.246 24.2391C92.4979 22.4617 91.5094 20.7947 90.308 19.2843C89.0938 17.7846 87.7067 16.4326 86.1752 15.2562C85.4116 14.6751 84.6128 14.1413 83.7834 13.6579L82.5167 12.9879L81.2955 12.4515L80.9878 12.3167L80.6048 12.1858L79.8398 11.9211L79.4568 11.7885L79.2655 11.7221L79.2419 11.714C79.1342 11.6769 79.3617 11.7542 79.3304 11.745L79.287 11.7336L79.2001 11.7119L78.5059 11.5353C78.0468 11.403 77.5799 11.2993 77.1078 11.225C76.6346 11.1511 76.1707 11.0319 75.6893 11.0022C71.8813 10.5174 67.9376 11.049 64.2632 12.2825C62.4183 12.8957 60.6662 13.764 59.0021 14.7467C57.3467 15.7372 55.8025 16.9016 54.3961 18.22L51.9532 20.5198L49.8533 17.8916C47.1857 14.5531 43.8619 11.6934 40.104 9.65271C38.2334 8.63415 36.2587 7.8183 34.2137 7.21912C33.707 7.0615 33.188 6.95931 32.676 6.82406C32.1715 6.71051 31.6959 6.63658 31.2042 6.53438L29.5511 6.32135C29.029 6.29365 28.5081 6.2447 27.9843 6.22733C23.7458 6.10451 19.5464 7.06627 15.7871 9.02078C13.9248 9.98326 12.2116 11.2083 10.7003 12.6582L9.68474 13.7071L8.63783 14.9837L7.74091 16.2602L6.94951 17.6135C5.95742 19.4896 5.23851 21.497 4.81445 23.5751C4.38407 25.6972 4.20661 27.8624 4.28575 30.0259C4.34766 32.2252 4.64874 34.4112 5.1837 36.5458C5.45517 37.6386 5.77177 38.6392 6.14331 39.6886L6.77366 41.2723L7.47434 42.8032C8.45955 44.8455 9.61246 46.8032 10.9213 48.6563C12.2309 50.5299 13.7135 52.2931 15.2679 54.0077C18.3996 57.4223 21.9592 60.4928 25.6881 63.377Z" fill="white"/>
</g>
<defs>
<clipPath id="clip0_480_5170">
<rect width="99" height="63" fill="white" transform="translate(0 0.376953)"/>
</clipPath>
</defs>
</svg>
