<svg width="55" height="55" viewBox="0 0 55 55" fill="none" xmlns="http://www.w3.org/2000/svg">
<circle opacity="0.04" cx="27.3418" cy="27.3418" r="27.3418" fill="white"/>
<g clip-path="url(#clip0_480_4999)">
<path d="M31.3999 18.8005L29.0731 18.7969C26.4591 18.7969 24.7697 20.4608 24.7697 23.036V24.9906H22.4303C22.2281 24.9906 22.0644 25.1479 22.0644 25.342V28.1739C22.0644 28.368 22.2283 28.5251 22.4303 28.5251H24.7697V35.671C24.7697 35.865 24.9334 36.0222 25.1356 36.0222H28.188C28.3901 36.0222 28.5538 35.8649 28.5538 35.671V28.5251H31.2892C31.4914 28.5251 31.6551 28.368 31.6551 28.1739L31.6562 25.342C31.6562 25.2488 31.6176 25.1596 31.5491 25.0936C31.4806 25.0277 31.3872 24.9906 31.2902 24.9906H28.5538V23.3337C28.5538 22.5373 28.7515 22.1331 29.8321 22.1331L31.3995 22.1325C31.6015 22.1325 31.7652 21.9752 31.7652 21.7813V19.1517C31.7652 18.958 31.6017 18.8008 31.3999 18.8005Z" fill="white"/>
</g>
<defs>
<clipPath id="clip0_480_4999">
<rect width="17.943" height="17.2253" fill="white" transform="translate(17.9434 18.7969)"/>
</clipPath>
</defs>
</svg>
