<svg width="33" height="50" viewBox="0 0 33 50" fill="none" xmlns="http://www.w3.org/2000/svg">
<path d="M8.25128 49.9999C12.8044 49.9999 16.4996 46.2666 16.4996 41.6666V33.3333H8.25128C3.69819 33.3333 0.00292969 37.0666 0.00292969 41.6666C0.00292969 46.2666 3.69819 49.9999 8.25128 49.9999Z" fill="#0ACF83"/>
<path d="M0.00292969 25.0001C0.00292969 20.4001 3.69819 16.6667 8.25128 16.6667H16.4996V33.3334H8.25128C3.69819 33.3334 0.00292969 29.6001 0.00292969 25.0001Z" fill="#A259FF"/>
<path d="M0.00292969 8.33333C0.00292969 3.73333 3.69819 0 8.25128 0H16.4996V16.6667H8.25128C3.69819 16.6667 0.00292969 12.9333 0.00292969 8.33333Z" fill="#F24E1E"/>
<path d="M16.5 0H24.7484C29.3015 0 32.9967 3.73333 32.9967 8.33333C32.9967 12.9333 29.3015 16.6667 24.7484 16.6667H16.5V0Z" fill="#FF7262"/>
<path d="M32.9967 25C32.9967 29.5999 29.3015 33.3333 24.7484 33.3333C20.1953 33.3333 16.5 29.5999 16.5 25C16.5 20.4 20.1953 16.6666 24.7484 16.6666C29.3015 16.6666 32.9967 20.4 32.9967 25Z" fill="#1ABCFE"/>
</svg>
