<svg width="37" height="55" viewBox="0 0 37 55" fill="none" xmlns="http://www.w3.org/2000/svg">
<path fill-rule="evenodd" clip-rule="evenodd" d="M24.2732 19.6523L19.1546 24.6601L14.4053 14.5859L16.8601 8.79253C17.4802 7.63767 18.4963 7.62112 19.1164 8.79253L24.2782 19.651L24.2732 19.6523Z" fill="#FFA000"/>
<path fill-rule="evenodd" clip-rule="evenodd" d="M19.1539 24.6576L0 43.3747L14.388 14.5911L19.1539 24.6576Z" fill="#F57F17"/>
<path fill-rule="evenodd" clip-rule="evenodd" d="M29.888 11.9923C30.8047 11.0755 31.7495 11.3836 31.9889 12.6875L36.9674 43.1188L20.453 53.5341C19.776 53.7963 19.0636 53.956 18.3394 54.0078C17.6761 53.9322 17.026 53.7677 16.4065 53.5189L0.00292969 43.3709L29.888 11.9923Z" fill="#FFCA28"/>
<path fill-rule="evenodd" clip-rule="evenodd" d="M14.4046 14.5859L0.0166016 43.3696L6.43391 1.29803C6.67583 -0.00580427 7.37868 -0.138225 8.01277 1.01791L14.4173 14.5872L14.4046 14.5859Z" fill="#FFA000"/>
</svg>
