<svg width="49" height="60" viewBox="0 0 49 60" fill="none" xmlns="http://www.w3.org/2000/svg">
<path d="M23.0059 52.3129L48.314 27.2963H29.9071L13.7986 43.2204L23.0059 52.3129ZM0 29.5685L29.9071 0H48.3084L9.20347 38.6666L0 29.5685Z" fill="#39CEFD"/>
<path d="M29.9116 59.1332H48.3129L32.2102 43.2147L23.0067 52.3185L29.9116 59.1332Z" fill="#03569B"/>
<path d="M32.2102 43.2147L23.0067 52.3185L36.6586 47.6425L32.2102 43.2147Z" fill="url(#paint0_linear_480_5094)"/>
<path d="M13.804 43.209L23.0075 34.1184L32.211 43.2165L23.0075 52.3203L13.804 43.209Z" fill="#16B9FD"/>
<path d="M48.314 27.2888L32.2093 43.2148L48.314 59.137H29.9071L13.7967 43.2129L29.9071 27.2869H48.3084L48.314 27.2888ZM29.9071 0L0 29.5685L9.20347 38.6666L48.314 0H29.9071Z" fill="url(#paint1_radial_480_5094)"/>
<defs>
<linearGradient id="paint0_linear_480_5094" x1="-1443.96" y1="-257.629" x2="-1443.77" y2="-257.81" gradientUnits="userSpaceOnUse">
<stop stop-color="#1A237E" stop-opacity="0.4"/>
<stop offset="1" stop-color="#1A237E" stop-opacity="0"/>
</linearGradient>
<radialGradient id="paint1_radial_480_5094" cx="0" cy="0" r="1" gradientUnits="userSpaceOnUse" gradientTransform="translate(-1319.6 -440.442) scale(2.85053)">
<stop stop-color="white" stop-opacity="0.102"/>
<stop offset="1" stop-color="white" stop-opacity="0"/>
</radialGradient>
</defs>
</svg>
