<svg width="34" height="42" viewBox="0 0 34 42" fill="none" xmlns="http://www.w3.org/2000/svg">
<g clip-path="url(#clip0_480_5187)">
<path d="M20.9223 42C20.5859 41.9344 20.2578 41.877 19.9214 41.8113C17.1646 41.2042 15.3021 39.4566 13.9319 37.0854C12.7586 35.0506 12.1351 32.8189 11.6346 30.5462C11.249 28.8068 10.4039 27.3218 9.10753 26.009C9.03369 26.1649 8.96805 26.2962 8.91062 26.4192C7.11378 30.4724 5.30874 34.5337 3.5119 38.5869C3.06885 39.5878 2.24017 40.0719 1.34586 39.8422C0.385902 39.596 -0.229453 38.6525 0.0741222 37.7008C0.566406 36.1254 1.13253 34.5748 1.67404 33.0159C2.72425 29.9883 3.78266 26.9526 4.84927 23.9332C4.96414 23.6132 4.90671 23.4655 4.61134 23.2932C2.6422 22.0954 1.47713 20.3888 1.43611 18.034C1.41149 16.4587 2.03505 15.1377 3.13449 14.0301C4.04521 13.1112 5.07901 12.3481 6.21126 11.7328C6.76098 11.4374 7.11378 11.4538 7.3189 11.8066C7.53222 12.1758 7.33531 12.4548 6.7938 12.824C5.89128 13.4394 4.96414 14.0301 4.16008 14.7603C2.05146 16.7131 2.17453 19.8226 4.43083 21.6359C4.97235 22.0707 5.60411 22.4482 6.25228 22.7189C9.08291 23.8922 11.1751 25.8039 12.3156 28.6591C12.7258 29.6765 12.9309 30.776 13.2181 31.8426C13.776 33.943 14.5062 35.9614 15.8354 37.709C17.3451 39.6863 19.3224 40.7939 21.8413 40.7529C23.6627 40.7283 25.2626 40.0391 26.6492 38.9068C29.6276 36.4536 31.4818 33.3194 32.0397 29.496C32.45 26.6818 31.9495 23.9578 30.7106 21.4062C28.2984 16.4259 24.2945 13.3655 19.0517 11.823C18.904 11.782 18.7563 11.7492 18.6168 11.6918C18.2558 11.5441 18.0999 11.2487 18.1984 10.9123C18.2968 10.5923 18.625 10.42 18.9942 10.5267C19.5686 10.6908 20.1511 10.8549 20.7172 11.06C24.5899 12.4466 27.8471 14.7111 30.2019 18.1079C33.3361 22.6123 34.3781 27.5187 32.4582 32.7943C31.3095 35.9614 29.3896 38.6115 26.5344 40.4986C25.3693 41.2698 24.0894 41.7621 22.6946 41.9344C22.6207 41.9426 22.5469 41.9836 22.4648 42.0082C21.9561 42 21.4392 42 20.9223 42ZM6.13742 23.9824C6.07178 24.1712 6.03076 24.2696 5.98973 24.3763C4.5457 28.5279 3.09346 32.6713 1.64943 36.8228C1.52636 37.1839 1.39508 37.5449 1.28022 37.9059C1.17356 38.2259 1.27201 38.4966 1.58379 38.6115C1.89557 38.7345 2.14171 38.6033 2.2894 38.2997C2.34683 38.193 2.39606 38.0782 2.44529 37.9633C3.89753 34.6814 5.35797 31.3995 6.8102 28.1258C7.24506 27.1413 7.67991 26.1567 8.13937 25.1229C7.47479 24.7373 6.82661 24.3681 6.13742 23.9824Z" fill="white"/>
<path d="M10.4609 7.51536C10.2476 6.61284 10.1902 5.73493 10.4363 4.85703C10.8055 3.52786 11.6916 2.57611 12.7583 1.77205C13.8331 0.95978 15.0474 0.393654 16.3519 0.0326461C16.7047 -0.0658106 16.9755 0.0162366 17.1642 0.319811C18.2144 2.05921 18.8462 3.92169 18.7313 5.98928C18.6411 7.53997 17.919 8.73786 16.6719 9.63218C16.5817 9.69781 16.4914 9.75525 16.3765 9.8455C16.8196 10.6496 16.5242 11.388 16.0976 12.069C15.9089 12.3643 15.5315 12.5366 15.2361 12.7746C15.0884 12.8895 14.8915 12.9961 14.8177 13.152C14.4402 13.9561 14.0792 14.7601 13.7346 15.5806C13.6608 15.7611 13.6526 16.0072 13.71 16.196C14.2515 18.0338 13.3818 20.0522 11.6752 20.8644C9.91122 21.7013 7.84363 21.127 6.7524 19.5025C5.52169 17.6728 6.12884 15.1293 8.03234 14.0135C8.21285 13.9068 8.37694 13.7099 8.45078 13.513C8.77077 12.6597 9.06614 11.79 9.3533 10.9285C9.39433 10.8055 9.39433 10.6249 9.33689 10.5183C8.80359 9.51731 9.25485 8.1061 10.2722 7.60561C10.3215 7.5892 10.3625 7.56458 10.4609 7.51536ZM16.3191 1.3372C14.8997 1.80487 13.6526 2.46945 12.627 3.51965C11.5193 4.66011 11.2322 5.98928 11.7573 7.48254C11.8065 7.63022 11.946 7.79432 12.0773 7.85175C13.0372 8.25378 13.9972 8.6312 14.9653 9.00041C15.0638 9.04143 15.2197 9.05784 15.3099 9.00862C16.5735 8.36044 17.3857 7.40049 17.4842 5.92364C17.5991 4.28269 17.0986 2.79764 16.3191 1.3372ZM10.5922 11.3059C10.5512 11.3552 10.5266 11.3716 10.5184 11.388C9.65688 13.8494 8.80359 16.3026 7.9585 18.7722C7.92568 18.8789 7.97491 19.0676 8.05696 19.1579C8.59026 19.7486 9.26305 20.0194 10.0589 20.0194C10.3379 20.0194 10.4691 19.9209 10.5758 19.6748C11.3717 17.8533 12.1839 16.0319 12.988 14.2104C13.2259 13.6689 13.4721 13.1192 13.7264 12.5449C12.6516 12.1264 11.6096 11.7162 10.5922 11.3059ZM10.8384 8.71325C10.4609 8.85273 10.4527 9.23835 10.3379 9.53372C10.2312 9.80447 10.4281 9.91934 10.6496 10.0096C11.9214 10.5101 13.1849 11.0106 14.4566 11.5111C14.9407 11.6998 14.9735 11.6752 15.2033 11.1008C15.4166 10.5593 15.4002 10.5019 14.9407 10.3214C13.6854 9.82088 12.4301 9.3286 11.1748 8.83632C11.0763 8.78709 10.9696 8.75427 10.8384 8.71325Z" fill="white"/>
<path d="M22.7604 38.5786C20.5944 38.5622 18.7894 36.749 18.8058 34.5911C18.8222 32.4251 20.6354 30.6447 22.8015 30.6529C24.9921 30.6611 26.7643 32.4743 26.7397 34.6732C26.7233 36.8228 24.9101 38.5951 22.7604 38.5786ZM22.7276 37.3479C24.2127 37.389 25.468 36.2075 25.5172 34.7142C25.5664 33.2045 24.3768 31.941 22.8671 31.9C21.341 31.859 20.0857 33.0569 20.0529 34.5993C20.0119 36.0598 21.218 37.2987 22.7276 37.3479Z" fill="white"/>
<path d="M23.7119 26.9111C23.7119 25.0897 25.238 23.5636 27.0594 23.5718C28.8891 23.58 30.3988 25.0897 30.3988 26.9193C30.3988 28.749 28.8809 30.2669 27.0594 30.2669C25.2298 30.2587 23.7119 28.7326 23.7119 26.9111ZM24.9426 26.9111C24.9426 28.0598 25.9026 29.028 27.0512 29.028C28.1999 29.028 29.1599 28.068 29.1599 26.9111C29.1599 25.7543 28.1999 24.8025 27.0512 24.7943C25.9026 24.8025 24.9426 25.7625 24.9426 26.9111Z" fill="white"/>
<path d="M27.183 19.7568C27.1748 21.3321 25.8866 22.6285 24.3195 22.6203C22.7524 22.6121 21.4479 21.3075 21.4561 19.7404C21.4643 18.1651 22.7606 16.877 24.3277 16.877C25.903 16.8934 27.183 18.1815 27.183 19.7568ZM25.9523 19.765C25.9605 18.8543 25.2303 18.1241 24.3195 18.1241C23.417 18.1241 22.6786 18.8625 22.6868 19.7732C22.695 20.6593 23.417 21.3896 24.3031 21.406C25.2056 21.406 25.9441 20.6757 25.9523 19.765Z" fill="white"/>
<path d="M18.8222 13.2666C20.2252 13.2584 21.3903 14.4071 21.3985 15.8101C21.4067 17.2049 20.2498 18.37 18.8386 18.37C17.4274 18.37 16.2788 17.2295 16.2706 15.8265C16.2623 14.4317 17.4192 13.2666 18.8222 13.2666ZM18.814 17.1393C19.5524 17.1475 20.1514 16.565 20.1678 15.8347C20.176 15.1045 19.5852 14.5056 18.855 14.4974C18.1166 14.4892 17.5177 15.0635 17.5013 15.8019C17.4848 16.5321 18.0838 17.1393 18.814 17.1393Z" fill="white"/>
</g>
<defs>
<clipPath id="clip0_480_5187">
<rect width="33.4343" height="42" fill="white"/>
</clipPath>
</defs>
</svg>
