<svg width="71" height="60" viewBox="0 0 71 60" fill="none" xmlns="http://www.w3.org/2000/svg">
<path d="M48.8744 6.70575H38.8102H38.6199V27.1559H26.2003V6.70575H20.276C16.4454 6.70575 14.2803 9.82083 14.2803 13.6493V59.3768H18.8246C23.4166 59.3768 26.2003 55.6435 26.2003 51.0541V38.0468H38.6199V59.3768H38.8102H40.9515H41.0943C43.2594 59.3768 45.2342 58.497 46.6379 57.0465C48.1368 55.5722 49.0647 53.5271 49.0647 51.2443V40.5674H49.2075V39.9492C50.2306 39.2834 51.2774 38.57 52.3719 37.8328C57.7014 33.9568 57.8204 42.9691 66.3618 43.4923C63.8636 40.2583 67.718 36.5725 60.9372 33.3861C67.4325 30.485 64.6488 24.9207 67.147 21.6867C59.0576 22.4476 58.3438 32.1734 52.3481 28.7491C51.2299 28.1071 50.1354 27.4413 49.041 26.823V17.0497H65.2912C68.3604 17.0497 70.8348 14.5767 70.8348 11.5092V6.70575H48.8744Z" fill="white"/>
<path d="M8.9744 7.56181C11.0637 7.56181 12.7574 5.86904 12.7574 3.78091C12.7574 1.69277 11.0637 0 8.9744 0C6.88511 0 5.19141 1.69277 5.19141 3.78091C5.19141 5.86904 6.88511 7.56181 8.9744 7.56181Z" fill="white"/>
<path d="M2.81256 14.4816C4.2974 14.4816 5.5011 13.2786 5.5011 11.7945C5.5011 10.3105 4.2974 9.10748 2.81256 9.10748C1.32772 9.10748 0.124023 10.3105 0.124023 11.7945C0.124023 13.2786 1.32772 14.4816 2.81256 14.4816Z" fill="white"/>
<path d="M8.97467 18.3576C8.97467 19.3088 8.18952 20.0935 7.23782 20.0935C6.28613 20.0935 5.50098 19.3088 5.50098 18.3576C5.50098 17.4064 6.28613 16.6217 7.23782 16.6217C8.18952 16.6217 8.97467 17.4064 8.97467 18.3576Z" fill="white"/>
</svg>
