<svg width="61" height="60" viewBox="0 0 61 60" fill="none" xmlns="http://www.w3.org/2000/svg">
<g clip-path="url(#clip0_480_5057)">
<path d="M10.8021 0.00610352H50.1979C56.1708 0.00610352 61 4.8769 61 10.9013V49.0986C61 55.123 56.1708 59.9938 50.1979 59.9938H10.8021C4.82916 59.9938 0 55.123 0 49.0986V10.9013C0 4.8769 4.82916 0.00610352 10.8021 0.00610352Z" fill="#330000"/>
<path d="M29.4837 35.8961H20.0287L18.097 41.9206C18.0462 42.1513 17.8428 42.3051 17.6141 42.2794H12.8357C12.5562 42.2794 12.4799 42.1256 12.5562 41.818L20.7403 18.0537C20.8166 17.7973 20.8928 17.5153 20.9945 17.2077C21.0962 16.6693 21.147 16.1053 21.147 15.5413C21.1216 15.4132 21.2232 15.285 21.3503 15.2594H27.9332C28.1366 15.2594 28.2382 15.3363 28.2637 15.4644L37.5407 41.8693C37.617 42.1513 37.5407 42.2794 37.2866 42.2794H31.9745C31.7966 42.3051 31.6187 42.1769 31.5678 41.9975L29.4837 35.8961ZM21.5028 30.6921H27.9587C27.8062 30.1537 27.6028 29.5128 27.3741 28.8463C27.1453 28.1541 26.9166 27.4107 26.6878 26.6416C26.4337 25.8469 26.2049 25.0779 25.9507 24.2831C25.6966 23.4884 25.4678 22.745 25.2645 22.0016C25.0612 21.2838 24.8832 20.6172 24.7053 20.002H24.6545C24.4257 21.1043 24.1462 22.2066 23.7903 23.309C23.4091 24.5395 23.0278 25.8213 22.6212 27.1031C22.2653 28.4105 21.8841 29.6154 21.5028 30.6921ZM43.2087 19.7456C42.3699 19.7712 41.5566 19.438 40.9466 18.8484C40.362 18.2075 40.057 17.3615 40.0824 16.4899C40.057 15.6183 40.3874 14.7979 40.9974 14.2083C41.6074 13.6187 42.4207 13.311 43.2595 13.311C44.2507 13.311 45.0132 13.6187 45.5724 14.2083C46.1316 14.8235 46.4366 15.6439 46.4112 16.4899C46.4366 17.3615 46.1316 18.2075 45.5216 18.8484C44.937 19.4636 44.0728 19.7969 43.2087 19.7456ZM40.362 41.9975V22.2579C40.362 22.0016 40.4637 21.899 40.6924 21.899H45.7249C45.9537 21.899 46.0553 22.0272 46.0553 22.2579V41.9975C46.0553 42.2795 45.9537 42.4076 45.7249 42.4076H40.7432C40.4891 42.4076 40.362 42.2538 40.362 41.9975V41.9975Z" fill="#FF9A00"/>
</g>
<defs>
<clipPath id="clip0_480_5057">
<rect width="61" height="60" fill="white"/>
</clipPath>
</defs>
</svg>
