<svg width="55" height="55" viewBox="0 0 55 55" fill="none" xmlns="http://www.w3.org/2000/svg">
<circle opacity="0.04" cx="27.6582" cy="27.3418" r="27.3418" fill="white"/>
<path d="M27.658 24.2276C25.9431 24.2276 24.5436 25.6271 24.5436 27.3419C24.5436 29.0568 25.9431 30.4563 27.658 30.4563C29.3728 30.4563 30.7723 29.0568 30.7723 27.3419C30.7723 25.6271 29.3728 24.2276 27.658 24.2276ZM36.9986 27.3419C36.9986 26.0523 37.0103 24.7743 36.9379 23.487C36.8655 21.9917 36.5244 20.6647 35.431 19.5713C34.3352 18.4756 33.0105 18.1368 31.5153 18.0644C30.2256 17.9919 28.9476 18.0036 27.6603 18.0036C26.3707 18.0036 25.0927 17.9919 23.8054 18.0644C22.3101 18.1368 20.9831 18.4779 19.8897 19.5713C18.7939 20.667 18.4552 21.9917 18.3827 23.487C18.3103 24.7767 18.322 26.0546 18.322 27.3419C18.322 28.6293 18.3103 29.9096 18.3827 31.1969C18.4552 32.6921 18.7963 34.0192 19.8897 35.1126C20.9854 36.2083 22.3101 36.5471 23.8054 36.6195C25.095 36.6919 26.373 36.6803 27.6603 36.6803C28.95 36.6803 30.2279 36.6919 31.5153 36.6195C33.0105 36.5471 34.3376 36.206 35.431 35.1126C36.5267 34.0168 36.8655 32.6921 36.9379 31.1969C37.0127 29.9096 36.9986 28.6316 36.9986 27.3419V27.3419ZM27.658 32.1338C25.0062 32.1338 22.8662 29.9937 22.8662 27.3419C22.8662 24.6902 25.0062 22.5501 27.658 22.5501C30.3097 22.5501 32.4498 24.6902 32.4498 27.3419C32.4498 29.9937 30.3097 32.1338 27.658 32.1338ZM32.646 23.473C32.0269 23.473 31.5269 22.973 31.5269 22.3539C31.5269 21.7347 32.0269 21.2348 32.646 21.2348C33.2652 21.2348 33.7652 21.7347 33.7652 22.3539C33.7653 22.5009 33.7365 22.6465 33.6803 22.7824C33.6242 22.9182 33.5417 23.0417 33.4378 23.1456C33.3338 23.2496 33.2104 23.332 33.0745 23.3882C32.9387 23.4443 32.7931 23.4732 32.646 23.473V23.473Z" fill="white"/>
</svg>
