<svg width="49" height="62" viewBox="0 0 49 62" fill="none" xmlns="http://www.w3.org/2000/svg">
<path d="M16.3539 47.3796C16.3539 47.3796 13.8186 48.7958 18.1569 49.2754C22.7321 49.8938 27.3804 49.7047 31.8903 48.7166C33.0588 49.3877 34.2812 49.9602 35.5448 50.4281C22.5606 55.7744 6.15626 50.1236 16.3585 47.3827L16.3539 47.3796ZM14.0364 40.7999C14.0364 40.7999 11.2498 42.8617 15.5058 43.3033C21.2983 43.9912 27.165 43.7091 32.8649 42.4688C33.6384 43.1861 34.5475 43.7417 35.5388 44.1027C20.1577 48.6024 3.02249 44.4545 14.0364 40.7999Z" fill="#5382A1"/>
<path d="M27.8829 29.3139C31.0152 32.5878 27.0607 35.5357 27.0607 35.5357C27.0607 35.5357 35.0093 31.8066 31.3593 27.1394C27.9499 22.7829 25.3339 20.6207 39.4891 13.1624C39.4891 13.1624 17.2726 18.2026 27.8829 29.3154" fill="#E76F00"/>
<path d="M44.788 51.9552C44.788 51.9552 46.6655 53.6866 42.7186 55.0251C35.2131 57.565 11.4784 58.3339 4.88347 55.1271C2.51411 53.9744 6.95742 52.3633 8.35833 52.039C9.10195 51.8339 9.87114 51.7365 10.6424 51.7497C8.00658 49.6742 -6.39535 55.826 3.33334 57.5863C29.8501 62.3905 51.6646 55.4225 44.788 51.9537V51.9552ZM16.7699 34.2277C16.7699 34.2277 4.86672 36.8163 12.555 37.7467C17.7989 38.1189 23.0642 38.068 28.2999 37.5944C33.2259 37.2153 38.1702 36.4097 38.1702 36.4097C37.1372 36.8204 36.1373 37.3101 35.1796 37.8746C23.0922 40.7784 -0.260294 39.4278 6.46254 36.457C9.69346 34.9732 13.2084 34.2099 16.7638 34.2201" fill="#5382A1"/>
<path d="M38.4352 45.735C50.8652 39.2162 45.1184 32.9441 41.1076 33.7953C40.6245 33.8857 40.1494 34.0145 39.6869 34.1806C39.9493 33.8025 40.3213 33.5139 40.7528 33.3537C48.6892 30.5367 54.7923 41.6587 38.1915 46.0639C38.295 45.9712 38.3797 45.8595 38.4413 45.735" fill="#5382A1"/>
<path d="M32.4563 0C32.4563 0 39.3528 6.23404 25.9086 15.8196C15.1353 23.5093 23.4509 27.8933 25.9086 32.903C19.6198 27.776 15.0044 23.2611 18.1016 19.0599C22.6485 12.8929 35.2353 9.89771 32.4563 0Z" fill="#E76F00"/>
<path d="M18.4506 61.6826C30.2122 62.3236 48.2732 61.3278 48.7011 56.5936C48.7011 56.5936 47.8788 58.3889 38.98 59.8142C29.1191 61.2507 19.112 61.3817 9.21684 60.204C9.21684 60.204 10.7198 61.2623 18.4506 61.6841" fill="#5382A1"/>
</svg>
