<svg width="46" height="53" viewBox="0 0 46 53" fill="none" xmlns="http://www.w3.org/2000/svg">
<path d="M4.23048 47.091L0 0.457031L45.637 0.475364L41.4361 47.0558L22.7825 52.3241L4.23048 47.091ZM37.9953 44.5527L41.5377 4.61136H22.8545L22.9955 48.6648L37.9953 44.5527ZM21.1101 10.4607H16.5708L16.5172 34.3657L7.70652 31.9685L7.72486 37.4328L21.1101 41.0457V10.4607Z" fill="#D4B830"/>
<path opacity="0.986" d="M7.72439 37.4257L7.70605 31.9613C7.70605 31.9613 13.3312 33.545 16.5167 34.3586L16.5703 10.4719H21.1026V41.0329L7.72439 37.4257Z" fill="white" fill-opacity="0.92"/>
<path d="M22.8545 4.58594H41.5434L38.001 44.5273L22.8545 48.6393V4.58594ZM37.0407 37.8347L38.269 22.9011L29.1918 23.915V15.9405L38.8739 15.9053L39.2659 10.4592L24.6525 10.5298L24.8485 30.358L33.6775 28.8449L33.5534 33.2587L24.6539 35.6264L24.7427 41.0372L37.0421 37.8333L37.0407 37.8347Z" fill="#FDD83C"/>
</svg>
