<svg width="64" height="64" viewBox="0 0 64 64" fill="none" xmlns="http://www.w3.org/2000/svg">
<path d="M17.0499 45.0299C16.9299 45.0299 16.7999 45.0099 16.6799 44.9599C16.3499 44.8199 16.1199 44.5099 16.0799 44.1599C15.1999 34.9199 19.2499 28.7899 21.7399 25.9599C22.0899 25.5599 22.7099 25.5199 23.1099 25.8699C23.5099 26.2199 23.5499 26.8399 23.1999 27.2399C21.0799 29.6499 17.7199 34.6799 17.9099 42.2199C19.0399 41.4299 20.7799 40.3399 22.9799 39.2899C23.4699 39.0599 24.0399 39.2699 24.2699 39.7499C24.4999 40.2299 24.2899 40.8099 23.8099 41.0399C20.0399 42.8299 17.6899 44.7899 17.6699 44.8099C17.4899 44.9599 17.2699 45.0299 17.0499 45.0299ZM46.9499 45.0299C46.7299 45.0299 46.4999 44.9499 46.3199 44.7999C46.2999 44.7799 43.9399 42.8199 40.1799 41.0299C39.6999 40.7999 39.4899 40.2199 39.7199 39.7399C39.9499 39.2599 40.5299 39.0499 41.0099 39.2799C43.2199 40.3299 44.9499 41.4199 46.0799 42.2099C46.2599 34.6699 42.9099 29.6399 40.7899 27.2199C40.4399 26.8199 40.4799 26.1999 40.8799 25.8499C41.2799 25.4999 41.8999 25.5399 42.2499 25.9399C44.7399 28.7699 48.7899 34.9099 47.9099 44.1499C47.8799 44.5099 47.6499 44.8199 47.3099 44.9499C47.1999 45.0099 47.0799 45.0299 46.9499 45.0299ZM31.9999 63.9999C31.6999 63.9999 31.4099 63.8599 31.2299 63.6199C31.0599 63.3899 26.9599 57.9199 26.6999 50.9499C26.6899 50.6899 26.7899 50.4299 26.9699 50.2399C27.1499 50.0499 27.3999 49.9399 27.6699 49.9399H36.3399C36.5999 49.9399 36.8599 50.0499 37.0399 50.2399C37.2199 50.4299 37.3199 50.6899 37.3099 50.9499C37.0499 57.9199 32.9499 63.3899 32.7699 63.6199C32.5799 63.8599 32.2999 63.9999 31.9999 63.9999ZM28.6999 51.8799C29.0999 56.0099 30.9299 59.5299 31.9999 61.2699C33.0699 59.5299 34.8999 56.0099 35.2999 51.8799H28.6999Z" fill="white"/>
<path d="M40.0104 43.69H23.9904C23.5504 43.69 23.1604 43.39 23.0504 42.97C21.9604 38.82 21.4004 34.52 21.4004 30.19C21.4004 9.20001 30.9504 0.60001 31.3504 0.25001C31.7204 -0.0699902 32.2604 -0.0699902 32.6304 0.25001C33.0404 0.61001 42.5804 9.21001 42.5804 30.19C42.5804 34.52 42.0304 38.82 40.9304 42.97C40.8404 43.39 40.4504 43.69 40.0104 43.69ZM24.7504 41.75H39.2604C40.1904 37.98 40.6604 34.1 40.6604 30.19C40.6604 13.22 34.1104 4.67001 32.0104 2.36001C29.9104 4.68001 23.3504 13.28 23.3504 30.19C23.3504 34.1 23.8204 37.98 24.7504 41.75Z" fill="white"/>
<path d="M38.6598 48.0299H25.3398C25.0398 48.0299 24.7498 47.8899 24.5698 47.6499C24.3898 47.4099 24.3298 47.0899 24.4098 46.7999L25.6198 42.4599C25.7598 41.9399 26.2998 41.6399 26.8098 41.7899C27.3298 41.9299 27.6298 42.4699 27.4798 42.9799L26.6098 46.0899H37.3798L36.5098 42.9799C36.3698 42.4599 36.6698 41.9299 37.1798 41.7899C37.6898 41.6499 38.2298 41.9499 38.3698 42.4599L39.5798 46.7999C39.6598 47.0899 39.5998 47.3999 39.4198 47.6499C39.2498 47.8799 38.9598 48.0299 38.6598 48.0299ZM31.9998 24.9099C29.0898 24.9099 26.7198 22.5399 26.7198 19.6299C26.7198 16.7199 29.0898 14.3499 31.9998 14.3499C34.9098 14.3499 37.2798 16.7199 37.2798 19.6299C37.2798 22.5399 34.9098 24.9099 31.9998 24.9099ZM31.9998 16.2999C30.1598 16.2999 28.6598 17.7999 28.6598 19.6399C28.6598 21.4799 30.1598 22.9799 31.9998 22.9799C33.8398 22.9799 35.3398 21.4799 35.3398 19.6399C35.3398 17.7899 33.8398 16.2999 31.9998 16.2999ZM37.3398 9.8399H26.6598C26.1198 9.8399 25.6898 9.4099 25.6898 8.8699C25.6898 8.3299 26.1198 7.8999 26.6598 7.8999H37.3398C37.8798 7.8999 38.3098 8.3299 38.3098 8.8699C38.3098 9.4099 37.8798 9.8399 37.3398 9.8399Z" fill="white"/>
</svg>
