<svg width="56" height="55" viewBox="0 0 56 55" fill="none" xmlns="http://www.w3.org/2000/svg">
<circle opacity="0.04" cx="28.1142" cy="27.3418" r="27.3418" fill="white"/>
<g clip-path="url(#clip0_480_4987)">
<path d="M36.6544 36.0217V36.021H36.6589V29.7036C36.6589 26.6131 35.9659 24.2324 32.2023 24.2324C30.3931 24.2324 29.1789 25.1856 28.6833 26.0892H28.6309V24.5209H25.0625V36.021H28.7782V30.3266C28.7782 28.8273 29.0743 27.3775 31.0084 27.3775C32.9141 27.3775 32.9425 29.0885 32.9425 30.4228V36.0217H36.6544Z" fill="white"/>
<path d="M19.0117 24.5215H22.7319V36.0215H19.0117V24.5215Z" fill="white"/>
<path d="M20.8705 18.7969C19.681 18.7969 18.7158 19.7235 18.7158 20.8653C18.7158 22.0072 19.681 22.9532 20.8705 22.9532C22.06 22.9532 23.0251 22.0072 23.0251 20.8653C23.0244 19.7235 22.0592 18.7969 20.8705 18.7969V18.7969Z" fill="white"/>
</g>
<defs>
<clipPath id="clip0_480_4987">
<rect width="17.943" height="17.2253" fill="white" transform="translate(18.7158 18.7969)"/>
</clipPath>
</defs>
</svg>
