<svg width="297" height="64" viewBox="0 0 297 64" fill="none" xmlns="http://www.w3.org/2000/svg">
<g clip-path="url(#clip0_481_9812)">
<path d="M92.824 41.0321C91.1143 41.0321 89.4978 40.7218 87.9745 40.07C86.4824 39.4182 85.1767 38.5181 84.0576 37.3697C82.9385 36.2213 82.0681 34.8556 81.4464 33.3037C80.8246 31.7518 80.5138 30.0758 80.5138 28.2756C80.5138 26.4754 80.8246 24.8304 81.4464 23.2785C82.0681 21.7266 82.9385 20.392 84.0576 19.2436C85.1767 18.0952 86.4824 17.164 87.9745 16.5123C89.4667 15.8605 91.0832 15.519 92.824 15.519C94.4716 15.519 95.8705 15.7363 97.0518 16.1708C98.2331 16.6054 99.4143 17.2882 100.627 18.2814C100.782 18.4056 100.938 18.5297 101.031 18.6849C101.124 18.8091 101.186 18.9642 101.217 19.0884C101.248 19.2125 101.28 19.3988 101.28 19.585C101.28 19.9885 101.124 20.3299 100.844 20.6092C100.565 20.8886 100.191 21.0438 99.7874 21.0438C99.3832 21.0748 98.9791 20.9196 98.6372 20.6403C97.86 19.9575 97.0207 19.4298 96.1813 19.0884C95.342 18.7159 94.2229 18.5607 92.8551 18.5607C91.6116 18.5607 90.4303 18.8091 89.3112 19.3367C88.1921 19.8333 87.2284 20.5472 86.3891 21.4473C85.5498 22.3474 84.897 23.3716 84.4307 24.551C83.9644 25.7305 83.7157 27.003 83.7157 28.3377C83.7157 29.7033 83.9644 30.9759 84.4307 32.1553C84.897 33.3348 85.5498 34.359 86.3891 35.2591C87.2284 36.1592 88.1921 36.842 89.3112 37.3386C90.4303 37.8352 91.6116 38.0835 92.8551 38.0835C93.9431 38.0835 94.969 37.8973 95.9327 37.5249C96.8963 37.1524 97.8289 36.6248 98.7304 35.973C99.1035 35.6936 99.4765 35.5695 99.8495 35.6005C100.223 35.6316 100.533 35.7867 100.782 36.035C101.031 36.3144 101.155 36.6558 101.155 37.1214C101.155 37.3386 101.124 37.5559 101.031 37.7421C100.969 37.9594 100.813 38.1456 100.627 38.3008C99.5076 39.2319 98.2641 39.9458 96.9585 40.3803C95.6529 40.8149 94.254 41.0321 92.824 41.0321ZM101.155 37.0903L97.9533 36.4385V30.7276H93.539C93.0727 30.7276 92.6686 30.6034 92.3577 30.3241C92.0468 30.0447 91.8914 29.7033 91.8914 29.2688C91.8914 28.8343 92.0468 28.4929 92.3577 28.2135C92.6686 27.9342 93.0727 27.81 93.539 27.81H99.5076C100.005 27.81 100.378 27.9652 100.689 28.2756C101 28.586 101.124 28.9895 101.124 29.4861V37.0903H101.155Z" fill="#FF8930"/>
<path d="M107.714 40.7218C107.217 40.7218 106.813 40.5976 106.533 40.3183C106.253 40.0389 106.129 39.6665 106.129 39.1078V24.8925C106.129 24.3959 106.253 23.9924 106.533 23.713C106.813 23.4337 107.217 23.3095 107.714 23.3095C108.243 23.3095 108.647 23.4337 108.927 23.713C109.207 23.9924 109.331 24.3648 109.331 24.9235V39.1699C109.331 39.6665 109.207 40.07 108.927 40.3493C108.647 40.5666 108.243 40.7218 107.714 40.7218ZM107.683 29.8275C107.683 28.5549 107.994 27.4065 108.616 26.4133C109.238 25.3891 110.077 24.6131 111.165 23.9924C112.222 23.4027 113.403 23.0923 114.678 23.0923C115.952 23.0923 116.916 23.3096 117.538 23.713C118.159 24.1165 118.408 24.6131 118.253 25.2029C118.191 25.5132 118.066 25.7305 117.88 25.8857C117.693 26.0409 117.476 26.134 117.258 26.1961C117.009 26.2271 116.761 26.2271 116.481 26.165C115.113 25.8857 113.901 25.8547 112.813 26.103C111.725 26.3513 110.885 26.7858 110.232 27.4065C109.611 28.0583 109.3 28.8653 109.3 29.8275H107.683Z" fill="#FF8930"/>
<path d="M127.641 40.8458C126.086 40.8458 124.687 40.4734 123.444 39.6974C122.201 38.9215 121.237 37.8662 120.522 36.5316C119.807 35.1969 119.465 33.7071 119.465 32.0311C119.465 30.355 119.838 28.8342 120.615 27.4996C121.392 26.1649 122.449 25.1096 123.786 24.3337C125.123 23.5578 126.615 23.1853 128.262 23.1853C129.91 23.1853 131.402 23.5888 132.739 24.3337C134.044 25.1096 135.101 26.1649 135.879 27.4996C136.656 28.8342 137.029 30.355 137.029 32.0311H135.785C135.785 33.7071 135.443 35.228 134.728 36.5316C134.013 37.8662 133.05 38.9215 131.806 39.6974C130.594 40.4734 129.195 40.8458 127.641 40.8458ZM128.293 37.9904C129.382 37.9904 130.345 37.742 131.185 37.2144C132.024 36.6868 132.708 35.9729 133.205 35.0728C133.703 34.1727 133.951 33.1484 133.951 32.0311C133.951 30.8827 133.703 29.8584 133.205 28.9583C132.708 28.0582 132.055 27.3444 131.185 26.8167C130.345 26.2891 129.35 26.0408 128.293 26.0408C127.237 26.0408 126.273 26.2891 125.402 26.8167C124.532 27.3444 123.848 28.0582 123.351 28.9583C122.853 29.8584 122.605 30.8827 122.605 32.0311C122.605 33.1484 122.853 34.1727 123.351 35.0728C123.848 35.9729 124.532 36.6868 125.402 37.2144C126.242 37.711 127.205 37.9904 128.293 37.9904ZM135.443 40.7527C134.977 40.7527 134.573 40.5975 134.293 40.2872C133.982 39.9768 133.827 39.6043 133.827 39.1388V34.2658L134.449 30.8827L137.091 32.0311V39.1388C137.091 39.6043 136.936 40.0078 136.625 40.2872C136.283 40.5975 135.91 40.7527 135.443 40.7527Z" fill="#FF8930"/>
<path d="M149.837 40.8458C148.127 40.8458 146.604 40.4734 145.298 39.6974C143.961 38.9215 142.935 37.8662 142.158 36.5316C141.412 35.1969 141.039 33.7071 141.039 32.0311C141.039 30.324 141.412 28.7721 142.158 27.4375C142.904 26.1029 143.93 25.0476 145.236 24.3027C146.541 23.5578 148.034 23.1853 149.712 23.1853C150.956 23.1853 152.106 23.4336 153.163 23.8992C154.22 24.3647 155.152 25.1096 155.961 26.0408C156.271 26.3822 156.365 26.7236 156.271 27.0961C156.178 27.4685 155.961 27.7789 155.556 28.0582C155.246 28.2755 154.935 28.3376 154.562 28.2755C154.189 28.2134 153.878 28.0272 153.567 27.7168C152.51 26.5995 151.235 26.0718 149.681 26.0718C148.593 26.0718 147.629 26.3201 146.821 26.8167C145.982 27.3133 145.329 28.0272 144.863 28.8963C144.396 29.7964 144.148 30.8516 144.148 32.0621C144.148 33.2105 144.396 34.2348 144.863 35.1349C145.329 36.035 146.013 36.7488 146.852 37.2454C147.692 37.7731 148.686 38.0214 149.837 38.0214C150.583 38.0214 151.235 37.9283 151.795 37.742C152.355 37.5558 152.883 37.2765 153.349 36.904C153.691 36.6247 154.033 36.4695 154.406 36.4385C154.779 36.4074 155.09 36.5005 155.37 36.7488C155.743 37.0592 155.929 37.3696 155.992 37.742C156.023 38.1145 155.898 38.4559 155.619 38.7353C154.033 40.132 152.137 40.8458 149.837 40.8458Z" fill="#FF8930"/>
<path d="M169.297 40.8458C167.525 40.8458 165.971 40.4734 164.603 39.7285C163.235 38.9836 162.147 37.9283 161.37 36.5936C160.593 35.259 160.22 33.7382 160.22 32.0311C160.22 30.293 160.593 28.7411 161.308 27.4375C162.054 26.1029 163.049 25.0786 164.354 24.3027C165.66 23.5578 167.152 23.1853 168.831 23.1853C170.478 23.1853 171.908 23.5578 173.121 24.2716C174.302 25.0165 175.235 26.0097 175.856 27.3133C176.478 28.5859 176.789 30.0757 176.789 31.7517C176.789 32.1552 176.664 32.4967 176.385 32.745C176.105 33.0243 175.763 33.1484 175.328 33.1484H162.458V30.6033H175.235L173.929 31.5034C173.898 30.4482 173.68 29.486 173.276 28.648C172.872 27.8099 172.312 27.1581 171.566 26.6615C170.82 26.1649 169.919 25.9166 168.862 25.9166C167.649 25.9166 166.624 26.196 165.753 26.7236C164.883 27.2513 164.23 27.9962 163.795 28.8963C163.36 29.8274 163.111 30.8827 163.111 32.0311C163.111 33.2105 163.391 34.2348 163.919 35.1659C164.448 36.066 165.194 36.8109 166.126 37.3386C167.059 37.8662 168.147 38.1455 169.359 38.1455C170.012 38.1455 170.696 38.0214 171.38 37.7731C172.064 37.5248 172.623 37.2454 173.058 36.9351C173.369 36.6868 173.711 36.5936 174.084 36.5626C174.457 36.5626 174.768 36.6557 175.048 36.904C175.421 37.2144 175.608 37.5869 175.608 37.9593C175.639 38.3318 175.452 38.6732 175.11 38.9525C174.395 39.5112 173.494 40.0078 172.406 40.3492C171.318 40.6596 170.292 40.8458 169.297 40.8458Z" fill="#FF8930"/>
<path d="M192.425 41.0321C190.715 41.0321 189.098 40.7218 187.575 40.07C186.083 39.4182 184.777 38.5181 183.658 37.3697C182.539 36.2213 181.669 34.8556 181.047 33.3037C180.425 31.7518 180.114 30.0758 180.114 28.2756C180.114 26.4754 180.425 24.8304 181.047 23.2785C181.669 21.7266 182.539 20.392 183.658 19.2436C184.777 18.0952 186.083 17.164 187.575 16.5123C189.067 15.8605 190.684 15.519 192.425 15.519C194.072 15.519 195.471 15.7363 196.652 16.1708C197.834 16.6054 199.015 17.2882 200.227 18.2814C200.383 18.4056 200.538 18.5297 200.631 18.6849C200.725 18.8091 200.787 18.9642 200.818 19.0884C200.849 19.2125 200.88 19.3988 200.88 19.585C200.88 19.9885 200.725 20.3299 200.445 20.5782C200.165 20.8575 199.823 20.9817 199.419 21.0127C199.015 21.0438 198.611 20.9196 198.238 20.6092C197.461 19.9264 196.621 19.3988 195.782 19.0574C194.943 18.6849 193.823 18.5297 192.456 18.5297C191.212 18.5297 190.031 18.778 188.912 19.3057C187.793 19.8023 186.829 20.5161 185.99 21.4162C185.15 22.3163 184.498 23.3406 184.031 24.52C183.565 25.6994 183.316 26.972 183.316 28.3066C183.316 29.6723 183.565 30.9448 184.031 32.1243C184.498 33.3037 185.15 34.328 185.99 35.2281C186.829 36.1282 187.793 36.811 188.912 37.3076C190.031 37.8042 191.212 38.0525 192.456 38.0525C193.544 38.0525 194.569 37.8663 195.533 37.4938C196.497 37.1214 197.429 36.5937 198.331 35.9419C198.704 35.6626 199.077 35.5384 199.45 35.5695C199.823 35.6005 200.134 35.7557 200.383 36.004C200.631 36.2833 200.756 36.6248 200.756 37.0903C200.756 37.3076 200.725 37.5249 200.631 37.7111C200.538 37.9284 200.414 38.1146 200.258 38.2698C199.108 39.1699 197.865 39.8837 196.559 40.3493C195.253 40.8149 193.855 41.0321 192.425 41.0321Z" fill="white"/>
<path d="M212.351 40.8458C210.642 40.8458 209.118 40.4734 207.782 39.7285C206.476 38.9836 205.419 37.9283 204.673 36.5936C203.927 35.259 203.554 33.7382 203.554 32.0311C203.554 30.293 203.927 28.7411 204.673 27.4375C205.419 26.1029 206.476 25.0786 207.782 24.3027C209.087 23.5578 210.61 23.1853 212.351 23.1853C214.061 23.1853 215.553 23.5578 216.89 24.3027C218.196 25.0476 219.252 26.1029 219.999 27.4375C220.745 28.7721 221.118 30.293 221.118 32.0311C221.118 33.7382 220.745 35.2901 219.999 36.5936C219.252 37.9283 218.227 38.9525 216.89 39.7285C215.615 40.4734 214.092 40.8458 212.351 40.8458ZM212.351 37.9904C213.47 37.9904 214.434 37.742 215.273 37.2144C216.113 36.7178 216.797 36.0039 217.263 35.1038C217.729 34.2037 217.978 33.1795 217.978 32C217.978 30.8206 217.729 29.7964 217.263 28.8963C216.797 27.9962 216.113 27.2823 215.273 26.7857C214.434 26.2891 213.439 26.0097 212.351 26.0097C211.232 26.0097 210.268 26.2581 209.429 26.7857C208.59 27.2823 207.906 27.9962 207.409 28.8963C206.911 29.7964 206.662 30.8206 206.662 32C206.662 33.1795 206.911 34.2037 207.409 35.1038C207.906 36.0039 208.559 36.6868 209.429 37.2144C210.268 37.711 211.263 37.9904 212.351 37.9904Z" fill="white"/>
<path d="M233.925 40.8458C232.278 40.8458 230.755 40.4734 229.449 39.6974C228.112 38.9215 227.055 37.8662 226.278 36.5316C225.501 35.1969 225.128 33.6761 225.128 32.0001C225.128 30.324 225.47 28.8032 226.185 27.4996C226.9 26.1649 227.864 25.1097 229.107 24.3337C230.35 23.5578 231.749 23.1853 233.304 23.1853C234.547 23.1853 235.728 23.4336 236.785 23.9613C237.842 24.4889 238.744 25.2028 239.459 26.0718V17.4433C239.459 16.9467 239.614 16.5743 239.925 16.2639C240.236 15.9535 240.609 15.8293 241.075 15.8293C241.573 15.8293 241.946 15.9845 242.257 16.2639C242.567 16.5743 242.692 16.9467 242.692 17.4433V31.969C242.692 33.6451 242.288 35.1659 241.542 36.5005C240.764 37.8352 239.707 38.8905 238.402 39.6664C237.065 40.4734 235.573 40.8458 233.925 40.8458ZM233.925 37.9904C235.013 37.9904 235.977 37.7421 236.816 37.2144C237.656 36.6868 238.34 35.9729 238.837 35.0728C239.334 34.1727 239.583 33.1485 239.583 32.0001C239.583 30.8517 239.334 29.8274 238.837 28.9273C238.34 28.0272 237.687 27.3133 236.816 26.8167C235.977 26.2891 234.982 26.0408 233.925 26.0408C232.868 26.0408 231.905 26.2891 231.034 26.8167C230.164 27.3444 229.48 28.0582 228.983 28.9273C228.485 29.8274 228.237 30.8517 228.237 32.0001C228.237 33.1174 228.485 34.1417 228.983 35.0728C229.48 35.9729 230.164 36.7178 231.034 37.2144C231.874 37.711 232.837 37.9904 233.925 37.9904Z" fill="white"/>
<path d="M256.65 40.8458C254.878 40.8458 253.323 40.4734 251.956 39.7285C250.588 38.9836 249.5 37.9283 248.723 36.5936C247.945 35.259 247.572 33.7382 247.572 32.0311C247.572 30.293 247.945 28.7411 248.66 27.4375C249.406 26.1029 250.401 25.0786 251.707 24.3027C253.012 23.5578 254.505 23.1853 256.183 23.1853C257.831 23.1853 259.261 23.5578 260.473 24.2716C261.654 25.0165 262.587 26.0097 263.209 27.3133C263.831 28.5859 264.141 30.0757 264.141 31.7517C264.141 32.1552 264.017 32.4967 263.737 32.745C263.457 33.0243 263.116 33.1484 262.68 33.1484H249.811V30.6033H262.587L261.281 31.5034C261.25 30.4482 261.033 29.486 260.629 28.648C260.225 27.8099 259.665 27.1581 258.919 26.6615C258.173 26.1649 257.271 25.9166 256.214 25.9166C255.002 25.9166 253.976 26.196 253.106 26.7236C252.235 27.2513 251.583 27.9962 251.147 28.8963C250.712 29.8274 250.463 30.8827 250.463 32.0311C250.463 33.2105 250.743 34.2348 251.272 35.1659C251.8 36.066 252.546 36.8109 253.479 37.3386C254.411 37.8662 255.499 38.1455 256.712 38.1455C257.365 38.1455 258.048 38.0214 258.732 37.7731C259.416 37.5248 259.976 37.2454 260.411 36.9351C260.722 36.6868 261.064 36.5936 261.437 36.5626C261.81 36.5626 262.121 36.6557 262.401 36.904C262.774 37.2144 262.96 37.5869 262.96 37.9593C262.991 38.3318 262.805 38.6732 262.463 38.9525C261.748 39.5112 260.846 40.0078 259.758 40.3492C258.639 40.6596 257.613 40.8458 256.65 40.8458Z" fill="white"/>
<path d="M269.862 40.7218C269.364 40.7218 268.96 40.5976 268.681 40.3183C268.401 40.0389 268.276 39.6665 268.276 39.1078V24.8925C268.276 24.3959 268.401 23.9924 268.681 23.713C268.96 23.4337 269.364 23.3095 269.862 23.3095C270.39 23.3095 270.794 23.4337 271.074 23.713C271.354 23.9924 271.478 24.3648 271.478 24.9235V39.1699C271.478 39.6665 271.354 40.07 271.074 40.3493C270.794 40.5666 270.39 40.7218 269.862 40.7218ZM269.831 29.8275C269.831 28.5549 270.142 27.4065 270.763 26.4133C271.385 25.3891 272.224 24.6131 273.312 23.9924C274.369 23.4027 275.551 23.0923 276.825 23.0923C278.1 23.0923 279.063 23.3096 279.685 23.713C280.307 24.1165 280.556 24.6131 280.4 25.2029C280.338 25.5132 280.214 25.7305 280.027 25.8857C279.841 26.0409 279.623 26.134 279.405 26.1961C279.157 26.2271 278.908 26.2271 278.628 26.165C277.26 25.8857 276.048 25.8547 274.96 26.103C273.872 26.3513 273.033 26.7858 272.38 27.4065C271.758 28.0583 271.447 28.8653 271.447 29.8275H269.831Z" fill="white"/>
<path d="M290.129 40.8458C288.637 40.8458 287.27 40.6286 285.995 40.163C284.72 39.6974 283.757 39.1388 283.042 38.4249C282.731 38.0835 282.575 37.711 282.638 37.2765C282.7 36.842 282.886 36.5006 283.259 36.2212C283.695 35.8798 284.099 35.7246 284.534 35.7867C284.938 35.8488 285.311 36.035 285.591 36.3454C285.964 36.7489 286.523 37.1213 287.332 37.4627C288.14 37.8041 289.01 37.9904 290.005 37.9904C291.249 37.9904 292.181 37.7731 292.834 37.3696C293.487 36.9661 293.829 36.4385 293.829 35.8177C293.86 35.1659 293.549 34.6383 292.927 34.1727C292.306 33.7072 291.155 33.3347 289.508 33.0243C287.363 32.5898 285.808 31.969 284.845 31.1C283.881 30.262 283.384 29.2067 283.384 27.9652C283.384 26.8788 283.695 25.9787 284.347 25.2649C285 24.551 285.808 24.0234 286.803 23.6819C287.798 23.3405 288.855 23.1543 289.943 23.1543C291.342 23.1543 292.585 23.3716 293.673 23.8371C294.761 24.2717 295.632 24.8924 296.253 25.6994C296.564 26.0408 296.689 26.3822 296.658 26.7547C296.627 27.1271 296.44 27.4375 296.129 27.6858C295.787 27.9341 295.383 27.9962 294.917 27.9031C294.45 27.81 294.046 27.6237 293.735 27.3444C293.207 26.8478 292.616 26.4753 292.026 26.2891C291.404 26.1029 290.689 26.0098 289.881 26.0098C288.948 26.0098 288.14 26.165 287.487 26.4753C286.834 26.7857 286.523 27.2513 286.523 27.872C286.523 28.2445 286.617 28.5859 286.834 28.8963C287.021 29.2067 287.425 29.486 288.047 29.7343C288.637 29.9826 289.508 30.2309 290.658 30.4482C292.243 30.7586 293.518 31.1621 294.45 31.6587C295.383 32.1553 296.036 32.7139 296.44 33.3657C296.844 34.0175 297.062 34.7624 297.062 35.6005C297.062 36.5626 296.813 37.4627 296.285 38.2387C295.756 39.0146 295.01 39.6664 293.984 40.132C292.896 40.5975 291.653 40.8458 290.129 40.8458Z" fill="white"/>
<path d="M9.04596 20.3919C9.07705 20.3609 9.07705 20.3299 9.10814 20.2988C11.6883 10.3978 21.0453 2.07963 34.1327 0.62085C17.0663 0.931228 3.54366 13.6567 4.47625 29.9206C5.03581 39.4802 10.5381 47.7983 18.5584 52.2988C9.91638 44.3221 6.06166 32.2484 9.04596 20.3919Z" fill="#FF8930"/>
<path d="M47.8732 60.0272C37.6457 62.355 26.6411 59.6858 18.5586 52.2367C10.5383 47.7362 5.03602 39.4181 4.47646 29.8584C3.54387 13.4705 17.2219 0.90014 34.1329 0.558724C35.9981 0.341459 37.0551 0.372497 37.0551 0.341459C37.0551 0.341459 22.0714 -2.66921 10.0099 8.06988C-10.0098 25.8856 1.61651 60.5859 30.7134 63.4103C33.418 63.6276 38.4229 63.2862 43.4278 61.7032C43.3967 61.7032 43.3967 61.7032 43.3656 61.7032C43.4589 61.6722 43.5521 61.6412 43.6454 61.6101C45.1065 61.2377 46.5364 60.679 47.8732 60.0272Z" fill="#FF8930"/>
<path d="M18.5583 52.2677C22.1333 54.2541 26.1745 55.4957 30.5577 55.775C69.3225 58.1028 79.1459 -6.54897 27.2315 27.5306C29.0345 28.4307 37.9563 23.806 46.1942 22.3783C49.3029 21.8506 54.3389 21.4782 56.2662 23.9612C58.1003 26.3201 57.1056 30.7275 55.831 33.5829C52.9089 40.3182 46.847 44.7255 43.6762 45.967C35.0963 49.3502 26.0813 48.7915 20.2059 45.7498C10.9422 40.9079 6.4968 30.1688 9.07698 20.2988C9.04589 20.3298 9.04589 20.3608 9.01481 20.3919C6.06159 32.2173 9.91631 44.291 18.5583 52.2677Z" fill="url(#paint0_linear_481_9812)"/>
<path d="M63.3541 16.1708C49.4585 4.43847 24.123 25.9787 27.2006 27.5306C79.1149 -6.51788 69.3227 58.1029 30.5268 55.775C26.1747 55.4957 22.1024 54.2542 18.5274 52.2678C26.6099 59.6858 37.6145 62.3861 47.842 60.0583C67.8616 50.7779 74.9183 25.7925 63.3541 16.1708Z" fill="url(#paint1_linear_481_9812)"/>
<path d="M34.1017 55.8061C61.209 54.5645 72.1826 19.9884 53.9659 17.7227C72.1515 19.9884 61.209 54.5645 34.1017 55.8061Z" fill="url(#paint2_linear_481_9812)"/>
<path d="M34.1017 55.8061C61.209 54.5645 72.1826 19.9884 53.9659 17.7227C72.1515 19.9884 61.209 54.5645 34.1017 55.8061Z" fill="url(#paint3_linear_481_9812)"/>
<path d="M34.1017 55.8061C61.209 54.5645 72.1826 19.9884 53.9659 17.7227C72.1515 19.9884 61.209 54.5645 34.1017 55.8061Z" fill="url(#paint4_linear_481_9812)"/>
<path d="M179.804 64.0001C178.84 64.0001 178.063 63.7208 177.41 63.1931C176.757 62.6655 176.446 61.9206 176.446 60.9894C176.446 60.0583 176.975 59.1271 178.032 58.196C179.058 57.2959 180.363 56.551 181.949 55.9923C183.472 55.4336 184.964 55.1853 186.487 55.1853C187.171 55.1853 187.762 55.2474 188.259 55.3716C188.321 55.2164 188.353 55.0612 188.353 54.937C188.353 54.4715 188.29 54.1611 188.197 53.9438C187.669 54.4404 187.171 54.6887 186.736 54.6887C186.301 54.6887 185.928 54.4715 185.586 54.068C185.244 53.6335 185.088 53.1989 185.088 52.7334C185.088 51.7712 185.617 50.809 186.674 49.7848C186.674 49.0088 186.767 48.4812 186.923 48.2018C187.109 47.9225 187.42 47.7983 187.886 47.7983C188.384 47.7983 188.881 48.2329 189.441 49.133C190.435 49.3192 190.902 49.6606 190.902 50.2193C190.902 50.4366 190.808 50.5917 190.653 50.7159C190.497 50.84 190.404 50.84 190.404 50.7159C190.529 50.6228 190.622 50.4986 190.622 50.3745C190.622 49.971 190.28 49.7537 189.627 49.7537C189.627 49.8158 189.658 49.8779 189.658 49.9399C189.658 50.002 189.658 50.0951 189.658 50.1883C189.658 51.4918 189.254 52.6402 188.477 53.6335C188.694 54.0059 188.788 54.5335 188.788 55.1543C188.788 55.2164 188.788 55.2785 188.788 55.3405C188.788 55.4026 188.788 55.4647 188.757 55.5268C189.316 55.744 189.782 56.0544 190.156 56.4269C190.529 56.7993 190.715 57.1407 190.715 57.4821C190.715 57.8236 190.622 57.9788 190.466 57.9788C190.435 57.9788 190.404 57.9477 190.373 57.8546C190.497 57.6994 190.529 57.5753 190.529 57.4201C190.529 57.1407 190.342 56.8614 189.969 56.551C189.596 56.2406 189.192 56.0544 188.757 55.9303C188.601 57.2959 188.073 58.6305 187.171 59.9031C186.27 61.1446 185.182 62.1378 183.845 62.8827C182.602 63.5966 181.234 64.0001 179.804 64.0001ZM179.462 63.131C180.425 63.131 181.358 62.9448 182.291 62.5724C183.223 62.1999 184.094 61.6412 184.964 60.8653C186.643 59.3755 187.731 57.6684 188.197 55.7751C188.042 55.744 187.824 55.713 187.606 55.713C187.389 55.6819 187.14 55.6819 186.829 55.6819C185.524 55.6819 184.249 55.8371 183.006 56.1786C181.762 56.52 180.674 56.9545 179.773 57.4511C178.871 57.9788 178.156 58.5374 177.628 59.1271C177.348 59.4375 177.161 59.7479 177.006 60.0583C176.882 60.3997 176.788 60.7101 176.788 60.9894C176.788 61.5791 177.006 62.0757 177.472 62.4792C178.001 62.9138 178.622 63.131 179.462 63.131ZM186.736 54.4094C187.202 54.4094 187.669 54.068 188.073 53.4162L187.016 50.8711C186.736 51.1504 186.487 51.5539 186.239 52.0195C186.021 52.5161 185.897 52.9506 185.897 53.3231C185.897 54.068 186.176 54.4094 186.736 54.4094ZM187.047 49.4433C187.482 49.133 187.917 49.0088 188.321 49.0088H188.477C188.29 48.5743 188.011 48.326 187.606 48.326C187.233 48.2949 187.047 48.6674 187.047 49.4433ZM188.29 53.1058C188.788 52.3919 189.036 51.616 189.036 50.7469C189.036 50.3745 188.974 50.0331 188.85 49.7227C188.632 49.8158 188.29 49.971 187.855 50.1883C187.42 50.4055 187.233 50.5607 187.233 50.6538C187.202 50.778 187.544 51.585 188.29 53.1058Z" fill="#0098DC"/>
<path d="M191.865 54.6887C191.741 54.6887 191.616 54.6577 191.461 54.5956C191.305 54.5336 191.243 54.4404 191.243 54.3473C191.243 54.1301 191.461 53.292 191.927 51.8953C192.362 50.4676 192.611 49.4123 192.611 48.6985C192.611 48.4812 192.518 48.357 192.331 48.326C192.145 48.295 192.051 48.2639 192.051 48.2019C192.051 48.0777 192.145 48.0156 192.362 48.0156C193.264 48.0156 193.73 48.3881 193.73 49.133C193.73 49.3503 193.513 50.1572 193.046 51.5539C193.792 50.3435 194.601 49.5365 195.502 49.0709C195.72 48.5743 196.062 48.326 196.466 48.326C196.87 48.326 197.088 48.357 197.119 48.4191C197.119 48.4191 197.088 48.4191 197.025 48.4812C196.994 48.5433 196.932 48.6053 196.87 48.6674C196.652 48.9778 196.466 49.2882 196.31 49.5675C196.155 49.8469 196.062 50.0952 196.031 50.2503C196.031 50.6228 196.155 50.8401 196.404 50.9332C196.435 50.9332 196.466 50.9642 196.497 50.9642C196.528 50.9642 196.559 50.9642 196.559 50.9953C196.559 51.1194 196.435 51.1504 196.155 51.1504C195.906 51.1504 195.658 51.0573 195.471 50.8401C195.347 50.7159 195.284 50.5918 195.253 50.4366C195.222 50.2814 195.191 50.1572 195.191 50.0331C195.191 49.8158 195.222 49.6296 195.284 49.4434C194.943 49.6917 194.632 49.971 194.352 50.2503C194.072 50.5297 193.823 50.809 193.606 51.0884C193.171 51.647 192.86 52.1436 192.704 52.5782C192.549 53.0127 192.425 53.3852 192.331 53.6645C192.238 54.0059 192.176 54.2542 192.114 54.4094C192.052 54.6267 191.989 54.6887 191.865 54.6887Z" fill="#0098DC"/>
<path d="M198.021 54.8129C197.741 54.8129 197.492 54.6888 197.275 54.4405C197.057 54.1922 196.933 53.8507 196.933 53.4783C196.933 53.0748 197.181 52.4851 197.648 51.6471C198.114 50.8401 198.705 50.0952 199.42 49.4434C200.104 48.7916 200.694 48.4812 201.192 48.4812H201.409C201.907 48.4812 202.342 48.5743 202.684 48.7916C203.026 48.9778 203.212 49.2571 203.212 49.5675C203.212 49.7227 203.15 49.7848 203.026 49.7848C202.995 49.7848 202.964 49.7538 202.964 49.7227C202.746 49.2261 202.404 48.9778 201.969 48.9778C201.192 48.9778 200.321 49.6296 199.326 50.9022C198.332 52.1437 197.834 53.1058 197.834 53.7887C197.834 54.037 197.896 54.1922 198.052 54.1922C198.674 54.1922 199.948 52.8265 201.907 50.0331C201.907 50.0331 201.907 50.0331 201.938 50.0331C201.969 50.0021 202 50.0021 202.031 50.0021C202.093 50.0021 202.248 50.0641 202.466 50.2193C202.684 50.3435 202.808 50.4366 202.808 50.5607C202.684 50.747 202.59 50.9022 202.528 51.0884C202.311 51.5539 202.155 51.9885 202.031 52.454C201.907 52.8886 201.844 53.2921 201.844 53.6024C201.844 54.3163 202.031 54.6888 202.373 54.6888L202.59 54.6577L202.622 54.6888C202.622 54.8129 202.466 54.875 202.124 54.875C201.782 54.875 201.534 54.7198 201.316 54.4405C201.098 54.1301 201.005 53.7266 201.005 53.199C201.005 52.7023 201.098 52.1437 201.285 51.5229C201.285 51.5539 201.223 51.6471 201.129 51.7402C201.036 51.8643 200.912 52.0506 200.756 52.2989C199.544 53.9439 198.674 54.8129 198.021 54.8129Z" fill="#0098DC"/>
<path d="M206.01 54.875C204.859 54.875 204.269 54.3474 204.269 53.2611C204.269 52.4541 204.673 51.4298 205.481 50.2504C206.32 49.0399 207.098 48.4502 207.875 48.4502C208.154 48.4502 208.434 48.5433 208.714 48.7606C208.994 48.9468 209.149 49.1641 209.149 49.4124C209.149 50.0642 208.932 50.3745 208.496 50.3745C208.372 50.3745 208.31 50.3435 208.279 50.2814C208.434 49.8779 208.528 49.5676 208.528 49.3503C208.528 49.133 208.465 49.0089 208.372 49.0089C208.217 49.0089 207.937 49.1641 207.564 49.4744C207.222 49.7538 206.911 50.0642 206.6 50.4056C206.32 50.747 206.041 51.1194 205.823 51.5229C205.326 52.361 205.077 53.0438 205.077 53.6025C205.077 54.1612 205.295 54.4095 205.699 54.4095C206.196 54.4095 206.724 54.1612 207.315 53.6645C207.502 53.4783 207.719 53.2921 207.937 53.0748C208.154 52.8576 208.403 52.6093 208.652 52.3299C209.149 51.7712 209.429 51.5229 209.46 51.5229C209.553 51.5229 209.584 51.554 209.584 51.6161C209.584 51.6781 209.584 51.7402 209.553 51.8023C208.123 53.8508 206.942 54.875 206.01 54.875Z" fill="#0098DC"/>
<path d="M211.978 54.875C210.828 54.875 210.237 54.3474 210.237 53.261C210.237 52.423 210.641 51.4298 211.45 50.2504C212.289 49.0709 213.097 48.4812 213.874 48.4812C214.216 48.4812 214.496 48.5743 214.745 48.7916C214.994 49.0088 215.118 49.2571 215.118 49.5675C215.118 50.0641 214.807 50.5918 214.154 51.0884C213.533 51.585 212.911 51.8333 212.289 51.8333C212.165 51.8333 212.103 51.8022 212.103 51.7402L212.165 51.6471C213.719 51.1505 214.527 50.3435 214.527 49.2261C214.527 49.0709 214.465 48.9778 214.372 48.9778C214.216 48.9778 213.937 49.133 213.564 49.4434C213.222 49.7227 212.911 50.0331 212.6 50.3745C212.32 50.7159 212.04 51.0884 211.823 51.4919C211.325 52.3299 211.077 53.0127 211.077 53.5714C211.077 54.1301 211.294 54.3784 211.698 54.3784C212.196 54.3784 212.724 54.1301 213.315 53.6335C213.501 53.4473 213.719 53.261 213.937 53.0438C214.154 52.8265 214.403 52.5782 214.652 52.2989C215.149 51.7402 215.429 51.4919 215.46 51.4919C215.553 51.4919 215.584 51.5229 215.584 51.585C215.584 51.6471 215.584 51.7091 215.553 51.7712C214.092 53.8507 212.911 54.875 211.978 54.875Z" fill="#0098DC"/>
<path d="M221.926 55.0302C221.335 55.0302 221.025 54.7198 221.025 54.068C221.025 53.5094 221.211 52.7334 221.584 51.8333C221.739 51.4919 221.895 51.1194 222.019 50.778C222.175 50.4366 222.33 50.0331 222.517 49.5675C222.05 49.3813 221.833 49.133 221.833 48.7606C221.833 48.6364 221.864 48.5743 221.926 48.5433C222.144 48.6364 222.454 48.6985 222.859 48.7606C223.294 47.7674 223.543 47.1156 223.543 46.8362C223.543 46.5258 223.48 46.4017 223.387 46.4017L222.983 46.4948C222.952 46.4948 222.921 46.4638 222.921 46.4327C222.921 46.3396 223.014 46.2465 223.169 46.1844C223.325 46.1223 223.449 46.0913 223.543 46.0913C224.133 46.0913 224.444 46.4327 224.444 47.1156C224.444 47.5191 224.32 48.0157 224.071 48.6675C224.133 48.7295 224.382 48.7606 224.817 48.7606C225.252 48.7606 225.594 48.6985 225.843 48.6054C226.061 48.4812 226.216 48.4502 226.309 48.4502C226.34 48.4502 226.371 48.4502 226.371 48.4812C226.371 48.5123 226.34 48.5743 226.278 48.6364C225.998 48.8847 225.656 49.102 225.252 49.2572C224.879 49.4434 224.413 49.5675 223.916 49.6296H223.853C223.853 49.6296 223.822 49.6296 223.791 49.6296C223.76 49.6296 223.698 49.6607 223.636 49.6917C222.392 52.1437 221.771 53.7266 221.771 54.3784C221.771 54.5957 221.864 54.7198 222.019 54.7198L222.579 54.5957L222.61 54.6267C222.61 54.9061 222.392 55.0302 221.926 55.0302Z" fill="#0098DC"/>
<path d="M227.832 54.6576C226.713 54.6576 226.185 54.0679 226.185 52.9195C226.185 52.4539 226.278 51.9573 226.496 51.4297C226.713 50.902 226.962 50.4675 227.273 50.1571C227.117 49.9088 227.055 49.5674 227.055 49.195C227.055 48.7915 227.211 48.45 227.553 48.1086C227.894 47.7672 228.268 47.6431 228.765 47.6431C229.635 47.6431 230.257 48.1086 230.568 49.0398C231.221 49.1639 231.532 49.3191 231.532 49.4743C231.532 49.6916 231.469 49.7847 231.314 49.7847L230.817 49.6916C230.817 49.8157 230.848 49.9399 230.848 50.064C230.848 50.1882 230.848 50.2813 230.848 50.3434C230.848 51.4607 230.568 52.4539 229.977 53.354C229.418 54.2231 228.703 54.6576 227.832 54.6576ZM227.801 54.4093C228.361 54.4093 228.889 53.9748 229.387 53.1057C229.884 52.2367 230.133 51.3676 230.133 50.5606C230.133 50.2192 230.071 49.9088 229.946 49.6916C229.449 49.7847 228.889 50.0951 228.299 50.6537C228.423 50.7468 228.547 50.8089 228.641 50.7779C228.734 50.7779 228.765 50.7779 228.796 50.7779C228.858 50.7779 228.889 50.8089 228.889 50.871C228.889 50.9951 228.796 51.0262 228.609 51.0262C228.454 51.0262 228.299 50.9641 228.112 50.871C227.397 51.709 227.024 52.516 227.024 53.2609C226.993 54.0369 227.273 54.4093 227.801 54.4093ZM227.584 49.9709C228.516 49.2881 229.138 48.9156 229.511 48.9156H229.573C229.387 48.4501 229.014 48.2017 228.516 48.2017C228.299 48.2017 228.081 48.2949 227.957 48.4501C227.801 48.6052 227.708 48.7915 227.615 49.0087C227.553 49.226 227.521 49.4122 227.521 49.5984C227.49 49.7847 227.521 49.9088 227.584 49.9709Z" fill="#0098DC"/>
<path d="M234.329 63.7518C233.427 63.7518 232.992 63.3172 232.992 62.4171C232.992 61.3619 233.769 59.9652 235.293 58.227C236.909 56.4268 238.65 54.9681 240.546 53.9128C240.546 53.9128 240.577 53.9128 240.577 53.9438C240.577 54.0059 240.515 54.13 240.36 54.2852C235.759 58.1029 233.459 60.8653 233.459 62.5723C233.459 63.2241 233.707 63.5655 234.236 63.5655C235.137 63.5655 236.194 62.6965 237.438 60.9894C238.09 60.0893 238.681 59.1582 239.21 58.196C239.738 57.2338 240.204 56.2096 240.64 55.1853C241.075 54.099 241.417 53.1368 241.665 52.2988C241.883 51.4608 242.007 50.7159 242.007 50.0641C242.007 49.5985 241.914 49.2571 241.759 49.0709C239.956 50.9642 238.681 52.5471 237.966 53.8507C237.749 54.4094 237.531 54.7198 237.344 54.7198C236.94 54.7198 236.723 54.5956 236.723 54.3473C236.723 54.2542 236.785 54.0369 236.94 53.6334C237.096 53.2299 237.282 52.6713 237.531 51.9574L238.09 50.3745C238.308 49.8158 238.401 49.2571 238.401 48.7295V48.6363C238.401 48.4812 238.37 48.388 238.339 48.357C238.308 48.326 238.215 48.326 238.09 48.326C237.966 48.326 237.873 48.2949 237.873 48.2329C237.873 48.1087 237.997 48.0466 238.215 48.0466C239.085 48.0466 239.52 48.388 239.52 49.0398C239.52 49.3502 239.116 50.4986 238.308 52.5161C238.774 51.8643 239.458 51.0573 240.36 50.0951C241.292 49.1019 241.852 48.6363 242.07 48.6363C242.07 48.7605 242.007 48.8536 241.914 48.9778C242.536 49.0398 242.847 49.164 242.909 49.3813C242.94 49.5675 242.971 49.7227 242.971 49.8779C242.971 50.0331 243.002 50.1572 243.002 50.2503C243.002 51.5539 242.567 53.292 241.665 55.4336C240.671 57.7615 239.458 59.7479 238.059 61.3619C236.567 62.9448 235.355 63.7518 234.329 63.7518Z" fill="#0098DC"/>
<path d="M245.427 54.6576C244.308 54.6576 243.779 54.0679 243.779 52.9195C243.779 52.4539 243.873 51.9573 244.09 51.4297C244.308 50.902 244.557 50.4675 244.867 50.1571C244.712 49.9088 244.65 49.5674 244.65 49.195C244.65 48.7915 244.805 48.45 245.147 48.1086C245.489 47.7672 245.862 47.6431 246.36 47.6431C247.23 47.6431 247.852 48.1086 248.163 49.0398C248.815 49.1639 249.126 49.3191 249.126 49.4743C249.126 49.6916 249.064 49.7847 248.909 49.7847L248.411 49.6916C248.411 49.8157 248.442 49.9399 248.442 50.064C248.442 50.1882 248.442 50.2813 248.442 50.3434C248.442 51.4607 248.163 52.4539 247.572 53.354C246.981 54.2231 246.266 54.6576 245.427 54.6576ZM245.396 54.4093C245.955 54.4093 246.484 53.9748 246.981 53.1057C247.479 52.2367 247.727 51.3676 247.727 50.5606C247.727 50.2192 247.665 49.9088 247.541 49.6916C247.043 49.7847 246.484 50.0951 245.893 50.6537C246.018 50.7468 246.142 50.8089 246.235 50.7779C246.328 50.7779 246.36 50.7779 246.391 50.7779C246.453 50.7779 246.484 50.8089 246.484 50.871C246.484 50.9951 246.391 51.0262 246.204 51.0262C246.049 51.0262 245.893 50.9641 245.707 50.871C244.992 51.709 244.619 52.516 244.619 53.2609C244.588 54.0369 244.836 54.4093 245.396 54.4093ZM245.147 49.9709C246.08 49.2881 246.701 48.9156 247.075 48.9156H247.137C246.95 48.4501 246.577 48.2017 246.08 48.2017C245.862 48.2017 245.645 48.2949 245.52 48.4501C245.365 48.6052 245.272 48.7915 245.178 49.0087C245.116 49.226 245.085 49.4122 245.085 49.5984C245.085 49.7847 245.085 49.9088 245.147 49.9709Z" fill="#0098DC"/>
<path d="M254.94 54.937C254.536 54.937 254.225 54.7508 254.007 54.3783C253.914 54.1921 253.821 53.9748 253.759 53.7886C253.696 53.6024 253.665 53.323 253.665 53.0437C253.665 52.7643 253.696 52.454 253.759 52.1125C253.821 51.7711 253.883 51.3676 254.007 50.9021C253.479 51.7711 253.044 52.485 252.671 53.0126C252.329 53.5403 252.049 53.9438 251.862 54.161C251.52 54.5956 251.178 54.8439 250.805 54.8439C250.463 54.8439 250.184 54.7197 249.966 54.4714C249.748 54.2231 249.624 53.9438 249.624 53.6334C249.624 53.0747 249.935 52.1436 250.526 50.809C251.116 49.4743 251.427 48.7605 251.427 48.7605L251.241 48.388C251.241 48.357 251.303 48.3259 251.396 48.3259C251.52 48.3259 251.738 48.388 252.08 48.5432C252.422 48.6673 252.577 48.7915 252.577 48.8846C252.515 49.0088 252.391 49.2881 252.204 49.6606C252.018 50.033 251.769 50.5296 251.458 51.1504C250.868 52.4229 250.557 53.2609 250.557 53.6644C250.557 54.099 250.65 54.2852 250.836 54.2852C251.054 54.2852 251.365 54.0369 251.769 53.5403C251.987 53.2609 252.204 52.9816 252.391 52.7333C252.577 52.454 252.764 52.1746 252.981 51.8332L254.691 49.0708C254.909 48.7294 255.126 48.5742 255.344 48.5742C255.81 48.5742 256.059 48.6673 256.09 48.8536C256.059 48.8225 256.028 48.8536 255.997 48.9777C255.624 49.6606 255.282 50.4986 254.94 51.4918C254.629 52.454 254.505 53.0747 254.505 53.4161C254.505 54.2542 254.66 54.6576 254.94 54.6576C255.033 54.6576 255.22 54.5335 255.531 54.2852C255.562 54.2852 255.562 54.3473 255.562 54.4404C255.562 54.7508 255.344 54.937 254.94 54.937Z" fill="#0098DC"/>
<path d="M257.613 54.6887C257.489 54.6887 257.364 54.6577 257.209 54.5956C257.053 54.5336 256.991 54.4404 256.991 54.3473C256.991 54.1301 257.209 53.292 257.675 51.8953C258.11 50.4676 258.359 49.4123 258.359 48.6985C258.359 48.4812 258.266 48.357 258.079 48.326C257.893 48.295 257.8 48.2639 257.8 48.2019C257.8 48.0777 257.893 48.0156 258.11 48.0156C259.012 48.0156 259.478 48.3881 259.478 49.133C259.478 49.3503 259.261 50.1572 258.794 51.5539C259.54 50.3435 260.349 49.5365 261.25 49.0709C261.468 48.5743 261.81 48.326 262.214 48.326C262.618 48.326 262.836 48.357 262.867 48.4191C262.867 48.4191 262.836 48.4191 262.773 48.4812C262.742 48.5433 262.68 48.6053 262.618 48.6674C262.4 48.9778 262.214 49.2882 262.058 49.5675C261.903 49.8469 261.81 50.0952 261.779 50.2503C261.779 50.6228 261.903 50.8401 262.152 50.9332C262.183 50.9332 262.214 50.9642 262.245 50.9642C262.276 50.9642 262.307 50.9642 262.307 50.9953C262.307 51.1194 262.183 51.1504 261.903 51.1504C261.654 51.1504 261.406 51.0573 261.219 50.8401C261.095 50.7159 261.033 50.5918 261.001 50.4366C260.97 50.2814 260.939 50.1572 260.939 50.0331C260.939 49.8158 260.97 49.6296 261.033 49.4434C260.691 49.6917 260.38 49.971 260.1 50.2503C259.82 50.5297 259.571 50.809 259.354 51.0884C258.919 51.647 258.608 52.1436 258.452 52.5782C258.297 53.0127 258.173 53.3852 258.079 53.6645C257.986 54.0059 257.924 54.2542 257.862 54.4094C257.8 54.6267 257.737 54.6887 257.613 54.6887Z" fill="#0098DC"/>
<path d="M268.805 54.9679C268.276 54.9679 268.027 54.5955 268.027 53.8506C268.027 52.7332 268.432 51.2434 269.24 49.3811C269.24 49.3191 269.271 49.2259 269.364 49.0708C269.426 48.9156 269.488 48.8224 269.551 48.7914C269.644 48.6983 269.768 48.6362 269.924 48.6362C270.39 48.6362 270.67 48.7293 270.701 48.9156C270.483 49.257 270.266 49.6915 270.079 50.126C269.893 50.5916 269.675 51.0882 269.488 51.6469C269.271 52.2366 269.147 52.7332 269.053 53.1367C268.96 53.5402 268.929 53.8195 268.929 54.0678C268.929 54.4093 269.022 54.5644 269.209 54.5644C269.333 54.5644 269.488 54.5024 269.675 54.3472C269.83 54.223 269.924 54.1299 269.986 54.0678C270.048 54.0058 270.11 53.9747 270.172 53.9126C270.235 53.9126 270.266 53.9437 270.266 54.0058C270.266 54.161 270.079 54.3472 269.675 54.5644C269.24 54.8438 268.96 54.9679 268.805 54.9679ZM270.763 47.5189C270.452 47.5189 270.203 47.4257 270.017 47.2706C270.266 47.0843 270.545 46.8671 270.856 46.5877C271.136 46.3084 271.447 45.967 271.758 45.5635C271.789 45.5635 271.789 45.5945 271.789 45.6566L271.696 46.2463C271.633 46.6808 271.509 46.9912 271.323 47.2085C271.167 47.4257 270.981 47.5189 270.763 47.5189Z" fill="#0098DC"/>
<path d="M276.452 55.4026C275.83 55.4026 275.519 54.906 275.519 53.9438C275.519 53.3541 275.737 52.3298 276.172 50.809C275.892 51.3676 275.612 51.8643 275.332 52.2988C275.053 52.7333 274.773 53.1678 274.493 53.5403C273.871 54.3473 273.343 54.7508 272.908 54.7508C272.628 54.7508 272.348 54.5956 272.068 54.2542C271.789 53.9128 271.664 53.6024 271.664 53.323C271.664 52.454 272.131 51.4297 273.032 50.2503C273.965 49.0398 274.773 48.4191 275.519 48.4191C275.737 48.4191 275.923 48.4811 276.141 48.6053C276.389 48.7294 276.514 48.8536 276.514 49.0088C276.514 49.1329 276.452 49.164 276.327 49.164L275.923 48.9467C275.457 48.9467 274.742 49.6295 273.778 50.9952C272.814 52.3609 272.348 53.323 272.348 53.8817C272.348 54.099 272.41 54.1921 272.504 54.1921C272.628 54.1921 272.877 54.0369 273.25 53.7576C273.592 53.4472 274.089 52.9506 274.68 52.2677C275.301 51.5539 275.892 50.7779 276.545 49.8778C276.7 49.5054 276.887 49.0709 277.073 48.6053C277.26 48.1087 277.508 47.55 277.788 46.8672C277.788 46.8361 277.85 46.712 277.944 46.4947C278.037 46.2774 278.13 46.0291 278.255 45.7498C278.379 45.4705 278.472 45.2532 278.565 45.0359C278.659 44.8187 278.69 44.7256 278.69 44.6945C278.69 44.4773 278.565 44.3531 278.286 44.3531L277.602 44.5083C277.508 44.5083 277.446 44.4773 277.446 44.3841C277.446 44.1669 277.757 44.0427 278.379 44.0427C279.311 44.0427 279.778 44.3531 279.778 45.0049C279.778 45.2222 279.343 46.1843 278.503 47.8914C278.068 48.7915 277.726 49.4433 277.54 49.8468C277.353 50.2813 277.229 50.4986 277.229 50.5296C276.514 52.1126 276.141 53.3851 276.141 54.3162C276.141 54.8749 276.265 55.1543 276.545 55.1543L277.167 54.937L277.229 54.968C277.229 55.0612 277.135 55.1543 276.918 55.2474C276.7 55.3715 276.545 55.4026 276.452 55.4026Z" fill="#0098DC"/>
<path d="M280.586 54.875C279.435 54.875 278.845 54.3474 278.845 53.261C278.845 52.423 279.249 51.4298 280.057 50.2504C280.897 49.0709 281.705 48.4812 282.482 48.4812C282.824 48.4812 283.104 48.5743 283.352 48.7916C283.601 49.0088 283.725 49.2571 283.725 49.5675C283.725 50.0641 283.415 50.5918 282.762 51.0884C282.14 51.585 281.518 51.8333 280.897 51.8333C280.772 51.8333 280.71 51.8022 280.71 51.7402L280.772 51.6471C282.327 51.1505 283.135 50.3435 283.135 49.2261C283.135 49.0709 283.073 48.9778 282.979 48.9778C282.824 48.9778 282.544 49.133 282.171 49.4434C281.829 49.7227 281.518 50.0331 281.207 50.3745C280.928 50.7159 280.648 51.0884 280.43 51.4919C279.933 52.3299 279.684 53.0127 279.684 53.5714C279.684 54.1301 279.902 54.3784 280.306 54.3784C280.803 54.3784 281.332 54.1301 281.922 53.6335C282.109 53.4473 282.327 53.261 282.544 53.0438C282.762 52.8265 283.01 52.5782 283.259 52.2989C283.757 51.7402 284.036 51.4919 284.067 51.4919C284.161 51.4919 284.192 51.5229 284.192 51.585C284.192 51.6471 284.192 51.7091 284.161 51.7712C282.731 53.8507 281.549 54.875 280.586 54.875Z" fill="#0098DC"/>
<path d="M285.684 54.8129C285.404 54.8129 285.155 54.6888 284.938 54.4405C284.72 54.1922 284.596 53.8507 284.596 53.4783C284.596 53.0748 284.844 52.4851 285.311 51.6471C285.777 50.8401 286.368 50.0952 287.083 49.4434C287.767 48.7916 288.357 48.4812 288.855 48.4812H289.072C289.57 48.4812 290.005 48.5743 290.347 48.7916C290.689 48.9778 290.875 49.2571 290.875 49.5675C290.875 49.7227 290.813 49.7848 290.689 49.7848C290.658 49.7848 290.627 49.7538 290.627 49.7227C290.409 49.2261 290.067 48.9778 289.632 48.9778C288.855 48.9778 287.984 49.6296 286.989 50.9022C285.995 52.1437 285.497 53.1058 285.497 53.7887C285.497 54.037 285.559 54.1922 285.715 54.1922C286.337 54.1922 287.611 52.8265 289.57 50.0331C289.57 50.0331 289.57 50.0331 289.601 50.0331C289.632 50.0021 289.663 50.0021 289.694 50.0021C289.756 50.0021 289.912 50.0641 290.129 50.2193C290.347 50.3435 290.471 50.4366 290.471 50.5607C290.347 50.747 290.254 50.9022 290.191 51.0884C289.974 51.5539 289.818 51.9885 289.694 52.454C289.57 52.8886 289.507 53.2921 289.507 53.6024C289.507 54.3163 289.694 54.6888 290.036 54.6888L290.254 54.6577L290.285 54.6888C290.285 54.8129 290.129 54.875 289.787 54.875C289.445 54.875 289.197 54.7198 288.979 54.4405C288.761 54.1301 288.668 53.7266 288.668 53.199C288.668 52.7023 288.761 52.1437 288.948 51.5229C288.948 51.5539 288.886 51.6471 288.792 51.7402C288.699 51.8643 288.575 52.0506 288.419 52.2989C287.207 53.9439 286.337 54.8129 285.684 54.8129Z" fill="#0098DC"/>
<path d="M293.27 55.1231C292.928 55.1231 292.617 55.0611 292.368 54.9369C292.12 54.8128 291.995 54.6886 291.995 54.5955C293.55 54.2541 294.358 53.8816 294.358 53.4161C294.358 53.3229 294.171 53.1057 293.798 52.7953C293.083 52.1745 292.741 51.4607 292.741 50.6847C292.741 50.126 293.083 49.5674 293.798 49.0397C294.513 48.481 295.166 48.1707 295.757 48.1707C295.85 48.1707 296.036 48.3258 296.316 48.6052C296.596 48.8845 296.751 49.0708 296.751 49.1328C296.751 49.1949 296.72 49.257 296.658 49.257C296.503 49.2259 296.378 49.1949 296.285 49.1949C296.192 49.1639 296.13 49.1639 296.068 49.1639C295.446 49.1639 294.824 49.3811 294.171 49.8467C293.518 50.2812 293.208 50.7468 293.208 51.2124C293.208 51.3055 293.518 51.709 294.171 52.4539C294.824 53.1677 295.135 53.6644 295.135 53.9437C295.135 54.223 294.948 54.4713 294.575 54.7507C294.358 54.8748 294.171 54.999 293.923 55.0611C293.674 55.0921 293.456 55.1231 293.27 55.1231Z" fill="#0098DC"/>
</g>
<defs>
<linearGradient id="paint0_linear_481_9812" x1="49.2673" y1="49.618" x2="26.2215" y2="19.669" gradientUnits="userSpaceOnUse">
<stop stop-color="#00ADEE"/>
<stop offset="1" stop-color="#0073BB"/>
</linearGradient>
<linearGradient id="paint1_linear_481_9812" x1="44.0702" y1="-0.0591398" x2="43.6782" y2="48.2169" gradientUnits="userSpaceOnUse">
<stop stop-color="#00ADEE"/>
<stop offset="1" stop-color="#0073BB"/>
</linearGradient>
<linearGradient id="paint2_linear_481_9812" x1="53.4718" y1="46.3846" x2="30.4246" y2="16.4338" gradientUnits="userSpaceOnUse">
<stop stop-color="#00ADEE"/>
<stop offset="1" stop-color="#0073BB"/>
</linearGradient>
<linearGradient id="paint3_linear_481_9812" x1="48.8531" y1="-0.0207612" x2="48.4611" y2="48.2541" gradientUnits="userSpaceOnUse">
<stop stop-color="#00ADEE"/>
<stop offset="1" stop-color="#0073BB"/>
</linearGradient>
<linearGradient id="paint4_linear_481_9812" x1="58.8491" y1="53.3508" x2="28.2012" y2="13.5225" gradientUnits="userSpaceOnUse">
<stop stop-color="#00ADEE"/>
<stop offset="1" stop-color="#0073BB"/>
</linearGradient>
<clipPath id="clip0_481_9812">
<rect width="297" height="64" fill="white"/>
</clipPath>
</defs>
</svg>
