<svg width="32" height="32" viewBox="0 0 32 32" fill="none" xmlns="http://www.w3.org/2000/svg">
<path d="M28.6663 11.3173V22.5C28.6663 24.4333 27.0997 26 25.1663 26H6.83301C5.90475 26 5.01451 25.6313 4.35813 24.9749C3.70176 24.3185 3.33301 23.4283 3.33301 22.5V11.3173L15.5983 18.064C15.8483 18.2013 16.1517 18.2013 16.401 18.064L28.6663 11.3167V11.3173ZM25.1663 6C26.08 6.00008 26.9574 6.35744 27.6111 6.99572C28.2649 7.634 28.6431 8.50261 28.665 9.416L15.9997 16.3827L3.33434 9.41533L3.33567 9.35533C3.37301 8.45284 3.75781 7.59972 4.40961 6.97438C5.06142 6.34905 5.92974 5.99992 6.83301 6H25.1663Z" fill="#FF8930"/>
</svg>
