<svg width="58" height="64" viewBox="0 0 58 64" fill="none" xmlns="http://www.w3.org/2000/svg">
<path d="M34.5188 9.71955C35.7882 8.45725 36.7687 6.93454 37.3926 5.2565C38.0164 3.57846 38.2688 1.78504 38.1322 0C34.2862 0.284605 30.6641 1.91744 27.904 4.61081C25.658 6.8949 23.6907 10.5342 24.216 14.0334C26.1403 14.0805 28.0527 13.7205 29.8282 12.9771C31.6037 12.2337 33.2021 11.1236 34.5188 9.71955V9.71955ZM41.9542 34.3512C41.9654 31.9481 42.5813 29.5866 43.7453 27.4842C44.9093 25.3819 46.5839 23.6065 48.6146 22.3216C47.3577 20.469 45.6831 18.9374 43.7259 17.8504C41.7687 16.7633 39.5836 16.1512 37.3465 16.0632C32.5377 15.5607 27.971 18.9564 25.5301 18.9564C23.0892 18.9564 19.3387 16.1302 15.3507 16.2064C12.7159 16.2925 10.1499 17.0693 7.90961 18.4589C5.66936 19.8485 3.83346 21.8023 2.58569 24.1245C-2.85957 33.7908 1.18936 48.1074 6.49605 55.9495C9.08468 59.7867 12.1789 64.093 16.2415 63.9377C20.1549 63.7854 21.6319 61.3491 26.357 61.3491C31.082 61.3491 32.4006 63.9544 36.5288 63.8722C40.736 63.7961 43.3962 59.9588 45.9697 56.1063C47.8123 53.3292 49.251 50.3042 50.2424 47.1222C47.7707 46.0261 45.6716 44.234 44.2014 41.9648C42.7313 39.6956 41.9536 37.0474 41.9634 34.3435L41.9542 34.3512Z" fill="#CCD0D2"/>
<path d="M14.1505 34.3329C16.0654 34.3329 17.3679 32.8944 17.3679 30.9795C17.3679 29.0647 16.0654 27.6261 14.1505 27.6261C12.226 27.6261 10.9332 29.0647 10.9332 30.9795C10.9332 32.8944 12.226 34.3329 14.1505 34.3329ZM14.1505 33.6137C12.6925 33.6137 11.7691 32.4861 11.7691 30.9795C11.7691 29.4632 12.6925 28.3454 14.1505 28.3454C15.5988 28.3454 16.5319 29.4632 16.5319 30.9795C16.5319 32.4861 15.5988 33.6137 14.1505 33.6137ZM19.3279 32.943V30.8143C19.5806 30.4061 20.1541 30.0561 20.7276 30.0561C21.6801 30.0561 22.2439 30.8337 22.2439 31.8738C22.2439 32.9138 21.6801 33.6817 20.7276 33.6817C20.1541 33.6817 19.5806 33.3512 19.3279 32.943ZM19.3279 34.2163V33.5165C19.6778 33.9927 20.2513 34.3329 20.9122 34.3329C22.137 34.3329 23.002 33.3998 23.002 31.8738C23.002 30.3769 22.137 29.4049 20.9122 29.4049C20.2707 29.4049 19.707 29.7159 19.3279 30.2311V27.7331H18.5989V34.2163H19.3279ZM24.5494 28.8509C24.8216 28.8509 25.0451 28.637 25.0451 28.3649C25.0451 28.0927 24.8216 27.8691 24.5494 27.8691C24.287 27.8691 24.0634 28.0927 24.0634 28.3649C24.0634 28.637 24.287 28.8509 24.5494 28.8509ZM23.5288 36.1214C24.4231 36.1214 24.9188 35.5965 24.9188 34.6731V29.5215H24.1898V34.6731C24.1898 35.2661 23.869 35.5188 23.4316 35.5188C23.14 35.5188 22.9262 35.3827 22.7609 35.2175L22.4985 35.7715C22.7998 36.0048 23.0525 36.1214 23.5288 36.1214Z" fill="white"/>
<path d="M48.9614 35.934C50.3774 35.934 51.3374 35.262 52.0094 34.35L51.1574 33.882C50.7014 34.566 49.8734 35.046 48.9614 35.046C47.2094 35.046 45.8774 33.69 45.8774 31.794C45.8774 29.886 47.2094 28.542 48.9614 28.542C49.8734 28.542 50.7014 29.034 51.1574 29.706L51.9974 29.238C51.3614 28.338 50.3774 27.654 48.9614 27.654C46.6574 27.654 44.8454 29.334 44.8454 31.794C44.8454 34.254 46.6574 35.934 48.9614 35.934Z" fill="#CCD0D2"/>
</svg>
