<svg width="61" height="60" viewBox="0 0 61 60" fill="none" xmlns="http://www.w3.org/2000/svg">
<g clip-path="url(#clip0_480_5049)">
<path d="M10.8021 0.00610352H50.1979C56.1708 0.00610352 61 4.8769 61 10.9013V49.0986C61 55.123 56.1708 59.9938 50.1979 59.9938H10.8021C4.82916 59.9938 0 55.123 0 49.0986V10.9013C0 4.8769 4.82916 0.00610352 10.8021 0.00610352Z" fill="#001E36"/>
<path d="M13.7246 42.0745V15.6953C13.7246 15.5159 13.8009 15.4133 13.9788 15.4133C14.4109 15.4133 14.8175 15.4133 15.4021 15.3877C16.0121 15.3621 16.6475 15.3621 17.3338 15.3364C18.02 15.3108 18.7571 15.3108 19.545 15.2852C20.3329 15.2595 21.0954 15.2595 21.858 15.2595C23.9421 15.2595 25.6705 15.5159 27.0938 16.0542C28.3646 16.49 29.5338 17.2078 30.4996 18.1564C31.313 18.9767 31.9484 19.9765 32.355 21.0788C32.7363 22.1555 32.9396 23.2579 32.9396 24.4115C32.9396 26.6162 32.4313 28.4363 31.4146 29.8719C30.398 31.3075 28.9746 32.3842 27.3225 32.9994C25.5942 33.6403 23.688 33.8711 21.6038 33.8711C20.9938 33.8711 20.5871 33.8711 20.3329 33.8454C20.0788 33.8198 19.7229 33.8198 19.24 33.8198V42.0489C19.2654 42.2283 19.1384 42.3821 18.9604 42.4078H14.0296C13.8263 42.4078 13.7246 42.3052 13.7246 42.0745ZM19.2654 20.361V28.9746C19.6213 29.0003 19.9517 29.0259 20.2567 29.0259H21.6038C22.595 29.0259 23.5863 28.8721 24.5267 28.5645C25.34 28.3337 26.0517 27.8467 26.6109 27.2058C27.1446 26.5649 27.3988 25.6933 27.3988 24.5653C27.4242 23.7706 27.2209 22.9759 26.8142 22.2837C26.3821 21.6172 25.7721 21.1045 25.035 20.8225C24.0946 20.4379 23.078 20.2841 22.0359 20.3098C21.375 20.3098 20.7904 20.3098 20.3075 20.3354C19.7992 20.3098 19.4434 20.3354 19.2654 20.361V20.361ZM48.7996 27.4109C48.0371 27.0007 47.2238 26.7187 46.3596 26.5392C45.4192 26.3342 44.4788 26.206 43.513 26.206C43.0046 26.1803 42.4709 26.2573 41.988 26.3854C41.6576 26.4623 41.378 26.6418 41.2001 26.8981C41.073 27.1032 40.9967 27.3596 40.9967 27.5903C40.9967 27.821 41.0984 28.0518 41.2509 28.2568C41.4796 28.5388 41.7846 28.7696 42.1151 28.949C42.6996 29.2566 43.3096 29.5386 43.9196 29.795C45.2921 30.2564 46.6138 30.8973 47.8338 31.6664C48.6726 32.2047 49.3588 32.9225 49.8417 33.7942C50.2484 34.6145 50.4517 35.5118 50.4263 36.4346C50.4517 37.6395 50.0959 38.8444 49.4351 39.8442C48.7234 40.8696 47.7321 41.6643 46.5884 42.1258C45.343 42.6641 43.818 42.9461 41.988 42.9461C40.8188 42.9461 39.6751 42.8436 38.5313 42.6128C37.6417 42.459 36.7521 42.177 35.9388 41.7925C35.7609 41.69 35.6338 41.5105 35.6592 41.3054V36.8448C35.6592 36.7679 35.6846 36.6654 35.7609 36.6141C35.8371 36.5628 35.9134 36.5885 35.9896 36.6397C36.9809 37.2293 38.023 37.6395 39.1413 37.8959C40.1071 38.1522 41.1238 38.2804 42.1405 38.2804C43.1063 38.2804 43.7926 38.1522 44.2501 37.9215C44.6567 37.7421 44.9363 37.3063 44.9363 36.8448C44.9363 36.4859 44.733 36.1526 44.3263 35.8194C43.9196 35.4861 43.0809 35.1016 41.8355 34.6145C40.5392 34.1531 39.3446 33.5378 38.2263 32.7687C37.4384 32.2047 36.7775 31.4613 36.2946 30.5897C35.888 29.7693 35.6846 28.8721 35.71 27.9748C35.71 26.8725 36.015 25.8214 36.5742 24.8729C37.2096 23.8475 38.15 23.0271 39.243 22.5144C40.4375 21.8992 41.9371 21.6172 43.7417 21.6172C44.7838 21.6172 45.8513 21.6941 46.8934 21.8479C47.6559 21.9504 48.393 22.1555 49.0792 22.4375C49.1809 22.4632 49.2826 22.5657 49.3334 22.6682C49.3588 22.7708 49.3842 22.8733 49.3842 22.9759V27.1545C49.3842 27.257 49.3334 27.3596 49.2571 27.4109C49.0284 27.4621 48.9013 27.4621 48.7996 27.4109V27.4109Z" fill="#31A8FF"/>
</g>
<defs>
<clipPath id="clip0_480_5049">
<rect width="61" height="60" fill="white"/>
</clipPath>
</defs>
</svg>
