<svg width="77" height="40" viewBox="0 0 77 40" fill="none" xmlns="http://www.w3.org/2000/svg">
<path d="M38.316 40.0001C59.4774 40.0001 76.632 31.0704 76.632 20.0551C76.632 9.03979 59.4774 0.110107 38.316 0.110107C17.1547 0.110107 0 9.03979 0 20.0551C0 31.0704 17.1547 40.0001 38.316 40.0001Z" fill="#8993BE"/>
<path fill-rule="evenodd" clip-rule="evenodd" d="M10.7598 31.8656L14.9587 10.6075H24.6685C28.8674 10.8696 30.9669 12.9678 30.9669 16.6438C31.025 17.9121 30.8224 19.179 30.3716 20.3659C29.9209 21.5529 29.2314 22.6348 28.346 23.5448C27.4606 24.4548 26.3979 25.1736 25.2237 25.6567C24.0495 26.1398 22.7887 26.377 21.5193 26.3535H16.7911L15.7414 31.8643L10.7598 31.8656ZM17.8408 22.418L19.1527 14.5443H22.564C24.4014 14.5443 25.7132 15.3319 25.7132 16.9047C25.4511 21.367 23.3529 22.1533 20.9925 22.4167H17.8458L17.8408 22.418ZM29.9867 26.3548L34.1857 5.09668H39.1772L38.1275 10.6075H42.8482C47.0471 10.8696 48.6223 12.9678 48.0969 15.594L46.2632 26.3548H41.0158L42.8531 16.645C43.1153 15.3332 43.1153 14.5456 41.2792 14.5456H37.3398L34.9795 26.356L29.9867 26.3548ZM45.9216 31.8656L50.1205 10.6075H59.8365C64.0355 10.8696 66.1349 12.9678 66.1349 16.6438C66.1929 17.9121 65.9902 19.1788 65.5393 20.3657C65.0885 21.5526 64.399 22.6345 63.5136 23.5444C62.6282 24.4544 61.5657 25.1732 60.3915 25.6563C59.2174 26.1395 57.9567 26.3768 56.6873 26.3535H51.9666L50.9169 31.8643L45.9216 31.8656ZM53.0027 22.418L54.3145 14.5443H57.737C59.5744 14.5443 60.8862 15.3319 60.8862 16.9047C60.6241 21.367 58.5259 22.1533 56.1655 22.4167H53.0126L53.0027 22.418Z" fill="#232531"/>
</svg>
