<svg width="53" height="53" viewBox="0 0 53 53" fill="none" xmlns="http://www.w3.org/2000/svg">
<path d="M39.8345 0H13.1563C5.8903 0 0 5.8903 0 13.1563V39.8345C0 47.1005 5.8903 52.9908 13.1563 52.9908H39.8345C47.1005 52.9908 52.9908 47.1005 52.9908 39.8345V13.1563C52.9908 5.8903 47.1005 0 39.8345 0Z" fill="#F15935"/>
<path d="M41.3362 33.1116C41.3362 33.1116 46.4526 21.1461 30.6771 10.2708C30.6771 10.2708 37.1381 18.5239 33.8139 27.741C33.8139 27.741 22.2199 19.3964 16.3864 13.4152C16.3864 13.4152 23.6756 24.056 26.2917 26.2274C26.2917 26.2274 21.9413 23.9433 11.8608 15.2409C11.8608 15.2409 23.4244 30.5504 28.8758 33.7466C28.8758 33.7466 20.6256 39.4675 8.55194 31.394C8.55194 31.394 14.9017 42.7474 28.3017 42.7474C34.3256 42.7474 36.0919 39.6106 39.075 39.6106C40.087 39.7124 41.0614 40.049 41.9205 40.5935C42.7796 41.1381 43.4998 41.8756 44.0238 42.7474C45.8252 38.2554 41.3438 33.1238 41.3438 33.1238L41.3362 33.1116Z" fill="white"/>
</svg>
