<svg width="56" height="55" viewBox="0 0 56 55" fill="none" xmlns="http://www.w3.org/2000/svg">
<circle opacity="0.04" cx="27.8857" cy="27.3418" r="27.3418" fill="white"/>
<g clip-path="url(#clip0_480_4993)">
<path d="M23.9389 30.8654C22.8378 30.8425 21.8811 30.2841 21.3242 29.4637C21.6521 29.4547 21.9744 29.4129 22.2791 29.3329L22.2485 28.3587C21.0442 28.1222 20.0936 27.2375 19.7996 26.1152C20.1383 26.2119 20.4953 26.269 20.8579 26.2756L22.6216 26.3077L21.1371 25.3549C20.2909 24.8117 19.7331 23.8803 19.7331 22.8409C19.7331 22.5307 19.7826 22.232 19.8744 21.9489C21.7582 23.8734 24.375 25.1124 27.2953 25.2491L27.9578 25.2801L27.8052 24.6347C27.7556 24.4248 27.7334 24.1956 27.7334 23.9444C27.7334 22.2927 29.1312 20.9121 30.9095 20.9121C31.823 20.9121 32.6568 21.2841 33.2391 21.8793L33.4269 22.0712L33.6906 22.0207C34.0081 21.9598 34.3192 21.8816 34.6225 21.7863C34.4532 21.9399 34.2654 22.0763 34.0622 22.1928L34.3714 23.123C34.5436 23.1019 34.7145 23.076 34.8838 23.0452C34.7004 23.2031 34.5075 23.3513 34.3052 23.4892L34.0726 23.6476L34.0874 23.9286C34.095 24.0733 34.1002 24.2146 34.1002 24.3589C34.1002 28.7896 30.584 33.9077 24.1304 33.9077C22.8726 33.9077 21.6745 33.6878 20.5713 33.2835C21.9372 33.0822 23.1908 32.5445 24.2288 31.7651L25.3868 30.8954L23.9389 30.8654Z" fill="white" stroke="white"/>
</g>
<defs>
<clipPath id="clip0_480_4993">
<rect width="17.943" height="17.2253" fill="white" transform="translate(18.4873 18.7969)"/>
</clipPath>
</defs>
</svg>
