<svg width="42" height="42" viewBox="0 0 42 42" fill="none" xmlns="http://www.w3.org/2000/svg">
<g clip-path="url(#clip0_480_5195)">
<path d="M0.000390616 21.7382C0.30664 20.8415 0.87539 20.2292 1.8707 20.1636C2.1332 20.1417 2.40664 20.2401 2.68008 20.2511C2.81133 20.262 2.97539 20.2401 3.06289 20.1636C5.13008 18.1079 7.17539 16.0412 9.25351 13.9636C8.40039 12.3672 8.49882 10.8473 9.87695 9.55698C10.9488 8.551 12.3926 8.46352 13.9676 9.26175C14.0441 9.1852 14.1426 9.10866 14.2301 9.02119C16.1769 7.06388 18.1348 5.11752 20.0926 3.16021C20.2785 2.97432 20.3332 2.83217 20.2457 2.55881C19.9613 1.6731 20.3441 0.73272 21.1426 0.26253C21.9191 -0.196725 22.9144 -0.076444 23.5707 0.557766C24.216 1.18104 24.3582 2.18703 23.9207 2.97432C23.4832 3.77255 22.5644 4.18807 21.6894 3.93657C21.3504 3.83816 21.1754 3.92564 20.9566 4.15527C19.9613 5.17219 18.9441 6.16724 17.9379 7.17323C17.8394 7.27164 17.7519 7.35912 17.6754 7.49033C20.8691 6.16724 24.1723 5.69705 27.5848 6.10163C31.0082 6.50622 34.1035 7.7637 36.9582 9.88502C37.2973 9.52418 37.6254 9.14147 37.9863 8.79156C38.3254 8.46352 38.6535 8.46352 38.9926 8.79156C39.9332 9.71007 40.8519 10.6395 41.7816 11.569C41.8801 11.6674 41.9457 11.7877 42.0223 11.897C42.0223 12.0391 42.0223 12.1704 42.0223 12.3125C40.9941 13.3513 39.9769 14.3901 38.9379 15.4289C38.6644 15.7023 38.3035 15.6913 38.0191 15.418C37.0457 14.4776 36.0941 13.5263 35.1426 12.564C34.8582 12.2797 34.8801 11.9189 35.1644 11.6127C35.416 11.3393 35.6785 11.0878 35.9301 10.8254C30.0785 6.33126 21.3176 6.07976 15.1051 10.4974C15.7394 12.0282 15.6082 13.4497 14.3394 14.5979C13.2019 15.6257 11.8894 15.6913 10.5223 15.079C6.38789 20.601 5.95039 29.5237 10.8394 35.9642C11.0801 35.6908 11.3098 35.4174 11.5613 35.1659C11.9004 34.827 12.2613 34.827 12.6113 35.1659C13.541 36.0954 14.4707 37.0248 15.3785 37.9652C15.6738 38.2714 15.6957 38.6322 15.4113 38.9165C14.3832 39.9553 13.3332 40.9722 12.2941 42.0001C12.1519 42.0001 12.0207 42.0001 11.8785 42.0001C11.7582 41.9126 11.6269 41.8361 11.5176 41.7267C10.6098 40.8192 9.69101 39.9116 8.79414 39.004C8.42226 38.6213 8.42226 38.2932 8.81601 37.9105C9.15507 37.5716 9.51601 37.2654 9.8332 36.9702C5.61133 30.8905 4.83476 24.4828 7.43789 17.6486C6.30039 18.7421 5.20664 19.8684 4.09101 20.9728C3.87226 21.1805 3.83945 21.3555 3.91601 21.6398C4.21133 22.6676 3.64258 23.7174 2.62539 24.0563C1.63008 24.3953 0.56914 23.9251 0.142578 22.9629C0.0988281 22.8535 0.0332031 22.7551 -0.0214844 22.6458C0.000390616 22.3396 0.000390616 22.0444 0.000390616 21.7382ZM14.1316 12.1048C14.1426 10.9566 13.2238 10.0272 12.0973 10.0272C10.9816 10.0272 10.0301 10.9676 10.0301 12.0938C10.0301 13.2092 10.9379 14.1277 12.0644 14.1386C13.2019 14.1495 14.1207 13.2529 14.1316 12.1048ZM10.2488 38.4135C10.8832 39.0477 11.5066 39.6819 12.1082 40.2724C12.7098 39.671 13.3441 39.0368 13.9457 38.4245C13.3332 37.8121 12.6988 37.1888 12.0863 36.5656C11.4738 37.1888 10.8394 37.8231 10.2488 38.4135ZM38.5004 10.2349C37.866 10.8691 37.2426 11.5034 36.6738 12.072C37.2644 12.6734 37.8879 13.3185 38.4566 13.898C39.0691 13.2857 39.7035 12.6624 40.316 12.0501C39.7254 11.4487 39.1019 10.8254 38.5004 10.2349ZM22.8488 2.02301C22.8488 1.6403 22.5316 1.31226 22.1488 1.32319C21.7769 1.32319 21.4816 1.61843 21.4598 1.99021C21.4488 2.38385 21.7441 2.70096 22.1269 2.71189C22.5207 2.72283 22.8379 2.40572 22.8488 2.02301ZM2.70195 22.1428C2.69101 21.771 2.3957 21.4758 2.01289 21.4758C1.63008 21.4758 1.36758 21.7273 1.36758 22.11C1.36758 22.5036 1.68476 22.8207 2.06758 22.8098C2.43945 22.7988 2.71289 22.5036 2.70195 22.1428Z" fill="white"/>
<path d="M30.931 41.9999C30.7669 41.8031 30.5701 41.6282 30.4607 41.4095C29.8263 40.1739 29.2138 38.9164 28.5794 37.6808C28.4701 37.473 28.2513 37.2762 28.0435 37.1887C25.8888 36.3358 23.7232 35.5157 21.5466 34.6956C21.1857 34.5644 20.9669 34.3566 20.8247 33.9848C18.6154 28.4738 16.406 22.9627 14.1966 17.4626C14.0216 17.0252 14.0544 16.6972 14.4154 16.3582C15.0935 15.724 15.7388 15.057 16.3841 14.3899C16.6794 14.0838 16.9747 14.0182 17.3794 14.1713C22.9357 16.4019 28.5029 18.6217 34.0701 20.8305C34.4091 20.9617 34.5732 21.2022 34.7044 21.5303C35.5247 23.6953 36.356 25.8604 37.2091 28.0255C37.2966 28.2441 37.4935 28.4628 37.7013 28.5613C38.9372 29.2064 40.1841 29.8078 41.431 30.4529C41.6497 30.5623 41.8247 30.7701 42.0216 30.9231C42.0216 31.0653 42.0216 31.1965 42.0216 31.3387C41.8904 31.4917 41.7701 31.6667 41.6279 31.8088C38.3576 35.0783 35.0982 38.3478 31.8279 41.6063C31.6857 41.7484 31.5216 41.8687 31.3576 41.9999C31.2044 41.9999 31.0622 41.9999 30.931 41.9999ZM15.8372 16.8284C15.5857 16.9815 15.4763 17.1345 15.5966 17.4626C17.6966 22.6893 19.7857 27.9161 21.8966 33.1429C21.9622 33.3178 22.1482 33.5037 22.3232 33.5693C24.3357 34.3676 26.3701 35.133 28.3935 35.9203C28.656 36.0187 28.7982 35.9749 28.9951 35.7781C31.2482 33.5147 33.5122 31.2512 35.7763 28.9986C36.006 28.7799 36.0169 28.605 35.9076 28.3316C35.1419 26.3853 34.3982 24.4389 33.6544 22.4925C33.5232 22.1535 33.3482 21.9677 33.0201 21.8364C27.8466 19.7807 22.6841 17.7141 17.5107 15.6365C17.1716 15.5053 16.9747 15.549 16.8435 15.8224C19.6654 18.6435 22.4763 21.4537 25.2872 24.2639C27.5076 22.908 29.6294 23.8922 30.5701 25.1715C31.6857 26.6914 31.5654 28.769 30.2638 30.1358C28.9841 31.4917 26.8732 31.7214 25.3201 30.6716C23.5701 29.5016 23.2091 27.6318 24.2701 25.2481C21.4591 22.4378 18.6591 19.6386 15.8372 16.8284ZM36.9904 29.7203C34.5513 32.1588 32.1341 34.5644 29.706 37.0028C30.231 38.0525 30.7669 39.1241 31.281 40.1301C34.2451 37.1668 37.1763 34.2363 40.1294 31.284C39.1013 30.7701 38.0294 30.2343 36.9904 29.7203ZM27.4747 24.92C26.0419 24.92 24.9154 26.0354 24.9154 27.4569C24.9154 28.8674 26.0529 30.0156 27.4638 30.0156C28.8638 30.0156 30.0232 28.8456 30.0122 27.4459C30.0013 26.0572 28.8638 24.9309 27.4747 24.92Z" fill="white"/>
</g>
<defs>
<clipPath id="clip0_480_5195">
<rect width="42" height="42" fill="white"/>
</clipPath>
</defs>
</svg>
