<svg width="211" height="124" viewBox="0 0 211 124" fill="none" xmlns="http://www.w3.org/2000/svg">
<path opacity="0.1" d="M42.474 0C48.868 0 55.034 1.37777 60.971 4.13332C67.365 6.8889 72.845 10.7926 77.412 15.8444C81.979 20.8963 84.948 26.4074 86.318 32.3778C88.145 38.3481 89.058 44.5481 89.058 50.9778C89.058 68.8889 84.491 84.5037 75.357 97.8222C66.223 111.141 53.207 119.867 36.308 124V112.289C46.356 105.859 51.608 97.1333 52.065 86.1111C48.868 87.0296 45.671 87.4889 42.474 87.4889C30.6 87.4889 20.552 83.3555 12.331 75.0889C4.10998 66.3629 -1.52588e-05 56.2592 -1.52588e-05 44.7778V42.7111C-1.52588e-05 31.6889 3.65398 22.0444 10.961 13.7778C18.725 5.51109 28.088 0.918507 39.049 0H41.104C41.104 0 41.332 0 41.789 0C42.246 0 42.474 0 42.474 0ZM208.26 32.3778C210.087 38.3481 211 44.5481 211 50.9778C211 68.8889 206.433 84.5037 197.299 97.8222C188.164 111.141 175.148 119.867 158.25 124V112.289C168.754 105.859 174.006 97.1333 174.006 86.1111C170.809 87.0296 167.612 87.4889 164.416 87.4889C152.998 87.4889 142.95 83.3555 134.273 75.0889C126.052 66.3629 121.942 56.2592 121.942 44.7778V42.7111C121.942 31.6889 125.595 22.0444 132.903 13.7778C140.667 5.51109 150.029 0.918507 160.99 0H161.675C161.675 0 161.904 0 162.36 0C162.817 0 163.045 0 163.045 0C163.045 0 163.274 0 163.73 0C164.187 0 164.416 0 164.416 0C174.463 0 183.597 3.21481 191.818 9.64444C200.496 15.6148 205.976 23.1926 208.26 32.3778Z" fill="white"/>
</svg>
