<svg width="42" height="42" viewBox="0 0 42 42" fill="none" xmlns="http://www.w3.org/2000/svg">
<g clip-path="url(#clip0_480_5207)">
<path d="M1.4 26.5767C14.49 26.5767 27.5217 26.5767 40.6 26.5767C40.6 26.4017 40.6 26.2383 40.6 26.0867C40.6 19.6 40.6 13.1133 40.6 6.61499C40.6 5.77499 40.4134 5.59999 39.5734 5.58833C39.2117 5.58833 38.8384 5.59999 38.4767 5.58833C38.045 5.56499 37.8 5.29666 37.8 4.89999C37.8 4.49166 38.0567 4.22333 38.4767 4.19999C39.0017 4.18833 39.5267 4.17666 40.0517 4.19999C41.09 4.25833 41.93 5.12166 42 6.15999C42.0117 6.29999 42 6.45166 42 6.59166C42 14.7817 42 22.9833 42 31.1733C42 32.7483 41.1717 33.5767 39.6084 33.5767C27.2184 33.5767 14.8167 33.5767 2.42667 33.5767C0.816667 33.6 0 32.7717 0 31.1733C0 22.9833 0 14.7817 0 6.59166C0 5.03999 0.828334 4.19999 2.36833 4.19999C2.74167 4.19999 3.12667 4.18833 3.5 4.19999C3.93167 4.21166 4.18834 4.47999 4.2 4.87666C4.21167 5.29666 3.94334 5.57666 3.48834 5.58833C3.09167 5.59999 2.70667 5.58833 2.31 5.58833C1.62167 5.58833 1.4 5.80999 1.4 6.50999C1.4 11.2233 1.4 15.925 1.4 20.6383C1.4 22.4467 1.4 24.255 1.4 26.0633C1.4 26.2267 1.4 26.39 1.4 26.5767ZM1.4 28.0117C1.4 29.0733 1.4 30.0883 1.4 31.1033C1.4 32.025 1.56333 32.1883 2.49667 32.1883C14.8283 32.1883 27.16 32.1883 39.4917 32.1883C39.5967 32.1883 39.69 32.1883 39.795 32.1883C40.3434 32.1767 40.5884 31.9317 40.5884 31.3717C40.6 30.3217 40.5884 29.2717 40.5884 28.2217C40.5884 28.1517 40.5767 28.0817 40.565 28C27.5217 28.0117 14.49 28.0117 1.4 28.0117Z" fill="white"/>
<path d="M35 7.02333C25.6434 7.02333 16.345 7.02333 7.00003 7.02333C7.00003 7.21 7.00003 7.385 7.00003 7.54833C7.00003 13.0783 7.00003 18.5967 7.00003 24.1267C7.00003 24.2667 7.0117 24.4183 6.98837 24.5583C6.95337 24.955 6.67337 25.2 6.28837 25.2C5.90337 25.2 5.63503 24.9433 5.60003 24.5467C5.58837 24.4183 5.60003 24.29 5.60003 24.15C5.60003 16.8933 5.60003 9.62499 5.60003 2.36833C5.60003 0.828333 6.44003 0 7.98003 0C16.66 0 25.3284 0 34.0084 0C35.5834 0 36.4 0.828333 36.4 2.40333C36.4 9.65999 36.4 16.9283 36.4 24.185C36.4 24.3483 36.4117 24.5117 36.3767 24.6633C36.295 25.025 36.05 25.2 35.6767 25.2C35.3033 25.1883 35.07 25.0017 35.0117 24.6283C34.9884 24.4767 35 24.3133 35 24.15C35 18.62 35 13.1017 35 7.57166C35 7.40833 35 7.23333 35 7.02333ZM35 5.58833C35 4.50333 35 3.47666 35 2.43833C35 1.575 34.825 1.4 33.95 1.4C25.3167 1.4 16.6834 1.4 8.05003 1.4C7.9917 1.4 7.93337 1.4 7.87503 1.4C7.23337 1.41167 7.00003 1.63333 7.00003 2.26333C7.00003 3.26666 7.00003 4.27 7.00003 5.285C7.00003 5.37833 7.0117 5.48333 7.02337 5.58833C16.3567 5.58833 25.6434 5.58833 35 5.58833Z" fill="white"/>
<path d="M16.5321 37.7768C19.5071 37.7768 22.4821 37.7768 25.5155 37.7768C25.3405 37.5318 25.1655 37.3335 25.0255 37.1118C24.7921 36.7502 24.5471 36.3768 24.3488 35.9918C24.1505 35.6068 24.2788 35.1985 24.6288 35.0235C24.9788 34.8485 25.3755 34.9652 25.5855 35.3618C26.0055 36.1902 26.5655 36.9135 27.2771 37.5085C27.4521 37.6602 27.7321 37.7418 27.9655 37.7768C28.3621 37.8352 28.7821 37.7768 29.1788 37.8585C30.1355 38.0685 30.7888 38.8852 30.8005 39.8768C30.8121 40.2968 30.8005 40.7168 30.8005 41.1485C30.7888 41.7435 30.5438 41.9885 29.9371 42.0002C27.8255 42.0002 25.7138 42.0002 23.5905 42.0002C19.7988 42.0002 16.0071 42.0002 12.2154 42.0002C11.3871 42.0002 11.1888 41.8018 11.1888 40.9618C11.1888 40.5885 11.1771 40.2035 11.1888 39.8302C11.2354 38.7102 12.1338 37.8352 13.2538 37.8002C13.2654 37.8002 13.2888 37.8002 13.3004 37.8002C14.2921 38.0102 14.9338 37.4968 15.4704 36.7735C15.7854 36.3535 16.0771 35.9218 16.3454 35.4668C16.6255 35.0002 16.9871 34.8252 17.3721 35.0235C17.7571 35.2218 17.8504 35.6418 17.5821 36.1202C17.2671 36.6802 16.9054 37.2052 16.5321 37.7768ZM12.6004 40.5652C18.2355 40.5652 23.8005 40.5652 29.3771 40.5652C29.4705 39.3635 29.3188 39.2002 28.1755 39.2002C25.5971 39.2002 23.0188 39.2002 20.4405 39.2002C18.1071 39.2002 15.7738 39.2002 13.4404 39.2002C12.8571 39.2002 12.6238 39.4452 12.6121 40.0168C12.6004 40.1918 12.6004 40.3668 12.6004 40.5652Z" fill="white"/>
<path d="M23.8471 10.3832C23.7888 10.6282 23.7538 10.7682 23.7071 10.9082C22.3421 14.9915 20.9888 19.0748 19.6238 23.1582C19.4488 23.6948 19.1221 23.9048 18.7021 23.7765C18.2821 23.6365 18.1188 23.2865 18.2821 22.7965C18.8654 21.0232 19.4604 19.2615 20.0438 17.4998C20.8254 15.1665 21.5954 12.8332 22.3771 10.5115C22.4354 10.3248 22.5171 10.0798 22.6688 9.99818C22.8788 9.89318 23.1821 9.82318 23.3804 9.90485C23.5788 9.96318 23.7071 10.2315 23.8471 10.3832Z" fill="white"/>
<path d="M12.2962 16.8002C13.4629 17.7685 14.5829 18.7019 15.7029 19.6352C15.8545 19.7635 16.0179 19.9152 16.0879 20.0902C16.2162 20.4052 16.0995 20.6969 15.8195 20.8952C15.5162 21.1169 15.2129 21.0585 14.9445 20.8252C14.0229 20.0552 13.1129 19.2969 12.1912 18.5269C11.7595 18.1652 11.3162 17.8035 10.8845 17.4302C10.3712 16.9985 10.3712 16.5785 10.8729 16.1585C12.1912 15.0502 13.5095 13.9535 14.8279 12.8569C15.2479 12.5069 15.6679 12.4952 15.9362 12.8335C16.2162 13.1719 16.1462 13.5802 15.7262 13.9302C14.5945 14.8869 13.4629 15.8202 12.2962 16.8002Z" fill="white"/>
<path d="M29.7033 16.8001C28.5133 15.8084 27.3816 14.8634 26.2383 13.9067C25.795 13.5334 25.7716 13.0084 26.18 12.7284C26.4833 12.5184 26.7866 12.5534 27.0666 12.7867C28.4433 13.9301 29.82 15.0734 31.185 16.2284C31.605 16.5784 31.5933 17.0217 31.1616 17.3834C29.8083 18.5267 28.4316 19.6701 27.0666 20.8017C26.6933 21.1051 26.2966 21.0817 26.0283 20.7551C25.76 20.4284 25.8183 20.0317 26.18 19.7284C27.3466 18.7601 28.5016 17.8034 29.7033 16.8001Z" fill="white"/>
<path d="M21.0112 30.7999C20.5562 30.7999 20.1012 30.8115 19.6579 30.7999C19.2029 30.7882 18.9229 30.5082 18.9229 30.0999C18.9229 29.7032 19.2262 29.4115 19.6695 29.3999C20.5912 29.3882 21.5129 29.3882 22.4229 29.3999C22.8662 29.4115 23.1579 29.7032 23.1579 30.0999C23.1579 30.5082 22.8779 30.7765 22.4229 30.7882C21.9445 30.7999 21.4779 30.7999 21.0112 30.7999Z" fill="white"/>
<path d="M28.6764 4.19981C27.3348 4.19981 25.9931 4.19981 24.6514 4.19981C24.0681 4.19981 23.7881 3.96647 23.7881 3.51147C23.7881 3.05647 24.0798 2.7998 24.6398 2.7998C27.3347 2.7998 30.0297 2.7998 32.7247 2.7998C33.2847 2.7998 33.5881 3.06814 33.5764 3.51147C33.5647 3.94314 33.2614 4.19981 32.7364 4.19981C31.3947 4.19981 30.0414 4.19981 28.6764 4.19981Z" fill="white"/>
<path d="M9.7998 3.47679C9.81146 3.85012 9.49646 4.17679 9.12313 4.18845C8.74979 4.20012 8.42313 3.88512 8.41146 3.51179C8.39979 3.12679 8.70313 2.81179 9.08813 2.80012C9.46146 2.78845 9.78813 3.10345 9.7998 3.47679Z" fill="white"/>
<path d="M12.5996 3.48852C12.6113 3.86185 12.2963 4.18851 11.9229 4.20018C11.5496 4.21185 11.2229 3.89685 11.2113 3.52352C11.1996 3.13852 11.5146 2.82352 11.8879 2.81185C12.2613 2.80018 12.5879 3.10352 12.5996 3.48852Z" fill="white"/>
<path d="M15.4004 3.5118C15.3887 3.88513 15.062 4.20013 14.6887 4.18847C14.3154 4.1768 14.0004 3.85013 14.012 3.4768C14.0237 3.0918 14.3387 2.78846 14.7237 2.80013C15.097 2.8118 15.4004 3.13846 15.4004 3.5118Z" fill="white"/>
</g>
<defs>
<clipPath id="clip0_480_5207">
<rect width="42" height="42" fill="white"/>
</clipPath>
</defs>
</svg>
