<svg width="63" height="62" viewBox="0 0 63 62" fill="none" xmlns="http://www.w3.org/2000/svg">
<g clip-path="url(#clip0_480_5053)">
<path d="M11.1562 0.00634766H51.8437C58.0125 0.00634766 63 5.0395 63 11.2647V50.7352C63 56.9605 58.0125 61.9936 51.8437 61.9936H11.1562C4.9875 61.9936 0 56.9605 0 50.7352V11.2647C0 5.0395 4.9875 0.00634766 11.1562 0.00634766Z" fill="#470137"/>
<path d="M33.127 16.2979L25.2521 29.4106L33.652 43.318C33.7045 43.424 33.7308 43.5299 33.7045 43.6359C33.6783 43.7418 33.5733 43.6624 33.4158 43.6889H27.4046C26.9846 43.6889 26.6958 43.6624 26.5121 43.3975C25.9608 42.2849 25.3833 41.1988 24.8321 40.0862C24.2808 39.0001 23.6771 37.8875 23.0471 36.7484C22.4171 35.6093 21.7871 34.4702 21.1571 33.3047H21.1046C20.5533 34.4438 19.9496 35.5828 19.3458 36.7219C18.7421 37.861 18.1383 39.0001 17.5608 40.1127C16.9571 41.2253 16.3533 42.3643 15.7496 43.4504C15.6446 43.7153 15.4346 43.7418 15.1458 43.7418H9.37081C9.26581 43.7418 9.18706 43.7948 9.18706 43.6624C9.16081 43.5564 9.18706 43.4504 9.23956 43.371L17.4033 29.8609L9.44956 16.2714C9.37081 16.1655 9.34456 16.0595 9.39706 16.0065C9.44956 15.9271 9.55456 15.9006 9.65956 15.9006H15.6183C15.7496 15.9006 15.8808 15.9271 15.9858 15.9535C16.0908 16.0065 16.1696 16.086 16.2483 16.192C16.7471 17.331 17.3246 18.4701 17.9283 19.6092C18.5583 20.7483 19.1621 21.8609 19.8183 22.9735C20.4483 24.0861 21.0258 25.1986 21.5771 26.3377H21.6296C22.1808 25.1722 22.7583 24.0331 23.3358 22.9205C23.9133 21.8079 24.5171 20.6953 25.1208 19.5827C25.7246 18.4701 26.3021 17.331 26.8796 16.2449C26.9058 16.139 26.9583 16.033 27.0371 15.98C27.1421 15.9271 27.2471 15.9006 27.3783 15.9271H32.917C33.0483 15.9006 33.1795 15.98 33.2058 16.1125C33.232 16.139 33.1795 16.2449 33.127 16.2979V16.2979ZM45.2545 44.2451C43.312 44.2716 41.3695 43.8743 39.6108 43.0531C37.957 42.2849 36.592 41.0133 35.647 39.4504C34.6758 37.8345 34.2033 35.8212 34.2033 33.4106C34.177 31.4504 34.6758 29.5166 35.647 27.8212C36.6445 26.0993 38.0883 24.6688 39.8208 23.7152C41.6583 22.6821 43.8633 22.1788 46.462 22.1788C46.5933 22.1788 46.777 22.1788 47.0133 22.2052C47.2495 22.2317 47.512 22.2317 47.827 22.2582V13.8873C47.827 13.7019 47.9058 13.5959 48.0895 13.5959H53.4183C53.5495 13.5694 53.6545 13.6754 53.6808 13.7813V39.0531C53.6808 39.5299 53.707 40.0597 53.7333 40.6425C53.7858 41.1988 53.812 41.7286 53.8383 42.1789C53.8383 42.3643 53.7595 42.5233 53.5758 42.6028C52.2108 43.1855 50.767 43.6094 49.297 43.8743C47.9583 44.1127 46.6195 44.2451 45.2545 44.2451V44.2451ZM47.827 38.9471V27.2914C47.5908 27.2384 47.3545 27.1854 47.1183 27.1589C46.8295 27.1324 46.5408 27.1059 46.252 27.1059C45.2283 27.1059 44.2045 27.3179 43.2858 27.7947C42.3933 28.245 41.632 28.9073 41.0545 29.755C40.477 30.6027 40.1883 31.7417 40.1883 33.1192C40.162 34.0464 40.3195 34.9736 40.6345 35.8477C40.897 36.563 41.2908 37.1987 41.8158 37.7285C42.3145 38.2054 42.9183 38.5762 43.6008 38.7882C44.3095 39.0266 45.0445 39.1325 45.7795 39.1325C46.1733 39.1325 46.5408 39.106 46.882 39.0795C47.2233 39.106 47.512 39.0531 47.827 38.9471V38.9471Z" fill="#FF61F6"/>
</g>
<defs>
<clipPath id="clip0_480_5053">
<rect width="63" height="62" fill="white"/>
</clipPath>
</defs>
</svg>
